<svg xmlns="http://www.w3.org/2000/svg" width="25.715" height="30" viewBox="0 0 25.715 30">
  <g id="Icon" transform="translate(0 0)">
    <path id="Exclusión_2" data-name="Exclusión 2" d="M12.857,30h0a42.281,42.281,0,0,1-6.428-5.284,27.627,27.627,0,0,1-4.42-5.646A13.757,13.757,0,0,1,0,12.273,11.919,11.919,0,0,1,3.765,3.594,13.088,13.088,0,0,1,12.857,0a13.089,13.089,0,0,1,9.092,3.594,11.919,11.919,0,0,1,3.766,8.679,13.756,13.756,0,0,1-2.009,6.8,27.637,27.637,0,0,1-4.42,5.646A42.3,42.3,0,0,1,12.858,30Zm0-21.162a3.215,3.215,0,1,0,3.215,3.215A3.218,3.218,0,0,0,12.857,8.838Z" transform="translate(0 0)" fill="#748b30"/>
  </g>
</svg>
