<svg xmlns="http://www.w3.org/2000/svg" width="184.214" height="107.99" viewBox="0 0 184.214 107.99">
  <g id="Ilustración_5" data-name="Ilustración 5" transform="translate(92.107 53.995)">
    <g id="Grupo_973" data-name="Grupo 973" transform="translate(-92.107 -53.995)">
      <g id="Grupo_955" data-name="Grupo 955" transform="translate(62.282 19.587)">
        <path id="Trazado_3204" data-name="Trazado 3204" d="M204.352,135.605c4.835-2.2,7.055-7.368,8.092-12.043a56.048,56.048,0,0,0,.739-17.994c-1.3-12.007-4.146-21.486-11.794-31.058a6.781,6.781,0,0,0-1.776-2.423c-.806-.712-1.645-1.4-2.465-2.106l.152.211a3.1,3.1,0,0,0-1.5-.837,6.811,6.811,0,0,0-1.71-.251,8.475,8.475,0,0,0-1.849.082,8.9,8.9,0,0,0-3.115,1.169,19.129,19.129,0,0,0-5.762,6.4,43.448,43.448,0,0,0-3.814,7.667,46.342,46.342,0,0,0,.2,33.295,36.884,36.884,0,0,0,9.364,14.127C193.105,135.376,198.943,138.064,204.352,135.605Z" transform="translate(-174.974 -63.686)" fill="#d1d8ba"/>
        <g id="Grupo_954" data-name="Grupo 954" transform="translate(0 0)">
          <g id="Grupo_949" data-name="Grupo 949">
            <path id="Trazado_3205" data-name="Trazado 3205" d="M205.464,135.94c-.894.32-1.786.644-2.679.966a5.125,5.125,0,0,1-2.186.467c-1.568-.163-2.265-2.21-2.624-3.491a11.31,11.31,0,0,0-1.884-4.469,7.658,7.658,0,0,0-4.165-2.183,43.861,43.861,0,0,1-4.53-1.07,11.041,11.041,0,0,1-3.26-1.843,16.932,16.932,0,0,1-4.5-6.227,43.136,43.136,0,0,1-2.478-7.66c-.764-3.135-1.461-6.3-2.015-9.475a75.348,75.348,0,0,1-.622-24.358,52.93,52.93,0,0,1,3.149-11.69c1.3-3.225,3.195-6.422,6.343-8.126a7.966,7.966,0,0,1,4.716-.953,11.037,11.037,0,0,1,4.728,1.925,27.6,27.6,0,0,1,4.013,3.385q2,1.965,3.811,4.107a92.063,92.063,0,0,1,11.745,18.436c1.734,3.45,3.344,6.962,5.043,10.429a67.941,67.941,0,0,1,4.532,10.736c.92,3.158,1.4,6.772-.543,9.647-1.611,2.385-4.24,3.884-6.334,5.792a5.943,5.943,0,0,0-2.167,4.253,12.41,12.41,0,0,0,1.068,4.488c.4,1.15.95,2.7-.158,3.616a10.183,10.183,0,0,1-3.711,1.437c-1.79.521-3.538,1.231-5.293,1.86a.834.834,0,0,0-.568,1,.821.821,0,0,0,1,.569c1.844-.661,3.68-1.405,5.566-1.938a10.65,10.65,0,0,0,4.115-1.743c2.8-2.366-.217-5.992-.384-8.775a3.91,3.91,0,0,1,.381-2.056,6.484,6.484,0,0,1,1.577-1.807c1.13-1,2.349-1.885,3.5-2.859a14.3,14.3,0,0,0,3.043-3.37,9.66,9.66,0,0,0,1.337-4.773c.124-3.867-1.354-7.648-2.859-11.139-1.672-3.877-3.645-7.616-5.435-11.438A114.206,114.206,0,0,0,205.442,67.9a65.5,65.5,0,0,0-7.483-8.549c-2.628-2.495-5.775-4.889-9.517-5.17-3.718-.28-7.111,1.9-9.311,4.748-2.414,3.127-3.763,7.072-4.808,10.839a67.306,67.306,0,0,0-1.665,25.155,110.505,110.505,0,0,0,2.078,12.227c.593,2.659,1.184,5.323,2.02,7.919,1.709,5.309,4.616,10.639,10.15,12.648a42.539,42.539,0,0,0,4.585,1.089,5.529,5.529,0,0,1,3.835,2.349c.819,1.451.956,3.181,1.612,4.7.7,1.632,1.985,3.174,3.906,3.158a7.279,7.279,0,0,0,2.373-.532q1.34-.483,2.679-.966a.835.835,0,0,0,.569-1A.821.821,0,0,0,205.464,135.94Z" transform="translate(-172.185 -54.151)" fill="#353535"/>
          </g>
          <g id="Grupo_950" data-name="Grupo 950" transform="translate(23.71 71.176)">
            <path id="Trazado_3206" data-name="Trazado 3206" d="M238.293,257.857a9.018,9.018,0,0,0,4.728.072,26.282,26.282,0,0,0,4.528-1.317c3.11-1.213,6.1-2.762,9.121-4.182a.821.821,0,0,0,.292-1.114.832.832,0,0,0-1.114-.292c-2.839,1.336-5.652,2.8-8.57,3.955a26.536,26.536,0,0,1-4.362,1.314,7.756,7.756,0,0,1-4.192-.006c-.99-.348-1.416,1.224-.433,1.57Z" transform="translate(-237.735 -250.926)" fill="#353535"/>
          </g>
          <g id="Grupo_951" data-name="Grupo 951" transform="translate(24.813 73.943)">
            <path id="Trazado_3207" data-name="Trazado 3207" d="M241.383,265.818a7.8,7.8,0,0,0,4.743-.073c1.541-.422,3.053-.985,4.544-1.557a74.533,74.533,0,0,0,8.9-4.1c.921-.5.1-1.906-.821-1.406a71.229,71.229,0,0,1-8.35,3.877c-1.416.547-2.849,1.07-4.3,1.5a6.7,6.7,0,0,1-4.276.187.821.821,0,0,0-1,.569.831.831,0,0,0,.569,1Z" transform="translate(-240.784 -258.576)" fill="#353535"/>
          </g>
          <g id="Grupo_952" data-name="Grupo 952" transform="translate(28.509 79.01)">
            <path id="Trazado_3208" data-name="Trazado 3208" d="M251.217,278.506l1.522,1.708a7.327,7.327,0,0,0,1.465,1.515c1.279.765,2.76-.447,3.915-.954a20.772,20.772,0,0,1,3.9-1.252c1.269-.277,2.633-.355,3.315-1.644a6.989,6.989,0,0,0,.395-4.714c-.237-1.02-1.806-.588-1.569.433a6.045,6.045,0,0,1,.107,2.248,2.474,2.474,0,0,1-.65,1.607,5.381,5.381,0,0,1-1.95.483,21.707,21.707,0,0,0-2.121.57c-.713.231-1.41.5-2.1.8-.672.29-1.306.692-1.984.96-.348.138-.392.114-.636-.151-.278-.3-.547-.613-.82-.92l-1.64-1.839c-.7-.783-1.847.371-1.151,1.151Z" transform="translate(-251.001 -272.584)" fill="#353535"/>
          </g>
          <g id="Grupo_953" data-name="Grupo 953" transform="translate(11.518 34.343)">
            <path id="Trazado_3209" data-name="Trazado 3209" d="M225.988,190.162l-3.8-7.525-.487,1.2a18.725,18.725,0,0,0,6.167-2.874,3.632,3.632,0,0,0,1.8-2.579,3.694,3.694,0,0,0-1.123-2.872,8.229,8.229,0,0,0-2.867-1.708,15.286,15.286,0,0,0-3.185-.9,16.109,16.109,0,0,0-6.837.281,6.232,6.232,0,0,0-3.166,1.759,3.7,3.7,0,0,0-.876,3.324.807.807,0,0,0,.569.569,17.5,17.5,0,0,0,12.778-2,11.2,11.2,0,0,0,3.432-2.827c2.014-2.805-1.406-6.031-3.572-7.494a12.913,12.913,0,0,0-8.338-2.18,13.223,13.223,0,0,0-8.71,4.44.823.823,0,0,0,.165,1.278,11.631,11.631,0,0,0,8.482.157,26.7,26.7,0,0,0,4.159-1.77,14.877,14.877,0,0,0,3.537-2.367,6.521,6.521,0,0,0,2-3.649,4.845,4.845,0,0,0-1.073-3.854c-1.925-2.367-5.194-2.592-8.011-2.773-2.844-.182-5.911-.177-8.442,1.321A5.833,5.833,0,0,0,206,160.126c-.214.612-.448,1.684.2,2.1a4.126,4.126,0,0,0,2.08.561,9.862,9.862,0,0,0,4.288-1.172,41.793,41.793,0,0,0,7.8-4.666,2.384,2.384,0,0,0,1.242-1.786,4.042,4.042,0,0,0-.576-1.908c-1.324-2.451-4.158-3.538-6.8-3.687a25.631,25.631,0,0,0-4.723.315,11.22,11.22,0,0,0-3.784.98,4.749,4.749,0,0,0-1.474,1.178.827.827,0,0,0,.359,1.36,16.774,16.774,0,0,0,16.04-2.926.82.82,0,0,0,0-1.151.832.832,0,0,0-1.151,0,15.129,15.129,0,0,1-14.456,2.507l.359,1.36c1.241-1.5,3.458-1.614,5.256-1.823,2.148-.25,4.531-.45,6.54.523a5.666,5.666,0,0,1,2.055,1.6,4,4,0,0,1,.577,1.032,1.434,1.434,0,0,1,.153.573c-.029.178-.236.294-.374.4a38.562,38.562,0,0,1-5.9,3.748,23.47,23.47,0,0,1-3.43,1.559,4.073,4.073,0,0,1-3.266.02l.4.7c-.069-2.645,3.245-3.822,5.373-4.076a23,23,0,0,1,4.164-.028,17.993,17.993,0,0,1,4.387.62,4.938,4.938,0,0,1,2.761,2,3.415,3.415,0,0,1,.016,3.347,7.21,7.21,0,0,1-2.781,2.766,26.111,26.111,0,0,1-3.676,1.874c-2.761,1.15-6.055,1.934-8.9.622l.165,1.278a11.444,11.444,0,0,1,13.8-2.761,11.609,11.609,0,0,1,3.056,2.261c.749.777,1.972,2.1,1.494,3.284a3.886,3.886,0,0,1-1.21,1.372,14.16,14.16,0,0,1-1.5,1.09,15.868,15.868,0,0,1-11.948,2.093l.568.569c-.44-1.738,1.558-2.719,2.905-3.081a14.339,14.339,0,0,1,5.484-.353,12.678,12.678,0,0,1,5.115,1.7,2.664,2.664,0,0,1,1.361,1.834c.089.789-.485,1.253-1.069,1.669a17.468,17.468,0,0,1-5.714,2.664.825.825,0,0,0-.486,1.2l3.8,7.525c.472.935,1.877.112,1.405-.822Z" transform="translate(-204.029 -149.096)" fill="#353535"/>
          </g>
        </g>
      </g>
      <g id="Grupo_963" data-name="Grupo 963">
        <path id="Trazado_3210" data-name="Trazado 3210" d="M50.885,20.028c-6.25-.451-11.48,3.666-15.2,7.938a66.572,66.572,0,0,0-10.967,18.28c-5.462,13.212-7.89,24.671-5.4,38.945a8.035,8.035,0,0,0,.465,3.522c.43,1.2.908,2.389,1.358,3.583l-.037-.305a3.658,3.658,0,0,0,1.079,1.718,8.015,8.015,0,0,0,1.627,1.228,9.971,9.971,0,0,0,1.96.961,10.466,10.466,0,0,0,3.887.547c3.472-.194,6.677-1.751,9.591-3.389a51.427,51.427,0,0,0,8.295-5.81A55.044,55.044,0,0,0,66.207,52.534c.815-6.54.605-13.6-1.682-19.976C62.4,26.628,57.878,20.533,50.885,20.028Z" transform="translate(-11.704 -12.762)" fill="#faf5bd"/>
        <g id="Grupo_962" data-name="Grupo 962">
          <g id="Grupo_956" data-name="Grupo 956">
            <path id="Trazado_3211" data-name="Trazado 3211" d="M12.61,97.595A6.139,6.139,0,0,1,9.5,93.477a7.785,7.785,0,0,1,.393-2.894,19.908,19.908,0,0,0,.642-3.049c.434-4.131-1.239-8.09-2.952-11.747-.87-1.857-1.793-3.693-2.539-5.605A44.516,44.516,0,0,1,3.18,64.106,63.905,63.905,0,0,1,1.668,51.4a118.644,118.644,0,0,1,.381-13.175A53.9,53.9,0,0,1,4.587,25.113,39.941,39.941,0,0,1,18.3,6.3,22.617,22.617,0,0,1,28.615,1.784a20.646,20.646,0,0,1,9.628,1.11,26.2,26.2,0,0,1,14.5,13.17c3.5,7.231,3.77,15.716,2.157,23.475A60.616,60.616,0,0,1,44.718,61.822a114.773,114.773,0,0,1-7.789,9.792c-2.772,3.155-5.7,6.158-8.553,9.24a46.242,46.242,0,0,0-4.053,4.928,18.357,18.357,0,0,0-2.709,5.712,21.925,21.925,0,0,0-.58,2.62c-.11.749-.19,1.507-.374,2.243a3.448,3.448,0,0,1-.85,1.688,3.54,3.54,0,0,1-1.989.835,8.179,8.179,0,0,1-5.211-1.284A.815.815,0,0,0,11.789,99a9.961,9.961,0,0,0,5.742,1.534,4.838,4.838,0,0,0,4.275-2.545c.67-1.438.652-3.034,1-4.556a18.239,18.239,0,0,1,2.343-5.961c2.347-3.658,5.553-6.679,8.5-9.836s5.849-6.4,8.553-9.78c5.343-6.688,10.025-14.029,12.733-22.2,2.626-7.922,3.48-16.681,1.29-24.811A29.193,29.193,0,0,0,51.272,10.6a28.421,28.421,0,0,0-7.834-7.028A24.855,24.855,0,0,0,33.61.145,20.672,20.672,0,0,0,23.139,1.631,32.186,32.186,0,0,0,12.965,8.813,41.7,41.7,0,0,0,1.4,30.852a88.243,88.243,0,0,0-1.329,13.8c-.282,8.809.213,17.925,3.505,26.2,1.562,3.929,3.844,7.6,4.908,11.713a12.87,12.87,0,0,1,.244,6.041c-.456,2.014-1.3,4.068-.588,6.132A8.439,8.439,0,0,0,11.789,99C12.68,99.557,13.5,98.149,12.61,97.595Z" transform="translate(0 0)" fill="#353535"/>
          </g>
          <g id="Grupo_957" data-name="Grupo 957" transform="translate(7.239 94.637)">
            <path id="Trazado_3212" data-name="Trazado 3212" d="M21,262.228c-.3,2.116-.617,4.23-.913,6.347a3.429,3.429,0,0,0,.435,2.672,4.714,4.714,0,0,0,2.073,1.431,23.98,23.98,0,0,0,5.627,1.579,3.42,3.42,0,0,0,2.527-.335,5.007,5.007,0,0,0,1.462-2.324q1.408-3.247,2.68-6.552a.821.821,0,0,0-.569-1,.833.833,0,0,0-1,.569q-.973,2.532-2.029,5.03c-.328.772-.637,1.562-1.01,2.314a1.209,1.209,0,0,1-1.433.752A19.819,19.819,0,0,1,24,271.487a6.58,6.58,0,0,1-1.847-.871,1.61,1.61,0,0,1-.485-1.69c.274-2.091.6-4.177.9-6.265a.841.841,0,0,0-.568-1,.82.82,0,0,0-1,.568Z" transform="translate(-20.012 -261.635)" fill="#353535"/>
          </g>
          <g id="Grupo_958" data-name="Grupo 958" transform="translate(7.896 98.66)">
            <path id="Trazado_3213" data-name="Trazado 3213" d="M22.068,274.147a11.242,11.242,0,0,0,5.437,2.81,28.22,28.22,0,0,0,3.043.518,5.358,5.358,0,0,0,3.325-.353c.923-.5.1-1.9-.821-1.405a4.448,4.448,0,0,1-2.644.112,23.539,23.539,0,0,1-2.609-.476A9.547,9.547,0,0,1,23.219,273a.814.814,0,0,0-1.151,1.151Z" transform="translate(-21.828 -272.757)" fill="#353535"/>
          </g>
          <g id="Grupo_959" data-name="Grupo 959" transform="translate(8.549 93.013)">
            <path id="Trazado_3214" data-name="Trazado 3214" d="M24.645,259.047a12.869,12.869,0,0,1,6.22.267c1.723.4,3.8.7,4.564,2.541a.841.841,0,0,0,1,.569.819.819,0,0,0,.568-1,5.174,5.174,0,0,0-2.072-2.507,11.269,11.269,0,0,0-3.3-1.093,15.139,15.139,0,0,0-7.416-.344.815.815,0,0,0,.433,1.569Z" transform="translate(-23.636 -257.145)" fill="#353535"/>
          </g>
          <g id="Grupo_960" data-name="Grupo 960" transform="translate(12.905 50.166)">
            <path id="Trazado_3215" data-name="Trazado 3215" d="M37.307,182.933a138.455,138.455,0,0,1,1.945-16.763c1-5.763,2.255-11.478,3.661-17.154q1.159-4.675,2.442-9.318a.814.814,0,0,0-1.569-.433c-1.534,5.587-2.967,11.2-4.208,16.861-1.257,5.728-2.317,11.5-3.051,17.322-.4,3.15-.692,6.313-.848,9.485-.051,1.047,1.576,1.044,1.628,0Z" transform="translate(-35.678 -138.689)" fill="#353535"/>
          </g>
          <g id="Grupo_961" data-name="Grupo 961" transform="translate(16.946 50.766)">
            <path id="Trazado_3216" data-name="Trazado 3216" d="M48.5,184.985a107.632,107.632,0,0,1,1.049-17.04c.785-5.785,1.922-11.52,3.255-17.2.737-3.142,1.537-6.27,2.379-9.385a.814.814,0,0,0-1.569-.433c-1.514,5.6-2.892,11.242-4.014,16.937a147.746,147.746,0,0,0-2.464,17.508c-.239,3.2-.341,6.408-.264,9.615a.814.814,0,0,0,1.628,0Z" transform="translate(-46.85 -140.349)" fill="#353535"/>
          </g>
        </g>
      </g>
      <g id="Grupo_972" data-name="Grupo 972" transform="translate(110.306 6.541)">
        <path id="Trazado_3217" data-name="Trazado 3217" d="M378.529,43.61c-7.695-10.9-23.666-23.7-38.478-17.678-6.441,2.617-11.169,8.3-13.564,14.451-3.028,7.774-2.347,16.343-.594,24.262a100.944,100.944,0,0,0,9.737,26.91c3.043,5.515,8.861,13.826,16.582,11.607a12.4,12.4,0,0,0,3.921-.633c3.746-1.275,6.791-3.913,9.434-6.673a92.17,92.17,0,0,0,8.177-9.92c4.619-6.415,9.516-13.785,10.682-21.6C385.528,56.93,382.8,49.658,378.529,43.61Z" transform="translate(-317.364 -22.109)" fill="#fdfbe5"/>
        <g id="Grupo_971" data-name="Grupo 971">
          <g id="Grupo_964" data-name="Grupo 964" transform="translate(25.884 85.102)">
            <path id="Trazado_3218" data-name="Trazado 3218" d="M376.53,255.953a25.812,25.812,0,0,0,.515,2.537c.216.981.392,1.97.558,2.96.158.947.3,1.9.469,2.843a7.485,7.485,0,0,0,.694,2.264c.929,1.736,2.777,1.882,4.532,2.052l3.043.294a9.049,9.049,0,0,0,2.869.074c1.823-.42,2.28-2.564,2.74-4.1a46.853,46.853,0,0,0,1.363-5.893c.158-.964.325-1.946.388-2.921a2.331,2.331,0,0,0-1.042-2.255,4.168,4.168,0,0,0-2.18-.452c-.981.008-1.961.045-2.941.065-2.253.047-4.506.088-6.758.135l-1.668.036a5.845,5.845,0,0,0-1.567.09c-.967.306-1.093,1.406-1.014,2.268a.836.836,0,0,0,.814.814.82.82,0,0,0,.814-.814c-.024-.263.007-.517,0-.773-.007-.4.033-.078.032-.078.015.012-.234.23-.237.148,0,0,.668-.016.713-.017q1.317-.03,2.634-.057,2.6-.053,5.191-.1l2.624-.056a12.88,12.88,0,0,1,2.107,0c.574.084.875.286.858.892a19.3,19.3,0,0,1-.31,2.472,46.785,46.785,0,0,1-1.1,5.068q-.334,1.208-.733,2.4a2.542,2.542,0,0,1-.823,1.433c-.583.356-1.511.116-2.145.055l-2.685-.26c-.806-.078-1.632-.11-2.43-.255a2.147,2.147,0,0,1-1.554-.867,5.364,5.364,0,0,1-.636-1.965c-.169-.931-.309-1.868-.463-2.8-.159-.963-.327-1.924-.531-2.878-.167-.782-.417-1.561-.511-2.356a.839.839,0,0,0-.814-.814A.819.819,0,0,0,376.53,255.953Z" transform="translate(-376.511 -253.359)" fill="#353535"/>
          </g>
          <g id="Grupo_965" data-name="Grupo 965">
            <path id="Trazado_3219" data-name="Trazado 3219" d="M331.97,103.251c-2.734-1.639-3.494-5.039-3.958-7.963-.28-1.764-.445-3.54-.847-5.284a33.908,33.908,0,0,0-1.783-5.449c-3.065-7.329-8.091-13.519-12.213-20.243-4.083-6.66-7.71-14.537-6.29-22.545,1.141-6.439,5.39-11.789,10.681-15.438a38.649,38.649,0,0,1,19.265-6.5,48.184,48.184,0,0,1,22.01,3.642,46.567,46.567,0,0,1,9.755,5.575c3.019,2.25,5.808,4.973,7.271,8.509,2.873,6.947.928,14.907-2.629,21.205-3.951,7-9.733,12.68-14.6,19.01A50.819,50.819,0,0,0,352.4,87.807a31.435,31.435,0,0,0-1.95,5.629c-.464,1.96-.823,3.943-1.376,5.882a23.421,23.421,0,0,1-.911,2.659c-.184.436-.388.867-.613,1.284-.159.294-.355.7-.7.817-.989.331-.565,1.9.433,1.569a3.6,3.6,0,0,0,1.956-2.129,22.226,22.226,0,0,0,1.15-2.927c.635-2,1.037-4.067,1.491-6.116a34.585,34.585,0,0,1,4.672-10.923c4.388-6.972,10.387-12.719,15.159-19.407,4.525-6.342,7.943-13.96,6.992-21.927a18.834,18.834,0,0,0-4.62-10.424A36.958,36.958,0,0,0,364.77,24.6a49.773,49.773,0,0,0-22.249-6.461,43.359,43.359,0,0,0-21.473,4.241c-5.992,3-11.465,7.738-14.2,13.967a22.566,22.566,0,0,0-1.825,10.871A34.245,34.245,0,0,0,308.46,59.1C312,66.574,317.374,72.938,321.4,80.126A38.549,38.549,0,0,1,325.74,91.1c.7,3.39.7,6.933,2.279,10.094a8.3,8.3,0,0,0,3.129,3.459.814.814,0,0,0,.821-1.405Z" transform="translate(-304.953 -18.084)" fill="#353535"/>
          </g>
          <g id="Grupo_966" data-name="Grupo 966" transform="translate(26.513 87.89)">
            <path id="Trazado_3220" data-name="Trazado 3220" d="M378.822,262.672a29.229,29.229,0,0,0,7.413,1.165,28.185,28.185,0,0,0,3.69-.142q.944-.1,1.881-.253c.615-.1,1.222-.272,1.837-.359h-.433l.1.015-.359-.209.069.064-.238-.576,0,.048.4-.7.1-.044h.433l-.037-.014.569,1,.005-.038a.842.842,0,0,0-.568-1,.82.82,0,0,0-1,.568l-.005.039a.849.849,0,0,0,.568,1,.892.892,0,0,0,1.051-1.267c-.441-.753-1.353-.393-2.019-.26a26.641,26.641,0,0,1-4.367.5,27.589,27.589,0,0,1-8.66-1.1.815.815,0,0,0-.433,1.57Z" transform="translate(-378.25 -261.066)" fill="#353535"/>
          </g>
          <g id="Grupo_967" data-name="Grupo 967" transform="translate(26.872 90.759)">
            <path id="Trazado_3221" data-name="Trazado 3221" d="M379.841,270.607a30.314,30.314,0,0,0,7.479,1.776,29.07,29.07,0,0,0,3.822.163c.98-.023,2.551.109,3.052-.969a.837.837,0,0,0-.292-1.113.82.82,0,0,0-1.114.292c-.1.206-.015.044.026.025a.945.945,0,0,1-.221.063,4.921,4.921,0,0,1-.62.044q-.873.046-1.747.038a28.065,28.065,0,0,1-9.953-1.887.82.82,0,0,0-1,.568.832.832,0,0,0,.569,1Z" transform="translate(-379.243 -268.998)" fill="#353535"/>
          </g>
          <g id="Grupo_968" data-name="Grupo 968" transform="translate(27.464 94.69)">
            <path id="Trazado_3222" data-name="Trazado 3222" d="M381.448,281.475c4.023,1.233,8.4,2.472,12.536.99a.835.835,0,0,0,.569-1,.821.821,0,0,0-1-.569c-3.865,1.385-7.917.161-11.67-.99-1-.308-1.433,1.263-.433,1.57Z" transform="translate(-380.879 -279.865)" fill="#353535"/>
          </g>
          <g id="Grupo_969" data-name="Grupo 969" transform="translate(29.029 46.462)">
            <path id="Trazado_3223" data-name="Trazado 3223" d="M386.837,186.7a244.357,244.357,0,0,0,1.82-30.639q-.016-4.375-.19-8.747c-.041-1.044-1.669-1.049-1.628,0A244.311,244.311,0,0,1,386.121,178q-.378,4.359-.912,8.7a.818.818,0,0,0,.814.814.834.834,0,0,0,.814-.814Z" transform="translate(-385.205 -146.532)" fill="#353535"/>
          </g>
          <g id="Grupo_970" data-name="Grupo 970" transform="translate(31.084 45.626)">
            <path id="Trazado_3224" data-name="Trazado 3224" d="M390.983,146.5a9.875,9.875,0,0,0,1.949,2.949c.751.786,1.768,1.83,2.919,1.146a2.081,2.081,0,0,0,.925-1.432,3.8,3.8,0,0,1,.371-1.3,15.673,15.673,0,0,1,1.812-2.245l-1.389-.576a244.444,244.444,0,0,1-.719,30.685q-.378,4.359-.912,8.7a.818.818,0,0,0,.814.814.834.834,0,0,0,.814-.814,244.432,244.432,0,0,0,1.82-30.639q-.016-4.375-.19-8.747a.823.823,0,0,0-1.389-.575c-.556.64-1.131,1.258-1.638,1.938a5.609,5.609,0,0,0-.641,1.049,6.507,6.507,0,0,0-.338,1.345c-.029.13-.139.289-.161.386-.026.117-.2-.114.048.024.2.108-.009-.025-.106-.1a9.039,9.039,0,0,1-1.037-.973,8.665,8.665,0,0,1-1.546-2.46.818.818,0,0,0-1.113-.292.835.835,0,0,0-.292,1.113Z" transform="translate(-390.888 -144.223)" fill="#353535"/>
          </g>
        </g>
      </g>
    </g>
  </g>
</svg>
