<svg xmlns="http://www.w3.org/2000/svg" width="77.508" height="98.933" viewBox="0 0 77.508 98.933">
  <g id="Ilustración_4" data-name="Ilustración 4" transform="translate(38.754 49.466)">
    <g id="Grupo_948" data-name="Grupo 948" transform="translate(-38.754 -49.466)">
      <path id="Trazado_3196" data-name="Trazado 3196" d="M32.084,77.674c-10.543-8.408-23.429-26.995-19.007-46.3A31.131,31.131,0,0,1,25.31,12.661C32.2,7.958,40.1,7.824,47.477,9.111a72.928,72.928,0,0,1,25.348,9.124C78.1,21.421,86.132,27.77,84.668,37.727a21.393,21.393,0,0,1-.292,5A35.215,35.215,0,0,1,78.96,55.35a107.743,107.743,0,0,1-8.48,11.42c-5.534,6.545-11.921,13.549-18.993,15.917C44.791,84.928,37.934,82.339,32.084,77.674Z" transform="translate(-7.776 -5.371)" fill="#d1d8ba"/>
      <g id="Grupo_947" data-name="Grupo 947">
        <g id="Grupo_940" data-name="Grupo 940">
          <path id="Trazado_3197" data-name="Trazado 3197" d="M23.062,69.467c-5.993-.929-10.973-4.847-14.5-9.634A37.61,37.61,0,0,1,3.888,51.31,30.887,30.887,0,0,1,1.6,40.629C1.467,33.607,4.422,26.717,8.124,20.88a44.2,44.2,0,0,1,12.991-13.4,35.371,35.371,0,0,1,18.2-5.837A30.4,30.4,0,0,1,57.844,6.983,41.876,41.876,0,0,1,65.477,14.2,53,53,0,0,1,71.5,22.787a35.156,35.156,0,0,1,3.7,9.644,32.562,32.562,0,0,1,.53,9.983,32.029,32.029,0,0,1-7.579,17.8,32.984,32.984,0,0,1-15.409,9.938,32.469,32.469,0,0,1-4.464.986.819.819,0,0,0-.568,1,.835.835,0,0,0,1,.568,34.274,34.274,0,0,0,17.412-8.153A33.417,33.417,0,0,0,76.487,47.5a34.2,34.2,0,0,0-1.3-20.692,44.641,44.641,0,0,0-5.3-9.591,56.793,56.793,0,0,0-7.078-8.227A32.724,32.724,0,0,0,54.018,2.9,32.228,32.228,0,0,0,44.194.214,36.112,36.112,0,0,0,24.3,3.79,43.272,43.272,0,0,0,9.43,16.2a50.481,50.481,0,0,0-5.268,8.39A40.268,40.268,0,0,0,.431,35.231C-.941,42.753,1.084,50.4,4.788,56.976c3.08,5.468,7.611,10.415,13.5,12.845a19.035,19.035,0,0,0,4.341,1.216.84.84,0,0,0,1-.569.82.82,0,0,0-.569-1Z" transform="translate(0 0)" fill="#353535"/>
        </g>
        <g id="Grupo_941" data-name="Grupo 941" transform="translate(22.513 70.061)">
          <path id="Trazado_3198" data-name="Trazado 3198" d="M62.274,194.7a25.115,25.115,0,0,1,1.029,8.645.821.821,0,0,0,.814.814.834.834,0,0,0,.814-.814c-.032.277.118-.216-.005.02.024-.046.05-.09.073-.136.069-.139.012-.027.014-.029.079-.084.157-.163.243-.239.028-.025-.1.065.03-.021.063-.042.126-.084.19-.123.119-.071.243-.132.366-.194.041-.02.2-.089.076-.037.1-.04.192-.076.289-.111a9.989,9.989,0,0,1,1-.3,22.64,22.64,0,0,1,4.53-.561,24.127,24.127,0,0,1,3.206.014c.37.034.739.082,1.107.131-.214-.028.15.021.225.032l.487.072q.483.073.965.154a43.035,43.035,0,0,1,4.425.955,19.882,19.882,0,0,1,2.1.7.837.837,0,0,1,.1.041l.21.094c.144.067.286.136.426.211a5.676,5.676,0,0,1,.695.432c-.158-.116.09.08.142.13s.073.077.111.114c.116.109.017.012.016.009.051.079.1.159.143.239s-.04-.1-.039-.093.025.053.021.062a.621.621,0,0,0,.034.146c-.022-.086-.022-.178-.017-.046.008.167.012-.033.008-.02a1.866,1.866,0,0,0-.084.458c-.009.164.007.33.013.494,0,.1.007.191.009.287.005.225-.025.15.111-.059.194-.3-.059-.068-.2,0q-.181.093-.365.181c-.244.117-.491.229-.743.329a16.742,16.742,0,0,1-1.638.556,18.511,18.511,0,0,1-3.436.63,25.244,25.244,0,0,1-7.557-.522,30.39,30.39,0,0,1-3.791-1.089,6.4,6.4,0,0,1-2.963-1.7,2.209,2.209,0,0,1-.526-1.211.834.834,0,0,0-.814-.814.82.82,0,0,0-.814.814c.229,2.978,3.308,4.066,5.736,4.839a29.034,29.034,0,0,0,8.437,1.4,20.484,20.484,0,0,0,7.8-1.331,13.155,13.155,0,0,0,1.8-.832,1.3,1.3,0,0,0,.592-1.335,4.7,4.7,0,0,0-.02-.576c-.025-.156-.051.161.006,0a1.319,1.319,0,0,0,.047-.263,1.838,1.838,0,0,0-.072-.833c-.424-1.282-1.939-1.923-3.088-2.373a28.05,28.05,0,0,0-4.787-1.3,33,33,0,0,0-7.025-.781,30.542,30.542,0,0,0-5.195.486c-1.356.26-3.136.679-3.922,1.942a2.224,2.224,0,0,0-.3.96h1.628a26.5,26.5,0,0,0-1.088-9.077.814.814,0,0,0-1.569.433Z" transform="translate(-62.24 -193.692)" fill="#353535"/>
        </g>
        <g id="Grupo_942" data-name="Grupo 942" transform="translate(46.721 71.446)">
          <path id="Trazado_3199" data-name="Trazado 3199" d="M130.795,207.031c.221-2.91.512-5.815.693-8.728.065-1.046-1.563-1.042-1.628,0-.181,2.914-.472,5.818-.693,8.728a.821.821,0,0,0,.814.814.83.83,0,0,0,.814-.814Z" transform="translate(-129.165 -197.52)" fill="#353535"/>
        </g>
        <g id="Grupo_943" data-name="Grupo 943" transform="translate(23.767 80.173)">
          <path id="Trazado_3200" data-name="Trazado 3200" d="M65.749,222.811a11.248,11.248,0,0,1,.34,3.309,4.1,4.1,0,0,0,1.556,3.071,15.418,15.418,0,0,0,6.767,2.686,35.938,35.938,0,0,0,7.4.379c2.321-.084,5.09-.007,6.87-1.757,2.215-2.178,1.847-5.477,1.416-8.258a.82.82,0,0,0-1-.568.834.834,0,0,0-.569,1c.323,2.085.736,4.737-.806,6.473-1.382,1.556-3.859,1.4-5.757,1.476-4.3.165-8.907,0-12.691-2.288a3.431,3.431,0,0,1-1.2-1.022,2.94,2.94,0,0,1-.367-1.4,11.139,11.139,0,0,0-.383-3.535.839.839,0,0,0-1-.569.82.82,0,0,0-.569,1Z" transform="translate(-65.707 -221.647)" fill="#353535"/>
        </g>
        <g id="Grupo_944" data-name="Grupo 944" transform="translate(25.353 86.413)">
          <path id="Trazado_3201" data-name="Trazado 3201" d="M70.193,239.493a7.76,7.76,0,0,0,1.848,6.237,18.707,18.707,0,0,0,5.25,4.034,12.089,12.089,0,0,0,3.2,1.5,5.864,5.864,0,0,0,3.223-.156,13.131,13.131,0,0,0,5.238-3.813A12.3,12.3,0,0,0,92.346,241a.84.84,0,0,0-.569-1,.82.82,0,0,0-1,.569,10.08,10.08,0,0,1-2.388,4.911,14.59,14.59,0,0,1-4.3,3.716,4.97,4.97,0,0,1-2.477.6,6.255,6.255,0,0,1-2.749-1,23.431,23.431,0,0,1-4.852-3.325c-1.453-1.409-2.619-3.453-2.248-5.544a.837.837,0,0,0-.568-1,.821.821,0,0,0-1,.568Z" transform="translate(-70.09 -238.899)" fill="#353535"/>
        </g>
        <g id="Grupo_945" data-name="Grupo 945" transform="translate(36.979 54.474)">
          <path id="Trazado_3202" data-name="Trazado 3202" d="M105.231,174.229q.091-8.936.072-17.88-.005-2.509-.02-5.02c0-.746-3-1.045-3-.3q.05,8.948-.01,17.885-.017,2.508-.043,5.015c-.008.745,2.992,1.044,3,.3Z" transform="translate(-102.232 -150.598)" fill="#353535"/>
        </g>
        <g id="Grupo_946" data-name="Grupo 946" transform="translate(24.591 16.027)">
          <path id="Trazado_3203" data-name="Trazado 3203" d="M83.959,74.1m-.108-9.2-.084,9.478a11.445,11.445,0,0,0,2.1-1.283,12.206,12.206,0,0,0,2.018-1.974,9.387,9.387,0,0,0,1.426-2.374,3.621,3.621,0,0,0,.242-2.3,1.157,1.157,0,0,0-.753-.974A6.238,6.238,0,0,0,87.188,65a11.481,11.481,0,0,0-1.857-.15c-.628,0-1.528.027-1.887.05-.854.054-2.164.09-3.013.082-1.261-.013-2.555-.065-3.954-.132a24.979,24.979,0,0,1-3.9-.475,9.552,9.552,0,0,1-3.068-1.15,2.859,2.859,0,0,1-1.427-2.224,3.464,3.464,0,0,1,.216-2.223,7.955,7.955,0,0,1,1.507-2.3,16.44,16.44,0,0,1,2.369-2.124,19.322,19.322,0,0,1,2.772-1.724,15.124,15.124,0,0,1,2.772-1.1,6.376,6.376,0,0,1,2.314-.275q-.054-1.149-.161-2.248-.109-.949-.161-1.924t-.161-1.674a2.856,2.856,0,0,1,1.4-1.05,1.443,1.443,0,0,1,1.076.1,1.588,1.588,0,0,1,.646.7,1.4,1.4,0,0,1,.162.8,10.73,10.73,0,0,1,.135,2.6,13.252,13.252,0,0,0,.08,2.6,23.773,23.773,0,0,0,2.315.924,8.038,8.038,0,0,1,2.234,1.174,5.828,5.828,0,0,1,1.642,1.974,6.8,6.8,0,0,1,.592,3.323,1.271,1.271,0,0,1-.107.65.669.669,0,0,1-.377.225,4.65,4.65,0,0,1-.7.125,4.587,4.587,0,0,0-1.077.3,4.646,4.646,0,0,0-.888-3.773,6.7,6.7,0,0,0-3.671-2.469,21.631,21.631,0,0,0-3.191-.2,10.127,10.127,0,0,0-3.2.775A14.387,14.387,0,0,0,73.6,55.859a10.142,10.142,0,0,0-2.261,2.224,4.067,4.067,0,0,0-.888,2.374q0,1.1,1.346,1.624a11.715,11.715,0,0,0,3.1.7,25.7,25.7,0,0,0,3.364.125q1.615-.049,2.207-.05l3.5-.25a15.861,15.861,0,0,1,4.44.65A6.686,6.686,0,0,1,90.741,64.5a2.85,2.85,0,0,1,.915,1.424,3.432,3.432,0,0,1,.108,1.124,6.262,6.262,0,0,1-.888,3.249,13.706,13.706,0,0,1-2.18,2.774,28.493,28.493,0,0,1-2.772,2.4q-1.481,1.124-2.664,2.074l.215,5.6a2.153,2.153,0,0,1-.565,1.374,1.527,1.527,0,0,1-.968.45,1.588,1.588,0,0,1-.969-.275,1.032,1.032,0,0,1-.511-.749V78.2a9.652,9.652,0,0,1-2.5-.025,5.18,5.18,0,0,1-2.18-.825,5.09,5.09,0,0,1-1.615-1.824,7.748,7.748,0,0,1-.808-3.073,2.991,2.991,0,0,1,.054-1.275,2.431,2.431,0,0,1,.457-.924,1.049,1.049,0,0,1,.619-.4.436.436,0,0,1,.485.3q.161.95.269,2.1a4.623,4.623,0,0,0,.646,2.024A3.076,3.076,0,0,0,77.5,75.548a6.6,6.6,0,0,0,3.751-.1C82.091,75.158,82.93,74.749,83.767,74.382Z" transform="translate(-67.984 -44.309)" fill="#353535"/>
        </g>
      </g>
    </g>
  </g>
</svg>
