<svg xmlns="http://www.w3.org/2000/svg" width="74.359" height="102.846" viewBox="0 0 74.359 102.846">
  <g id="Ilustración_3" data-name="Ilustración 3" transform="translate(37.18 51.423)">
    <g id="Grupo_939" data-name="Grupo 939" transform="translate(-37.18 -51.423)">
      <path id="Trazado_3185" data-name="Trazado 3185" d="M59.253,76.6c8.77-8.376,19.465-26.923,15.718-46.242-1.63-8.4-5.7-15.013-10.261-18.747-5.766-4.723-12.352-4.881-18.5-3.616a54.345,54.345,0,0,0-21.119,9.048c-4.388,3.169-11.072,9.494-9.821,19.455a25.625,25.625,0,0,0,.259,5A39.384,39.384,0,0,0,20.08,54.132a109.764,109.764,0,0,0,7.109,11.445c4.636,6.561,9.986,13.584,15.893,15.973C48.674,83.812,54.387,81.243,59.253,76.6Z" transform="translate(-9.646 -4.67)" fill="#eceee3"/>
      <g id="Grupo_932" data-name="Grupo 932">
        <g id="Grupo_927" data-name="Grupo 927">
          <path id="Trazado_3186" data-name="Trazado 3186" d="M42.97,95.116c-2.629.178-5.257.505-7.893.551a27.464,27.464,0,0,1-3.564-.15,6.733,6.733,0,0,1-2.307-.617,4.784,4.784,0,0,1-2.027-1.743,4.8,4.8,0,0,1-.372-2.415c.006-2.549-.226-5.11-.362-7.655-.135-2.523-.142-5.077-1.719-7.186a16.5,16.5,0,0,0-4.944-3.929,39.22,39.22,0,0,1-5.272-3.7A36.806,36.806,0,0,1,1.6,39.79a38.734,38.734,0,0,1,8.517-23.459A40.371,40.371,0,0,1,32.674,2.551a36.2,36.2,0,0,1,13.967-.465A27.49,27.49,0,0,1,57.948,6.841c6.359,4.564,10.765,11.614,13,19.041a43.366,43.366,0,0,1-.472,26.283A36.761,36.761,0,0,1,54.416,72.011q-1.412.817-2.9,1.495a19.607,19.607,0,0,0-2.674,1.317,4.777,4.777,0,0,0-1.959,2.258,6.366,6.366,0,0,0-.01,3.4q.726,3.98,1.3,7.986a18.743,18.743,0,0,1,.3,3.368,3.046,3.046,0,0,1-.924,2.365c-1.222.96-3.116.815-4.576.911a.837.837,0,0,0-.839.788.821.821,0,0,0,.788.84c1.78-.117,3.815-.03,5.361-1.07,1.967-1.324,1.94-3.836,1.691-5.948-.316-2.675-.757-5.341-1.222-7.994-.113-.643-.234-1.286-.347-1.929a5.2,5.2,0,0,1-.1-1.753,2.957,2.957,0,0,1,1.558-1.943,30.889,30.889,0,0,1,2.854-1.364q1.475-.7,2.877-1.533a36.526,36.526,0,0,0,5.428-3.968A38.467,38.467,0,0,0,69.338,58.78,44.1,44.1,0,0,0,73.8,31.092,40.506,40.506,0,0,0,63.19,9.242a30.793,30.793,0,0,0-9.84-6.864A31.715,31.715,0,0,0,39.365.038,42.385,42.385,0,0,0,13.712,10.3,40.135,40.135,0,0,0,.665,33.14,38.344,38.344,0,0,0,13.338,69.4a40.815,40.815,0,0,0,5.472,3.884c1.751,1.054,3.718,2.15,4.853,3.916a7.144,7.144,0,0,1,1.013,3.359c.112,1.373.157,2.755.231,4.13s.148,2.762.221,4.142c.057,1.058,0,2.127.088,3.182a4.589,4.589,0,0,0,1.126,2.74,7.055,7.055,0,0,0,2.321,1.678,14.913,14.913,0,0,0,6.364.86c2.636-.046,5.264-.373,7.893-.551a.837.837,0,0,0,.839-.788A.82.82,0,0,0,42.97,95.116Z" transform="translate(0 0)" fill="#353535"/>
        </g>
        <g id="Grupo_928" data-name="Grupo 928" transform="translate(24.79 77.696)">
          <path id="Trazado_3187" data-name="Trazado 3187" d="M69.514,217.919a52.362,52.362,0,0,1,21.068-.794.841.841,0,0,0,1.014-.546.819.819,0,0,0-.545-1.014,54.523,54.523,0,0,0-17.144-.171q-2.408.36-4.775.942a.814.814,0,0,0,.383,1.582Z" transform="translate(-68.533 -214.799)" fill="#353535"/>
        </g>
        <g id="Grupo_929" data-name="Grupo 929" transform="translate(25.167 83.245)">
          <path id="Trazado_3188" data-name="Trazado 3188" d="M70.338,232.514a214.411,214.411,0,0,0,22.357-.747.84.84,0,0,0,.839-.788.82.82,0,0,0-.788-.839,214.4,214.4,0,0,1-22.357.747.815.815,0,0,0-.052,1.627Z" transform="translate(-69.577 -230.138)" fill="#353535"/>
        </g>
        <g id="Grupo_930" data-name="Grupo 930" transform="translate(26.168 87.962)">
          <path id="Trazado_3189" data-name="Trazado 3189" d="M73.1,246.065a207.793,207.793,0,0,0,22.3-1.295.818.818,0,0,0,.6-.982.834.834,0,0,0-.982-.6,203.709,203.709,0,0,1-21.861,1.249c-1.047,0-1.1,1.631-.051,1.627Z" transform="translate(-72.343 -243.18)" fill="#353535"/>
        </g>
        <g id="Grupo_931" data-name="Grupo 931" transform="translate(31.827 95.773)">
          <path id="Trazado_3190" data-name="Trazado 3190" d="M88.041,266.077c.518,1.151.6,2.456,1.079,3.628a3.121,3.121,0,0,0,2.748,2.12,14.158,14.158,0,0,0,2-.046c.826-.042,1.653-.05,2.478-.1,1.347-.083,2.9-.1,3.776-1.3,1.02-1.4.927-3.421,1.04-5.064.048-.7-1.037-.73-1.085-.034a12.535,12.535,0,0,1-.577,3.986c-.534,1.288-1.92,1.252-3.121,1.327-1.314.081-2.659.18-3.976.169a2.525,2.525,0,0,1-1.551-.371,2.754,2.754,0,0,1-.783-1.2c-.46-1.183-.561-2.476-1.084-3.638-.286-.636-1.235-.108-.949.526Z" transform="translate(-87.988 -264.775)" fill="#353535"/>
        </g>
      </g>
      <g id="Grupo_938" data-name="Grupo 938" transform="translate(26.64 31.786)">
        <g id="Grupo_933" data-name="Grupo 933" transform="translate(9.897 1.566)">
          <path id="Trazado_3191" data-name="Trazado 3191" d="M112.544,98.791a4.96,4.96,0,1,1-4.058-4.881,5,5,0,0,1,4.058,4.881.814.814,0,0,0,1.628,0,6.589,6.589,0,1,0-5.253,6.451,6.681,6.681,0,0,0,5.253-6.451A.814.814,0,0,0,112.544,98.791Z" transform="translate(-101.01 -92.205)" fill="#353535"/>
        </g>
        <g id="Grupo_934" data-name="Grupo 934" transform="translate(26.037 1.566)">
          <path id="Trazado_3192" data-name="Trazado 3192" d="M157.163,98.791a4.96,4.96,0,1,1-4.058-4.881,5,5,0,0,1,4.058,4.881.814.814,0,0,0,1.628,0,6.589,6.589,0,1,0-5.253,6.451,6.681,6.681,0,0,0,5.253-6.451A.814.814,0,0,0,157.163,98.791Z" transform="translate(-145.629 -92.205)" fill="#353535"/>
        </g>
        <g id="Grupo_935" data-name="Grupo 935" transform="translate(21.58 5.719)">
          <path id="Trazado_3193" data-name="Trazado 3193" d="M134.7,105.858c.076-.062.017-.027-.022.014a.724.724,0,0,1,.123-.088q.1-.067.206-.127c.079-.045.16-.085.241-.125.123-.061-.028.01-.028.01s.1-.04.113-.043a3.567,3.567,0,0,1,.495-.14c.05-.01.1-.019.149-.028.126-.024-.013.021-.036,0a1.089,1.089,0,0,0,.272-.021,4.538,4.538,0,0,1,.515.014c.122.009-.009.018-.036-.007.018.016.1.016.12.02.089.017.178.037.266.06s.155.044.231.07a.509.509,0,0,1,.142.052c-.039-.031-.122-.056-.027-.011a3.7,3.7,0,0,1,.474.267.819.819,0,0,0,1.113-.292.834.834,0,0,0-.292-1.114,4.4,4.4,0,0,0-5.17.333.817.817,0,0,0,0,1.151.836.836,0,0,0,1.151,0Z" transform="translate(-133.308 -103.687)" fill="#353535"/>
        </g>
        <g id="Grupo_936" data-name="Grupo 936" transform="translate(0 1.125)">
          <path id="Trazado_3194" data-name="Trazado 3194" d="M74.046,92.5a10.055,10.055,0,0,0,2.292.837q1.285.359,2.554.774c1.651.541,3.281,1.151,4.877,1.837a.841.841,0,0,0,1.114-.292.82.82,0,0,0-.292-1.113c-1.622-.7-3.266-1.334-4.94-1.892q-1.225-.409-2.467-.765a10.443,10.443,0,0,1-2.318-.791.815.815,0,0,0-.821,1.406Z" transform="translate(-73.648 -90.986)" fill="#353535"/>
        </g>
        <g id="Grupo_937" data-name="Grupo 937" transform="translate(37.445)">
          <path id="Trazado_3195" data-name="Trazado 3195" d="M178.688,93.121a14.418,14.418,0,0,0,1.191-2.008,3.723,3.723,0,0,0,.489-2.635.814.814,0,1,0-1.569.433,1.422,1.422,0,0,1,.035.139q-.014-.15,0-.006c0,.082,0,.166,0,.248q-.008.091.008-.039c-.008.048-.017.095-.027.142a2.919,2.919,0,0,1-.077.282c-.023.07-.049.139-.074.208q-.053.132,0,.01c-.019.044-.039.089-.059.133-.071.155-.145.308-.222.46a14.436,14.436,0,0,1-1.093,1.812.818.818,0,0,0,.292,1.113.836.836,0,0,0,1.114-.292Z" transform="translate(-177.168 -87.876)" fill="#353535"/>
        </g>
      </g>
    </g>
  </g>
</svg>
