<svg xmlns="http://www.w3.org/2000/svg" width="300" height="92.691" viewBox="0 0 300 92.691">
  <g id="Ilustración_11" data-name="Ilustración 11" transform="translate(150 46.346)">
    <g id="Grupo_1890" data-name="Grupo 1890" transform="translate(-150 -46.345)">
      <g id="Grupo_1887" data-name="Grupo 1887" transform="translate(0 26.916)">
        <path id="Trazado_4430" data-name="Trazado 4430" d="M0,54.784C0,42.932,8.448,34,19.693,34c7.05,0,12.946,3.465,15.742,9.664L29.3,47.552c-2.248-5.046-5.835-7.113-10.029-7.113-6.868,0-11.184,5.532-11.184,14.405,0,8.51,3.951,14.163,12.035,14.163a12.421,12.421,0,0,0,5.591-1.155c2.127-1.094,2.674-2.857,2.674-5.228V54.176H35.8V69.433c-3.343,3.708-9.3,5.9-15.438,5.9C7.962,75.329,0,66.211,0,54.784Z" transform="translate(0 -33.997)" fill="#fff"/>
        <path id="Trazado_4431" data-name="Trazado 4431" d="M55.195,34.652H57.5a14.011,14.011,0,0,0,4.619-.424V74.769H55.195Z" transform="translate(-11.496 -34.045)" fill="#fff"/>
        <path id="Trazado_4432" data-name="Trazado 4432" d="M71.777,65.161c0-7.355,6.625-13.736,14.284-13.736,7.6,0,14.283,6.381,14.283,13.736,0,7.415-6.686,13.8-14.283,13.8C78.4,78.958,71.777,72.576,71.777,65.161Zm21.455,0c0-4.681-3.161-7.963-7.171-7.963s-7.172,3.282-7.172,7.963,3.161,8.023,7.172,8.023S93.232,69.841,93.232,65.161Z" transform="translate(-14.95 -37.627)" fill="#fff"/>
        <path id="Trazado_4433" data-name="Trazado 4433" d="M123,69.541v5.228h-6.929V34.652h2.31A14.013,14.013,0,0,0,123,34.228v19.45a9.592,9.592,0,0,1,8.814-5.835c6.624,0,12.581,6.259,12.581,13.736,0,7.537-5.957,13.8-12.581,13.8A9.593,9.593,0,0,1,123,69.541Zm14.284-7.961c0-4.681-3.282-7.963-7.293-7.963-3.708,0-7.173,3.282-7.173,7.963s3.465,8.023,7.173,8.023C134,69.6,137.284,66.259,137.284,61.579Z" transform="translate(-24.176 -34.045)" fill="#fff"/>
        <path id="Trazado_4434" data-name="Trazado 4434" d="M157.526,65.282a14,14,0,0,1,13.615-13.857c7.233,0,12.947,6.016,12.947,14.891H164.577c.121,4.073,2.978,7.294,7.84,7.294,3.4,0,5.471-1.458,6.564-3.951l4.924,2.674c-2.006,3.951-5.957,6.626-11.731,6.626C163.726,78.958,157.526,72.759,157.526,65.282Zm7.112-2.857h12.521c-.3-3.465-2.614-6.261-6.2-6.261S165.063,59.083,164.638,62.426Z" transform="translate(-32.81 -37.627)" fill="#fff"/>
        <path id="Trazado_4435" data-name="Trazado 4435" d="M196.063,75.008l3.525-4.073c1.4,1.641,3.769,3.039,7.537,3.039,3.282,0,5.288-1.095,5.288-3.039,0-1.338-.911-2.309-3.768-2.8l-4.316-.73c-4.862-.851-7.171-3.769-7.171-7.233,0-5.166,5.166-8.752,11.609-8.752,4.437,0,8.266,1.7,9.968,4.254l-3.708,3.89a7.922,7.922,0,0,0-6.686-3.161c-2.674,0-4.437,1.095-4.437,3.039,0,1.581.973,2.492,4.194,3.039l3.647.609c4.984.911,7.415,3.586,7.415,7.05,0,5.349-5.41,8.813-12.521,8.813C201.959,78.958,197.764,77.439,196.063,75.008Z" transform="translate(-40.837 -37.627)" fill="#fff"/>
        <path id="Trazado_4436" data-name="Trazado 4436" d="M233.183,66.1V55.222h-4.8V50.6h.547c4.315,0,6.078-2.735,6.078-6.686v-2.37h.486a13.291,13.291,0,0,0,4.62-.486v8.813h9.908v5.349h-9.908V67.135c0,2.978,1.458,4.316,3.343,4.316a4.84,4.84,0,0,0,4.134-2.978l4.741,3.039c-1.519,3.4-4.984,5.288-9.056,5.288C237.133,76.8,233.183,72.606,233.183,66.1Z" transform="translate(-47.568 -35.468)" fill="#fff"/>
        <path id="Trazado_4437" data-name="Trazado 4437" d="M260.624,65.161c0-7.355,6.624-13.736,14.283-13.736,7.6,0,14.284,6.381,14.284,13.736,0,7.415-6.687,13.8-14.284,13.8C267.248,78.958,260.624,72.576,260.624,65.161Zm21.455,0c0-4.681-3.161-7.963-7.172-7.963s-7.172,3.282-7.172,7.963,3.16,8.023,7.172,8.023S282.079,69.841,282.079,65.161Z" transform="translate(-54.284 -37.627)" fill="#fff"/>
        <path id="Trazado_4438" data-name="Trazado 4438" d="M304.918,52.032h2.309a13.344,13.344,0,0,0,4.619-.486v5.348c1.7-3.525,5.289-5.469,9.6-5.469,5.593,0,9.057,3.221,9.057,9.6V78.35h-6.93V62.365c0-3.647-1.519-4.984-4.558-4.984-4.316,0-7.173,2.8-7.173,7.719V78.35h-6.928Z" transform="translate(-63.51 -37.627)" fill="#fff"/>
        <path id="Trazado_4439" data-name="Trazado 4439" d="M345.373,65.282a14,14,0,0,1,13.616-13.857c7.233,0,12.947,6.016,12.947,14.891H352.424c.123,4.073,2.979,7.294,7.841,7.294,3.4,0,5.471-1.458,6.564-3.951l4.924,2.674c-2.006,3.951-5.957,6.626-11.731,6.626C351.574,78.958,345.373,72.759,345.373,65.282Zm7.113-2.857h12.521c-.3-3.465-2.613-6.261-6.2-6.261S352.91,59.083,352.486,62.426Z" transform="translate(-71.936 -37.627)" fill="#fff"/>
      </g>
      <g id="Grupo_1888" data-name="Grupo 1888" transform="translate(123.484)">
        <path id="Trazado_4440" data-name="Trazado 4440" d="M165.21,13.006c9.465,9.1,23.392,12.283,26.959,12.855A30.257,30.257,0,0,0,156.154.626a26.531,26.531,0,0,0,36.268,27.66c0-.015,0-.028,0-.043C172.77,25.846,165.21,13.006,165.21,13.006Z" transform="translate(-155.97 0)" fill="#fff"/>
        <path id="Trazado_4441" data-name="Trazado 4441" d="M216.22.629A30.27,30.27,0,0,0,191.5,6.438a32.487,32.487,0,0,1,6.51,8.319c4.04-2.29,10.3-6.155,12.51-9.307-2.761,5.031-6.035,7.334-11.575,11.159a32.108,32.108,0,0,1,2.895,10.759A26.505,26.505,0,0,0,216.4,3.706,26.842,26.842,0,0,0,216.22.629Z" transform="translate(-163.371 -0.003)" fill="#fff"/>
      </g>
      <g id="Grupo_1889" data-name="Grupo 1889" transform="translate(0 74.71)">
        <path id="Trazado_4442" data-name="Trazado 4442" d="M0,108.109H1.643V96.461H0v-.277H5.316c4.32,0,6.148,2.325,6.148,5.907,0,3.489-1.7,6.295-6.148,6.295H0Zm5.354,0c2.769,0,4.134-2.013,4.134-5.814,0-3.969-1.365-5.833-4.134-5.833h-1.9v11.648Z" transform="translate(0 -94.744)" fill="#fff"/>
        <path id="Trazado_4443" data-name="Trazado 4443" d="M19.6,105.279c0,3.138.738,3.951,2.2,3.951A2.417,2.417,0,0,0,24.4,107h.3a2.455,2.455,0,0,1-1.735,2.289,3.572,3.572,0,0,1-1.329.222c-2.271,0-3.747-1.237-3.747-4.263,0-3.138,1.514-4.3,3.728-4.3,2.086,0,3.268,1.034,3.268,3.324V105H19.6Zm3.674-.554v-.739c0-1.735-.351-2.806-1.662-2.806-1.384,0-1.938,1.218-1.994,3.545Z" transform="translate(-3.726 -95.734)" fill="#fff"/>
        <path id="Trazado_4444" data-name="Trazado 4444" d="M29.944,109.506a5.548,5.548,0,0,0,.2-1.716v-1.367h.277v.664a2.572,2.572,0,0,0,2.787,2.142c1.163,0,2.142-.536,2.142-1.57,0-2.141-5.279-.793-5.279-4.246,0-1.9,1.661-2.473,2.917-2.473a2.855,2.855,0,0,1,2.085.794c.425-.093.572-.517.7-.794h.24a3.959,3.959,0,0,0-.295,1.717v.941h-.277v-.3a2.207,2.207,0,0,0-2.474-2.086c-1.181,0-2.178.48-2.178,1.533,0,2.141,5.316.83,5.316,4.153a2.634,2.634,0,0,1-2.917,2.6,3.333,3.333,0,0,1-2.362-.9c-.314.092-.536.572-.646.9Z" transform="translate(-6.237 -95.734)" fill="#fff"/>
        <path id="Trazado_4445" data-name="Trazado 4445" d="M45.888,107.992a2.834,2.834,0,0,1-2.584,1.514c-1.182,0-2.492-.535-2.492-2.067,0-1.994,2.529-2.64,4.763-2.64h.184V102.86c0-1.089-.3-1.68-1.514-1.68-1.127,0-1.735.425-1.735,1.4,0,.609.258,1.126.868,1v.148a2.548,2.548,0,0,1-.72.111c-.831,0-1.4-.462-1.4-1.2,0-1.015,1.052-1.7,2.99-1.7,2.233,0,3.138.923,3.138,2.53v4.818c0,.536.11.831.5.831.628,0,.868-.609.868-1.273h.277c0,1.107-.61,1.661-1.477,1.661a1.486,1.486,0,0,1-1.625-1.514Zm-.129-2.916h-.333a3.843,3.843,0,0,0-1.92.406,2.075,2.075,0,0,0-.941,1.994c0,1.218.388,1.716,1.071,1.716a2.153,2.153,0,0,0,1.2-.425,1.975,1.975,0,0,0,.923-1.328Z" transform="translate(-8.501 -95.734)" fill="#fff"/>
        <path id="Trazado_4446" data-name="Trazado 4446" d="M52.892,109.1h1.293v-7.753H52.892v-.276h2.88v1.956h.036a2.7,2.7,0,0,1,2.381-2.086,1.648,1.648,0,0,1,1.754,1.68,1.391,1.391,0,0,1-1.938,1.348v-.148c.535.093.628-.572.628-1.089,0-.923-.3-1.4-.85-1.4a1.8,1.8,0,0,0-1.348,1.016,4.277,4.277,0,0,0-.628,2.048V109.1h1.477v.277H52.892Z" transform="translate(-11.017 -95.734)" fill="#fff"/>
        <path id="Trazado_4447" data-name="Trazado 4447" d="M63.737,109.1h1.292v-7.753H63.737v-.276h2.879v1.956h.037a2.7,2.7,0,0,1,2.381-2.086,1.648,1.648,0,0,1,1.754,1.68,1.391,1.391,0,0,1-1.938,1.348v-.148c.536.093.628-.572.628-1.089,0-.923-.3-1.4-.85-1.4a1.8,1.8,0,0,0-1.348,1.016,4.275,4.275,0,0,0-.627,2.048V109.1H68.13v.277H63.737Z" transform="translate(-13.275 -95.734)" fill="#fff"/>
        <path id="Trazado_4448" data-name="Trazado 4448" d="M74.908,105.279c0-2.659,1.218-4.339,3.95-4.339,2.75,0,3.932,1.606,3.932,4.227,0,2.769-1.5,4.339-3.932,4.339C76.2,109.506,74.908,107.845,74.908,105.279Zm6.147-.112c0-2.806-.517-3.987-2.2-3.987-1.661,0-2.215,1.218-2.215,4.1,0,2.75.535,3.987,2.215,3.987S81.055,107.992,81.055,105.167Z" transform="translate(-15.602 -95.734)" fill="#fff"/>
        <path id="Trazado_4449" data-name="Trazado 4449" d="M87.408,107.832H88.7v-12.7H87.408v-.278h2.917v12.978h1.292v.277H87.408Z" transform="translate(-18.206 -94.467)" fill="#fff"/>
        <path id="Trazado_4450" data-name="Trazado 4450" d="M94.684,107.832h1.292v-12.7H94.684v-.278H97.6v12.978h1.292v.277H94.684Z" transform="translate(-19.721 -94.467)" fill="#fff"/>
        <path id="Trazado_4451" data-name="Trazado 4451" d="M102.543,105.279c0-2.659,1.218-4.339,3.95-4.339,2.751,0,3.932,1.606,3.932,4.227,0,2.769-1.5,4.339-3.932,4.339C103.835,109.506,102.543,107.845,102.543,105.279Zm6.147-.112c0-2.806-.517-3.987-2.2-3.987-1.661,0-2.214,1.218-2.214,4.1,0,2.75.534,3.987,2.214,3.987S108.69,107.992,108.69,105.167Z" transform="translate(-21.358 -95.734)" fill="#fff"/>
        <path id="Trazado_4452" data-name="Trazado 4452" d="M115.718,109.506a5.548,5.548,0,0,0,.2-1.716v-1.367h.277v.664a2.572,2.572,0,0,0,2.788,2.142c1.163,0,2.141-.536,2.141-1.57,0-2.141-5.279-.793-5.279-4.246,0-1.9,1.661-2.473,2.917-2.473a2.854,2.854,0,0,1,2.085.794c.425-.093.572-.517.7-.794h.24a3.959,3.959,0,0,0-.3,1.717v.941h-.277v-.3a2.207,2.207,0,0,0-2.473-2.086c-1.182,0-2.179.48-2.179,1.533,0,2.141,5.316.83,5.316,4.153a2.634,2.634,0,0,1-2.917,2.6,3.333,3.333,0,0,1-2.362-.9c-.314.092-.535.572-.646.9Z" transform="translate(-24.102 -95.734)" fill="#fff"/>
        <path id="Trazado_4453" data-name="Trazado 4453" d="M135,105.279c0,3.138.738,3.951,2.2,3.951A2.417,2.417,0,0,0,139.8,107h.3a2.455,2.455,0,0,1-1.735,2.289,3.569,3.569,0,0,1-1.329.222c-2.27,0-3.747-1.237-3.747-4.263,0-3.138,1.514-4.3,3.729-4.3,2.086,0,3.267,1.034,3.267,3.324V105H135Zm3.673-.554v-.739c0-1.735-.35-2.806-1.661-2.806-1.385,0-1.938,1.218-1.994,3.545Z" transform="translate(-27.76 -95.734)" fill="#fff"/>
        <path id="Trazado_4454" data-name="Trazado 4454" d="M144.8,109.1h1.292v-7.753H144.8v-.276h2.879v1.975h.037a3,3,0,0,1,2.972-2.1c1.827,0,2.658.776,2.658,2.53v5.63h1.292v.277h-4.08V109.1h1.163v-5.962c0-1.385-.314-1.864-1.31-1.864a2.442,2.442,0,0,0-2.031,1.071,3.9,3.9,0,0,0-.664,2.067V109.1h1.163v.277H144.8Z" transform="translate(-30.16 -95.734)" fill="#fff"/>
        <path id="Trazado_4455" data-name="Trazado 4455" d="M161.349,105.279c0,3.138.738,3.951,2.2,3.951a2.417,2.417,0,0,0,2.6-2.234h.3a2.455,2.455,0,0,1-1.735,2.289,3.569,3.569,0,0,1-1.329.222c-2.27,0-3.747-1.237-3.747-4.263,0-3.138,1.514-4.3,3.729-4.3,2.086,0,3.267,1.034,3.267,3.324V105h-5.279Zm3.673-.554v-.739c0-1.735-.35-2.806-1.661-2.806-1.385,0-1.938,1.218-1.994,3.545Z" transform="translate(-33.249 -95.734)" fill="#fff"/>
        <path id="Trazado_4456" data-name="Trazado 4456" d="M171.153,109.1h1.292v-7.753h-1.292v-.276h2.879v1.956h.037a2.7,2.7,0,0,1,2.381-2.086,1.649,1.649,0,0,1,1.754,1.68,1.391,1.391,0,0,1-1.939,1.348v-.148c.536.093.628-.572.628-1.089,0-.923-.3-1.4-.85-1.4a1.8,1.8,0,0,0-1.347,1.016,4.275,4.275,0,0,0-.627,2.048V109.1h1.477v.277h-4.393Z" transform="translate(-35.649 -95.734)" fill="#fff"/>
        <path id="Trazado_4457" data-name="Trazado 4457" d="M184.613,110.428c-.646-.112-.942.314-.942,1.107,0,1.034.831,1.514,2.548,1.514,1.809,0,3.471-.609,3.471-1.9,0-1.255-1.588-1.385-3.415-1.514-2.067-.147-3.951-.3-3.951-2.031a2.821,2.821,0,0,1,1.385-2.179,2.491,2.491,0,0,1-.868-1.994c0-1.606,1.145-2.879,3.36-2.879a3.6,3.6,0,0,1,2.455.794,1.16,1.16,0,0,0,.572-1.089c0-.646-.241-.96-.868-.941v-.147a2.01,2.01,0,0,1,.664-.093c1,0,1.311.535,1.311,1.015,0,.7-.7.96-1.5,1.44a2.6,2.6,0,0,1,.664,1.809c0,1.717-1.255,2.806-3.377,2.806a3.909,3.909,0,0,1-2.179-.554,1.8,1.8,0,0,0-.941,1.348c0,1.052,1.5,1.016,3.471,1.164,2.085.166,3.8.48,3.8,2.4,0,2.067-1.975,2.825-4.062,2.825-2.049,0-3.765-.72-3.765-1.883,0-.831.831-1.255,1.587-1.255a2.065,2.065,0,0,1,.572.092Zm3.248-7.071c0-1.477-.332-2.547-1.7-2.547s-1.68,1.07-1.68,2.584c0,1.459.3,2.492,1.662,2.492S187.861,104.871,187.861,103.357Z" transform="translate(-37.975 -95.346)" fill="#fff"/>
        <path id="Trazado_4458" data-name="Trazado 4458" d="M196.4,103.909c0,3.138.739,3.951,2.2,3.951a2.417,2.417,0,0,0,2.6-2.234h.3a2.455,2.455,0,0,1-1.735,2.289,3.564,3.564,0,0,1-1.328.222c-2.271,0-3.748-1.237-3.748-4.263,0-3.138,1.514-4.3,3.729-4.3,2.086,0,3.267,1.034,3.267,3.324v.738H196.4Zm3.674-.554v-.739c0-1.735-.351-2.806-1.662-2.806-1.384,0-1.938,1.218-1.994,3.545ZM197.637,98.3c1.587-2.288,1.329-3.932,2.362-3.932a.73.73,0,0,1,.72.7c0,.83-1.44,1.255-2.861,3.377Z" transform="translate(-40.549 -94.365)" fill="#fff"/>
        <path id="Trazado_4459" data-name="Trazado 4459" d="M207.231,100.608h-1.237v-.276h.591c1.256,0,1.994-1.828,1.994-2.936h.277v2.936h2.16v.276h-2.16v6.221c0,1.016.184,1.533.923,1.533.443,0,1.163-.184,1.163-1.348h.277a1.628,1.628,0,0,1-1.846,1.754c-1.55,0-2.141-.979-2.141-2.4Z" transform="translate(-42.905 -94.996)" fill="#fff"/>
        <path id="Trazado_4460" data-name="Trazado 4460" d="M214.53,108.06h1.292v-7.753H214.53v-.276h2.917v8.03h1.292v.277H214.53ZM216.5,95.951a1,1,0,1,1-1,1A1.016,1.016,0,0,1,216.5,95.951Z" transform="translate(-44.683 -94.695)" fill="#fff"/>
        <path id="Trazado_4461" data-name="Trazado 4461" d="M228.891,106.977a2.416,2.416,0,0,1-.793,1.808,3.027,3.027,0,0,1-2.123.72c-1.994,0-3.563-1.255-3.563-4.209,0-2.879,1.514-4.357,3.747-4.357,1.587,0,2.806.739,2.806,1.791a1.207,1.207,0,0,1-1.292,1.2,2.736,2.736,0,0,1-.738-.112v-.147c.591.129.812-.462.812-1.071a1.435,1.435,0,0,0-1.587-1.421c-1.458,0-2.03,1.071-2.03,4.062,0,2.934.572,3.987,2.03,3.987a2.44,2.44,0,0,0,1.735-.628,2.1,2.1,0,0,0,.72-1.625Z" transform="translate(-46.325 -95.734)" fill="#fff"/>
        <path id="Trazado_4462" data-name="Trazado 4462" d="M233.583,105.279c0-2.659,1.218-4.339,3.951-4.339,2.75,0,3.932,1.606,3.932,4.227,0,2.769-1.5,4.339-3.932,4.339C234.875,109.506,233.583,107.845,233.583,105.279Zm6.147-.112c0-2.806-.516-3.987-2.2-3.987-1.661,0-2.215,1.218-2.215,4.1,0,2.75.535,3.987,2.215,3.987S239.73,107.992,239.73,105.167Z" transform="translate(-48.652 -95.734)" fill="#fff"/>
        <path id="Trazado_4463" data-name="Trazado 4463" d="M246.759,109.506a5.549,5.549,0,0,0,.2-1.716v-1.367h.277v.664a2.572,2.572,0,0,0,2.788,2.142c1.163,0,2.142-.536,2.142-1.57,0-2.141-5.28-.793-5.28-4.246,0-1.9,1.661-2.473,2.917-2.473a2.856,2.856,0,0,1,2.086.794c.424-.093.572-.517.7-.794h.24a3.96,3.96,0,0,0-.3,1.717v.941h-.277v-.3a2.206,2.206,0,0,0-2.473-2.086c-1.181,0-2.178.48-2.178,1.533,0,2.141,5.316.83,5.316,4.153a2.634,2.634,0,0,1-2.917,2.6,3.335,3.335,0,0,1-2.363-.9c-.314.092-.535.572-.646.9Z" transform="translate(-51.396 -95.734)" fill="#fff"/>
      </g>
    </g>
  </g>
</svg>
