<svg xmlns="http://www.w3.org/2000/svg" width="96" height="96" viewBox="0 0 96 96">
  <g id="Favicom_G" data-name="Favicom G" transform="translate(-1301 -2262)">
    <rect id="Rect치ngulo_248" data-name="Rect치ngulo 248" width="96" height="96" transform="translate(1301 2262)" fill="none"/>
    <g id="Ilustraci칩n_10" data-name="Ilustraci칩n 10" transform="translate(1327.238 2262.492)">
      <g id="Grupo_3501" data-name="Grupo 3501" transform="translate(-19.238 0.508)">
        <g id="Grupo_3499" data-name="Grupo 3499" transform="translate(0 0)">
          <path id="Trazado_6712" data-name="Trazado 6712" d="M8.875,110.164c0-26.957,19.214-47.277,44.788-47.277,16.036,0,29.445,7.88,35.8,21.979L75.5,93.713C70.389,82.24,62.234,77.54,52.7,77.54c-15.621,0-25.436,12.578-25.436,32.762,0,19.352,8.986,32.208,27.372,32.208a28.247,28.247,0,0,0,12.716-2.626c4.839-2.488,6.084-6.5,6.084-11.887V108.781H90.3v34.7c-7.6,8.431-21.15,13.408-35.112,13.408C26.984,156.887,8.875,136.151,8.875,110.164Z" transform="translate(-8.875 -62.887)" fill="#748b30"/>
        </g>
      </g>
    </g>
  </g>
</svg>
