<svg id="Grupo_13" data-name="Grupo 13" xmlns="http://www.w3.org/2000/svg" width="82.565" height="61.3" viewBox="0 0 82.565 61.3">
  <path id="Trazado_1286" data-name="Trazado 1286" d="M506.95,517.882s10.942-1.313,14.772-3.392S554,511.426,554,517.882s-32.717,9.3-32.717,9.3l-17.179-.985Z" transform="translate(-471.826 -476.168)" fill="#fbbebe"/>
  <path id="Trazado_1287" data-name="Trazado 1287" d="M506.95,517.882s10.942-1.313,14.772-3.392S554,511.426,554,517.882s-32.717,9.3-32.717,9.3l-17.179-.985Z" transform="translate(-471.826 -476.168)" opacity="0.1"/>
  <path id="Trazado_1288" data-name="Trazado 1288" d="M195.3,519.431l-2.3,6.675-36,.438V516.7s13.787-3.173,24.729,3.611C181.729,520.307,194.64,518.775,195.3,519.431Z" transform="translate(-157 -478.921)" fill="#748b30"/>
  <path id="Trazado_1289" data-name="Trazado 1289" d="M195.3,519.315,193,525.99l-36,.438V516.58s13.787-3.173,24.729,3.611C181.729,520.191,194.64,518.659,195.3,519.315Z" transform="translate(-157 -478.816)" opacity="0.1"/>
  <path id="Trazado_1290" data-name="Trazado 1290" d="M732.739,440.155c0,.373-.836.65-.919,1.01s.415.9.258,1.24a6.746,6.746,0,0,1-.574,1c-.206.295-.842.252-1.1.528a8.76,8.76,0,0,1-.81.7c-.277.23-.652.279-.967.49-.3.2-.263.941-.594,1.124s-.8.034-1.144.192-.5.7-.855.832-.76.074-1.119.185-.736.091-1.1.182-.624.618-.992.69-.778-.116-1.149-.063-.783-.407-1.155-.372-.708.246-1.081.263-.728.178-1.1.178-.758.35-1.124.333-.711-.548-1.075-.582-.816.52-1.178.468-.664-.6-1.023-.665-.843.316-1.2.228-.58-.722-.928-.831-.8.04-1.144-.089-.781-.112-1.111-.264-.589-.531-.906-.706-.484-.639-.783-.84c-.315-.212-.794-.185-1.071-.415-.292-.243-.84-.256-1.087-.517a8.21,8.21,0,0,1-.572-1.036c-.217-.311.209-.967.057-1.3s-.814-.479-.9-.836a5.247,5.247,0,0,1-.129-1.135c0-.373.562-.658.644-1.018s-.332-.869-.175-1.21.132-.833.349-1.144c.206-.295.72-.411.981-.687.247-.261.688-.334.98-.577.277-.23.242-.925.556-1.136.3-.2.717-.293,1.048-.477s.764-.146,1.107-.3.845.147,1.2.013.615-.411.974-.523.511-.933.875-1.024.789.058,1.157-.013.841.581,1.211.529.633-.92,1-.955.775.416,1.148.4.733.247,1.107.247.745-.362,1.111-.345.7.5,1.067.529.829-.693,1.191-.641.657.615,1.015.685.829-.278,1.183-.189.583.689.931.8.58.533.92.662,1.006-.492,1.336-.341.64.43.956.606.857.091,1.157.293c.315.212.392.781.669,1.011.292.243.774.316,1.021.578.261.277.3.772.5,1.067a6.288,6.288,0,0,1,.362,1.069c.157.341.577.6.658.955A5.684,5.684,0,0,1,732.739,440.155Z" transform="translate(-653.284 -402.435)" fill="#3f3d56"/>
  <path id="Trazado_1291" data-name="Trazado 1291" d="M578.041,552.286s12.365-6.346,20.352-3.939,19.149-1.751,20.461-.328,3.173,16.741-12.583,17.617a106.215,106.215,0,0,1-29.215-2.626Z" transform="translate(-537.993 -507.727)" fill="#fbbebe"/>
  <path id="Trazado_1292" data-name="Trazado 1292" d="M194.136,553.854s4.881-.309,4.662,1.442-.438,15.319-1.751,15.647-11.708.328-15.975.328H157V550.294s17.07-1.016,25.6,3.251C182.6,553.546,192.865,553.4,194.136,553.854Z" transform="translate(-157 -509.972)" fill="#748b30"/>
  <path id="Trazado_1293" data-name="Trazado 1293" d="M779.261,236.779a2.515,2.515,0,0,0-2.168,1.516,3.573,3.573,0,0,0,1.2,3.8,20.459,20.459,0,0,0,3.616,2.219,9.692,9.692,0,0,1,3.94,4.02,5.948,5.948,0,0,1-.057,5.487,9.845,9.845,0,0,1-4.082,3.276" transform="translate(-719.257 -225.707)" fill="none" stroke="#3f3d56" stroke-width="1"/>
  <path id="Trazado_1294" data-name="Trazado 1294" d="M826.326,150.885a2.515,2.515,0,0,0-2.168,1.516,3.573,3.573,0,0,0,1.2,3.8,20.458,20.458,0,0,0,3.616,2.219,9.692,9.692,0,0,1,3.94,4.021,5.948,5.948,0,0,1-.057,5.487,9.845,9.845,0,0,1-4.082,3.276" transform="translate(-761.946 -147.801)" fill="none" stroke="#3f3d56" stroke-width="1"/>
  <path id="Trazado_1295" data-name="Trazado 1295" d="M901.627,166.323a2.515,2.515,0,0,0-2.642-.129,3.573,3.573,0,0,0-1.377,3.745,20.452,20.452,0,0,0,1.5,3.969,9.692,9.692,0,0,1,.654,5.591,5.948,5.948,0,0,1-3.4,4.3,9.844,9.844,0,0,1-5.233.092" transform="translate(-822.856 -161.402)" fill="none" stroke="#3f3d56" stroke-width="1"/>
  <ellipse id="Elipse_1" data-name="Elipse 1" cx="2.626" cy="1.276" rx="2.626" ry="1.276" transform="translate(63.464 18.882)" fill="#57b894"/>
  <ellipse id="Elipse_2" data-name="Elipse 2" cx="2.626" cy="1.276" rx="2.626" ry="1.276" transform="translate(63.135 18.664)" fill="none" stroke="#3f3d56" stroke-width="1"/>
  <ellipse id="Elipse_3" data-name="Elipse 3" cx="2.626" cy="1.276" rx="2.626" ry="1.276" transform="translate(69.153 17.788)" fill="#57b894"/>
  <ellipse id="Elipse_4" data-name="Elipse 4" cx="2.626" cy="1.276" rx="2.626" ry="1.276" transform="translate(68.825 17.57)" fill="none" stroke="#3f3d56" stroke-width="1"/>
  <ellipse id="Elipse_5" data-name="Elipse 5" cx="2.626" cy="1.276" rx="2.626" ry="1.276" transform="translate(70.029 22.603)" fill="#57b894"/>
  <ellipse id="Elipse_6" data-name="Elipse 6" cx="2.626" cy="1.276" rx="2.626" ry="1.276" transform="translate(69.7 22.384)" fill="none" stroke="#3f3d56" stroke-width="1"/>
  <ellipse id="Elipse_7" data-name="Elipse 7" cx="2.626" cy="1.276" rx="2.626" ry="1.276" transform="translate(69.482 10.567)" fill="#57b894"/>
  <ellipse id="Elipse_8" data-name="Elipse 8" cx="2.626" cy="1.276" rx="2.626" ry="1.276" transform="translate(69.153 10.348)" fill="none" stroke="#3f3d56" stroke-width="1"/>
  <ellipse id="Elipse_9" data-name="Elipse 9" cx="2.626" cy="1.276" rx="2.626" ry="1.276" transform="translate(62.916 9.801)" fill="#57b894"/>
  <ellipse id="Elipse_10" data-name="Elipse 10" cx="2.626" cy="1.276" rx="2.626" ry="1.276" transform="translate(62.588 9.582)" fill="none" stroke="#3f3d56" stroke-width="1"/>
  <ellipse id="Elipse_11" data-name="Elipse 11" cx="2.626" cy="1.276" rx="2.626" ry="1.276" transform="translate(65.871 7.065)" fill="#57b894"/>
  <ellipse id="Elipse_12" data-name="Elipse 12" cx="2.626" cy="1.276" rx="2.626" ry="1.276" transform="translate(65.543 6.846)" fill="none" stroke="#3f3d56" stroke-width="1"/>
  <ellipse id="Elipse_13" data-name="Elipse 13" cx="2.626" cy="1.276" rx="2.626" ry="1.276" transform="translate(72.326 7.612)" fill="#57b894"/>
  <ellipse id="Elipse_14" data-name="Elipse 14" cx="2.626" cy="1.276" rx="2.626" ry="1.276" transform="translate(71.998 7.393)" fill="none" stroke="#3f3d56" stroke-width="1"/>
  <ellipse id="Elipse_15" data-name="Elipse 15" cx="2.626" cy="1.276" rx="2.626" ry="1.276" transform="translate(77.141 11.223)" fill="#57b894"/>
  <ellipse id="Elipse_16" data-name="Elipse 16" cx="2.626" cy="1.276" rx="2.626" ry="1.276" transform="translate(76.813 11.004)" fill="none" stroke="#3f3d56" stroke-width="1"/>
  <ellipse id="Elipse_17" data-name="Elipse 17" cx="2.626" cy="1.276" rx="2.626" ry="1.276" transform="translate(60.181 4.877)" fill="#57b894"/>
  <ellipse id="Elipse_18" data-name="Elipse 18" cx="2.626" cy="1.276" rx="2.626" ry="1.276" transform="translate(59.853 4.658)" fill="none" stroke="#3f3d56" stroke-width="1"/>
  <ellipse id="Elipse_19" data-name="Elipse 19" cx="2.626" cy="1.276" rx="2.626" ry="1.276" transform="translate(61.822 0.719)" fill="#57b894"/>
  <ellipse id="Elipse_20" data-name="Elipse 20" cx="2.626" cy="1.276" rx="2.626" ry="1.276" transform="translate(61.494 0.5)" fill="none" stroke="#3f3d56" stroke-width="1"/>
  <ellipse id="Elipse_21" data-name="Elipse 21" cx="2.626" cy="1.276" rx="2.626" ry="1.276" transform="translate(77.032 3.783)" fill="#57b894"/>
  <ellipse id="Elipse_22" data-name="Elipse 22" cx="2.626" cy="1.276" rx="2.626" ry="1.276" transform="translate(76.703 3.564)" fill="none" stroke="#3f3d56" stroke-width="1"/>
  <ellipse id="Elipse_23" data-name="Elipse 23" cx="2.626" cy="1.276" rx="2.626" ry="1.276" transform="translate(52.85 13.849)" fill="#57b894"/>
  <ellipse id="Elipse_24" data-name="Elipse 24" cx="2.626" cy="1.276" rx="2.626" ry="1.276" transform="translate(52.522 13.63)" fill="none" stroke="#3f3d56" stroke-width="1"/>
  <ellipse id="Elipse_25" data-name="Elipse 25" cx="2.626" cy="1.276" rx="2.626" ry="1.276" transform="translate(61.932 13.193)" fill="#57b894"/>
  <ellipse id="Elipse_26" data-name="Elipse 26" cx="2.626" cy="1.276" rx="2.626" ry="1.276" transform="translate(61.603 12.974)" fill="none" stroke="#3f3d56" stroke-width="1"/>
  <ellipse id="Elipse_27" data-name="Elipse 27" cx="2.626" cy="1.276" rx="2.626" ry="1.276" transform="translate(73.858 14.177)" fill="#57b894"/>
  <ellipse id="Elipse_28" data-name="Elipse 28" cx="2.626" cy="1.276" rx="2.626" ry="1.276" transform="translate(73.53 13.959)" fill="none" stroke="#3f3d56" stroke-width="1"/>
  <ellipse id="Elipse_29" data-name="Elipse 29" cx="2.626" cy="1.276" rx="2.626" ry="1.276" transform="translate(67.512 14.615)" fill="#57b894"/>
  <ellipse id="Elipse_30" data-name="Elipse 30" cx="2.626" cy="1.276" rx="2.626" ry="1.276" transform="translate(67.184 14.396)" fill="none" stroke="#3f3d56" stroke-width="1"/>
  <ellipse id="Elipse_31" data-name="Elipse 31" cx="2.626" cy="1.276" rx="2.626" ry="1.276" transform="translate(67.95 3.673)" fill="#57b894"/>
  <ellipse id="Elipse_32" data-name="Elipse 32" cx="2.626" cy="1.276" rx="2.626" ry="1.276" transform="translate(67.621 3.454)" fill="none" stroke="#3f3d56" stroke-width="1"/>
  <ellipse id="Elipse_33" data-name="Elipse 33" cx="2.626" cy="1.276" rx="2.626" ry="1.276" transform="translate(56.68 10.457)" fill="#57b894"/>
  <ellipse id="Elipse_34" data-name="Elipse 34" cx="2.626" cy="1.276" rx="2.626" ry="1.276" transform="translate(56.351 10.238)" fill="none" stroke="#3f3d56" stroke-width="1"/>
  <ellipse id="Elipse_35" data-name="Elipse 35" cx="2.626" cy="1.276" rx="2.626" ry="1.276" transform="translate(58.211 15.381)" fill="#57b894"/>
  <ellipse id="Elipse_36" data-name="Elipse 36" cx="2.626" cy="1.276" rx="2.626" ry="1.276" transform="translate(57.883 15.162)" fill="none" stroke="#3f3d56" stroke-width="1"/>
  <g id="Grupo_10" data-name="Grupo 10" transform="translate(59.014 23.583)" opacity="0.3">
    <ellipse id="Elipse_37" data-name="Elipse 37" cx="1.376" cy="0.596" rx="1.376" ry="0.596" transform="translate(0.173 2.402) rotate(-60.799)" fill="#57b894"/>
    <ellipse id="Elipse_38" data-name="Elipse 38" cx="1.376" cy="0.596" rx="1.376" ry="0.596" transform="translate(0 2.502) rotate(-60.799)" fill="none" stroke="#3f3d56" stroke-width="1"/>
  </g>
  <g id="Grupo_11" data-name="Grupo 11" transform="translate(72.079 26.076)" opacity="0.3">
    <ellipse id="Elipse_39" data-name="Elipse 39" cx="0.596" cy="1.376" rx="0.596" ry="1.376" transform="matrix(0.667, -0.745, 0.745, 0.667, 0.06, 1.079)" fill="#57b894"/>
    <ellipse id="Elipse_40" data-name="Elipse 40" cx="0.596" cy="1.376" rx="0.596" ry="1.376" transform="matrix(0.667, -0.745, 0.745, 0.667, 0, 0.888)" fill="none" stroke="#3f3d56" stroke-width="1"/>
  </g>
  <g id="Grupo_12" data-name="Grupo 12" transform="translate(59.824 19.182)" opacity="0.3">
    <ellipse id="Elipse_41" data-name="Elipse 41" cx="0.596" cy="1.376" rx="0.596" ry="1.376" transform="matrix(0.667, -0.745, 0.745, 0.667, 0.06, 1.079)" fill="#57b894"/>
    <ellipse id="Elipse_42" data-name="Elipse 42" cx="0.596" cy="1.376" rx="0.596" ry="1.376" transform="matrix(0.667, -0.745, 0.745, 0.667, 0, 0.888)" fill="none" stroke="#3f3d56" stroke-width="1"/>
  </g>
</svg>
