<svg xmlns="http://www.w3.org/2000/svg" width="30" height="30" viewBox="0 0 30 30">
  <g id="Grupo_581" data-name="Grupo 581" transform="translate(0.413 0)">
    <path id="Exclusión_1" data-name="Exclusión 1" d="M2534.587-2513h-22a4,4,0,0,1-4-4v-22a4,4,0,0,1,4-4h22a4,4,0,0,1,4,4v22A4,4,0,0,1,2534.587-2513Zm-6.715-15.04c2.372,0,2.372,2.248,2.372,3.89v7.15h4.557v-8.069c0-3.629-.662-6.988-5.465-6.988a4.815,4.815,0,0,0-4.315,2.371h-.064v-2h-4.375V-2517h4.557v-7.273C2525.138-2526.136,2525.463-2528.04,2527.872-2528.04Zm-14.709-3.649V-2517h4.561v-14.688Zm2.278-7.312a2.645,2.645,0,0,0-2.642,2.642,2.657,2.657,0,0,0,2.642,2.667,2.657,2.657,0,0,0,2.641-2.667A2.644,2.644,0,0,0,2515.442-2539Z" transform="translate(-2509 2543)" fill="#fff"/>
  </g>
</svg>
