<svg xmlns="http://www.w3.org/2000/svg" width="50" height="80.473" viewBox="0 0 50 80.473">
  <g id="Ilustración_10" data-name="Ilustración 10" transform="translate(25 40.237)">
    <g id="Grupo_3333" data-name="Grupo 3333" transform="translate(-25 -40.237)">
      <g id="Grupo_3331" data-name="Grupo 3331" transform="translate(4.762 33.744)">
        <path id="Trazado_6410" data-name="Trazado 6410" d="M8.875,86.389c0-13.4,9.552-23.5,22.265-23.5,7.972,0,14.638,3.917,17.8,10.926L42,78.211c-2.543-5.7-6.6-8.04-11.339-8.04-7.766,0-12.645,6.253-12.645,16.287,0,9.62,4.467,16.011,13.607,16.011a14.042,14.042,0,0,0,6.322-1.306c2.406-1.237,3.024-3.23,3.024-5.909V85.7H49.35V102.95c-3.78,4.191-10.514,6.666-17.455,6.666C17.877,109.616,8.875,99.307,8.875,86.389Z" transform="translate(-8.875 -62.887)" fill="#748b30"/>
      </g>
      <g id="Grupo_3332" data-name="Grupo 3332">
        <path id="Trazado_6411" data-name="Trazado 6411" d="M8.712,12.263c8.924,8.576,22.054,11.58,25.418,12.12A28.527,28.527,0,0,0,.174.591,25.014,25.014,0,0,0,34.368,26.669c0-.014,0-.027,0-.04C15.839,24.368,8.712,12.263,8.712,12.263Z" transform="translate(0 0)" fill="#748b30"/>
        <path id="Trazado_6412" data-name="Trazado 6412" d="M72.734.6a28.539,28.539,0,0,0-23.3,5.476,30.611,30.611,0,0,1,6.138,7.844c3.809-2.16,9.715-5.8,11.795-8.775-2.6,4.742-5.691,6.915-10.913,10.521a30.272,30.272,0,0,1,2.729,10.143A24.988,24.988,0,0,0,72.906,3.5,25.235,25.235,0,0,0,72.734.6Z" transform="translate(-22.906 -0.009)" fill="#fae345"/>
      </g>
    </g>
  </g>
</svg>
