<svg xmlns="http://www.w3.org/2000/svg" width="280" height="86.511" viewBox="0 0 280 86.511">
  <g id="Ilustración_8" data-name="Ilustración 8" transform="translate(140 43.256)">
    <g id="Grupo_3337" data-name="Grupo 3337" transform="translate(-140 -43.256)">
      <g id="Grupo_3334" data-name="Grupo 3334" transform="translate(0 25.122)">
        <path id="Trazado_6413" data-name="Trazado 6413" d="M0,78.079c0-11.063,7.885-19.4,18.38-19.4,6.58,0,12.083,3.233,14.693,9.02l-5.729,3.631c-2.1-4.709-5.446-6.638-9.36-6.638-6.41,0-10.438,5.163-10.438,13.445,0,7.943,3.687,13.218,11.233,13.218A11.592,11.592,0,0,0,24,90.275c1.985-1.021,2.5-2.666,2.5-4.879V77.511h6.921V91.75c-3.12,3.46-8.68,5.5-14.409,5.5C7.432,97.253,0,88.744,0,78.079Z" transform="translate(0 -58.677)" fill="#748b30"/>
        <path id="Trazado_6414" data-name="Trazado 6414" d="M95.263,59.471h2.156a13.068,13.068,0,0,0,4.311-.4V96.913H95.263Z" transform="translate(-54.478 -58.905)" fill="#748b30"/>
        <path id="Trazado_6415" data-name="Trazado 6415" d="M123.883,101.576c0-6.865,6.184-12.82,13.332-12.82,7.091,0,13.331,5.956,13.331,12.82,0,6.921-6.24,12.877-13.331,12.877C130.067,114.454,123.883,108.5,123.883,101.576Zm20.026,0c0-4.368-2.95-7.432-6.694-7.432s-6.694,3.064-6.694,7.432,2.95,7.489,6.694,7.489S143.909,105.945,143.909,101.576Z" transform="translate(-70.844 -75.878)" fill="#748b30"/>
        <path id="Trazado_6416" data-name="Trazado 6416" d="M206.8,92.034v4.879h-6.467V59.471h2.156a13.068,13.068,0,0,0,4.311-.4V77.228a8.952,8.952,0,0,1,8.226-5.446c6.183,0,11.742,5.842,11.742,12.82,0,7.035-5.559,12.877-11.742,12.877A8.952,8.952,0,0,1,206.8,92.034ZM220.132,84.6c0-4.368-3.063-7.432-6.807-7.432-3.461,0-6.694,3.064-6.694,7.432s3.234,7.489,6.694,7.489C217.068,92.091,220.132,88.971,220.132,84.6Z" transform="translate(-114.564 -58.905)" fill="#748b30"/>
        <path id="Trazado_6417" data-name="Trazado 6417" d="M271.881,101.69a13.071,13.071,0,0,1,12.707-12.934c6.751,0,12.084,5.616,12.084,13.9h-18.21c.113,3.8,2.779,6.808,7.318,6.808,3.176,0,5.105-1.362,6.126-3.688l4.6,2.5c-1.872,3.688-5.559,6.184-10.949,6.184C277.667,114.454,271.881,108.668,271.881,101.69Zm6.637-2.666H290.2c-.284-3.234-2.439-5.844-5.787-5.844S278.915,95.9,278.518,99.024Z" transform="translate(-155.479 -75.878)" fill="#748b30"/>
        <path id="Trazado_6418" data-name="Trazado 6418" d="M338.393,110.767l3.29-3.8c1.3,1.532,3.517,2.836,7.034,2.836,3.063,0,4.936-1.021,4.936-2.836,0-1.248-.851-2.156-3.518-2.609l-4.028-.681c-4.538-.794-6.694-3.517-6.694-6.751,0-4.822,4.822-8.168,10.835-8.168,4.141,0,7.715,1.588,9.3,3.971l-3.461,3.631a7.4,7.4,0,0,0-6.24-2.95c-2.5,0-4.141,1.022-4.141,2.837,0,1.475.908,2.326,3.914,2.836l3.4.568c4.652.851,6.921,3.347,6.921,6.58,0,4.992-5.049,8.226-11.686,8.226C343.9,114.454,339.981,113.036,338.393,110.767Z" transform="translate(-193.515 -75.878)" fill="#748b30"/>
        <path id="Trazado_6419" data-name="Trazado 6419" d="M398.653,94.24V84.085h-4.481V79.773h.51c4.028,0,5.673-2.553,5.673-6.24V71.321h.454a12.408,12.408,0,0,0,4.311-.454v8.226h9.247v4.992h-9.247V95.2c0,2.779,1.361,4.028,3.12,4.028a4.518,4.518,0,0,0,3.857-2.78l4.425,2.836c-1.418,3.177-4.652,4.936-8.453,4.936C402.341,104.224,398.653,100.31,398.653,94.24Z" transform="translate(-225.413 -65.648)" fill="#748b30"/>
        <path id="Trazado_6420" data-name="Trazado 6420" d="M449.821,101.576c0-6.865,6.183-12.82,13.332-12.82,7.091,0,13.332,5.956,13.332,12.82,0,6.921-6.241,12.877-13.332,12.877C456,114.454,449.821,108.5,449.821,101.576Zm20.025,0c0-4.368-2.95-7.432-6.693-7.432s-6.694,3.064-6.694,7.432,2.949,7.489,6.694,7.489S469.846,105.945,469.846,101.576Z" transform="translate(-257.237 -75.878)" fill="#748b30"/>
        <path id="Trazado_6421" data-name="Trazado 6421" d="M526.27,89.323h2.156a12.457,12.457,0,0,0,4.311-.453v4.992c1.589-3.29,4.936-5.105,8.963-5.105,5.22,0,8.453,3.006,8.453,8.963v16.168h-6.468V98.967c0-3.4-1.418-4.651-4.254-4.651-4.029,0-6.7,2.609-6.7,7.2v12.367H526.27Z" transform="translate(-300.956 -75.878)" fill="#748b30"/>
        <path id="Trazado_6422" data-name="Trazado 6422" d="M596.094,101.69A13.071,13.071,0,0,1,608.8,88.756c6.751,0,12.083,5.616,12.083,13.9H602.675c.114,3.8,2.781,6.808,7.319,6.808,3.177,0,5.106-1.362,6.127-3.688l4.6,2.5c-1.873,3.688-5.559,6.184-10.949,6.184C601.881,114.454,596.094,108.668,596.094,101.69Zm6.638-2.666h11.687c-.284-3.234-2.44-5.844-5.787-5.844S603.129,95.9,602.732,99.024Z" transform="translate(-340.886 -75.878)" fill="#748b30"/>
      </g>
      <g id="Grupo_3335" data-name="Grupo 3335" transform="translate(115.252)">
        <path id="Trazado_6423" data-name="Trazado 6423" d="M277.819,12.14c8.834,8.49,21.832,11.464,25.161,12A28.24,28.24,0,0,0,269.367.585,24.762,24.762,0,0,0,303.217,26.4c0-.014,0-.027,0-.04C284.875,24.123,277.819,12.14,277.819,12.14Z" transform="translate(-269.195 0)" fill="#748b30"/>
        <path id="Trazado_6424" data-name="Trazado 6424" d="M353.592.6A28.253,28.253,0,0,0,330.523,6.02a30.323,30.323,0,0,1,6.077,7.765c3.771-2.138,9.618-5.744,11.676-8.687-2.577,4.694-5.633,6.845-10.8,10.415a29.967,29.967,0,0,1,2.7,10.041A24.738,24.738,0,0,0,353.763,3.47,25.019,25.019,0,0,0,353.592.6Z" transform="translate(-304.266 -0.014)" fill="#fae345"/>
      </g>
      <g id="Grupo_3336" data-name="Grupo 3336" transform="translate(0 69.73)">
        <path id="Trazado_6425" data-name="Trazado 6425" d="M0,177.138H1.534V166.267H0v-.259H4.962c4.032,0,5.737,2.171,5.737,5.514,0,3.256-1.585,5.875-5.737,5.875H0Zm5,0c2.585,0,3.859-1.878,3.859-5.427,0-3.7-1.275-5.445-3.859-5.445H3.222v10.872Z" transform="translate(0 -164.664)" fill="#748b30"/>
        <path id="Trazado_6426" data-name="Trazado 6426" d="M32.476,178.266c0,2.929.689,3.687,2.05,3.687a2.256,2.256,0,0,0,2.429-2.085h.276A2.292,2.292,0,0,1,35.611,182a3.329,3.329,0,0,1-1.241.207c-2.119,0-3.5-1.155-3.5-3.98,0-2.929,1.413-4.015,3.48-4.015,1.947,0,3.05.965,3.05,3.1v.688H32.476Zm3.428-.517v-.689c0-1.619-.327-2.619-1.55-2.619-1.292,0-1.809,1.137-1.861,3.308Z" transform="translate(-17.655 -169.359)" fill="#748b30"/>
        <path id="Trazado_6427" data-name="Trazado 6427" d="M51.682,182.212a5.187,5.187,0,0,0,.19-1.6v-1.275h.259v.621a2.4,2.4,0,0,0,2.6,2c1.086,0,2-.5,2-1.465,0-2-4.928-.74-4.928-3.963,0-1.774,1.551-2.309,2.723-2.309a2.663,2.663,0,0,1,1.947.741c.4-.086.534-.483.655-.741h.224a3.7,3.7,0,0,0-.275,1.6v.879h-.259v-.276a2.06,2.06,0,0,0-2.308-1.947c-1.1,0-2.033.448-2.033,1.43,0,2,4.962.775,4.962,3.877a2.459,2.459,0,0,1-2.723,2.429,3.111,3.111,0,0,1-2.205-.844c-.293.086-.5.534-.6.844Z" transform="translate(-29.555 -169.359)" fill="#748b30"/>
        <path id="Trazado_6428" data-name="Trazado 6428" d="M75.177,180.8a2.645,2.645,0,0,1-2.412,1.413c-1.1,0-2.326-.5-2.326-1.93,0-1.861,2.36-2.464,4.445-2.464h.173v-1.809c0-1.016-.276-1.568-1.413-1.568-1.051,0-1.62.4-1.62,1.31,0,.569.241,1.051.81.93v.138a2.38,2.38,0,0,1-.672.1c-.775,0-1.31-.431-1.31-1.12,0-.947.982-1.585,2.791-1.585,2.085,0,2.929.861,2.929,2.36v4.5c0,.5.1.775.465.775.586,0,.81-.569.81-1.189h.258c0,1.034-.569,1.551-1.378,1.551a1.386,1.386,0,0,1-1.516-1.413Zm-.12-2.722h-.31a3.588,3.588,0,0,0-1.792.379,1.938,1.938,0,0,0-.879,1.861c0,1.137.362,1.6,1,1.6a2.01,2.01,0,0,0,1.12-.4,1.845,1.845,0,0,0,.862-1.24Z" transform="translate(-40.282 -169.359)" fill="#748b30"/>
        <path id="Trazado_6429" data-name="Trazado 6429" d="M91.289,181.833H92.5V174.6H91.289v-.258h2.688v1.826h.035a2.518,2.518,0,0,1,2.222-1.947,1.538,1.538,0,0,1,1.637,1.568,1.3,1.3,0,0,1-1.809,1.258V176.9c.5.086.586-.534.586-1.016,0-.861-.275-1.309-.792-1.309a1.674,1.674,0,0,0-1.257.947,3.992,3.992,0,0,0-.586,1.912v4.394H95.39v.258h-4.1Z" transform="translate(-52.205 -169.359)" fill="#748b30"/>
        <path id="Trazado_6430" data-name="Trazado 6430" d="M110.006,181.833h1.206V174.6h-1.206v-.258h2.688v1.826h.034a2.519,2.519,0,0,1,2.222-1.947,1.538,1.538,0,0,1,1.637,1.568,1.3,1.3,0,0,1-1.809,1.258V176.9c.5.086.586-.534.586-1.016,0-.861-.276-1.309-.792-1.309a1.676,1.676,0,0,0-1.258.947,4,4,0,0,0-.586,1.912v4.394h1.378v.258h-4.1Z" transform="translate(-62.909 -169.359)" fill="#748b30"/>
        <path id="Trazado_6431" data-name="Trazado 6431" d="M129.286,178.266c0-2.481,1.137-4.049,3.687-4.049,2.567,0,3.67,1.5,3.67,3.945,0,2.584-1.4,4.049-3.67,4.049C130.492,182.212,129.286,180.661,129.286,178.266Zm5.737-.1c0-2.619-.483-3.721-2.05-3.721-1.55,0-2.067,1.137-2.067,3.825,0,2.567.5,3.721,2.067,3.721S135.023,180.8,135.023,178.162Z" transform="translate(-73.934 -169.359)" fill="#748b30"/>
        <path id="Trazado_6432" data-name="Trazado 6432" d="M150.861,175.826h1.206V163.972h-1.206v-.259h2.722v12.113h1.206v.258h-3.928Z" transform="translate(-86.272 -163.352)" fill="#748b30"/>
        <path id="Trazado_6433" data-name="Trazado 6433" d="M163.419,175.826h1.206V163.972h-1.206v-.259h2.722v12.113h1.206v.258h-3.928Z" transform="translate(-93.454 -163.352)" fill="#748b30"/>
        <path id="Trazado_6434" data-name="Trazado 6434" d="M176.983,178.266c0-2.481,1.137-4.049,3.687-4.049,2.567,0,3.67,1.5,3.67,3.945,0,2.584-1.4,4.049-3.67,4.049C178.189,182.212,176.983,180.661,176.983,178.266Zm5.737-.1c0-2.619-.482-3.721-2.05-3.721-1.551,0-2.067,1.137-2.067,3.825,0,2.567.5,3.721,2.067,3.721S182.72,180.8,182.72,178.162Z" transform="translate(-101.21 -169.359)" fill="#748b30"/>
        <path id="Trazado_6435" data-name="Trazado 6435" d="M199.723,182.212a5.174,5.174,0,0,0,.19-1.6v-1.275h.259v.621a2.4,2.4,0,0,0,2.6,2c1.085,0,2-.5,2-1.465,0-2-4.928-.74-4.928-3.963,0-1.774,1.551-2.309,2.723-2.309a2.663,2.663,0,0,1,1.947.741c.4-.086.534-.483.655-.741h.224a3.7,3.7,0,0,0-.275,1.6v.879h-.259v-.276a2.06,2.06,0,0,0-2.309-1.947c-1.1,0-2.033.448-2.033,1.43,0,2,4.962.775,4.962,3.877a2.459,2.459,0,0,1-2.723,2.429,3.112,3.112,0,0,1-2.205-.844c-.293.086-.5.534-.6.844Z" transform="translate(-114.215 -169.359)" fill="#748b30"/>
        <path id="Trazado_6436" data-name="Trazado 6436" d="M231.634,178.266c0,2.929.689,3.687,2.05,3.687a2.256,2.256,0,0,0,2.429-2.085h.276A2.292,2.292,0,0,1,234.77,182a3.329,3.329,0,0,1-1.241.207c-2.119,0-3.5-1.155-3.5-3.98,0-2.929,1.413-4.015,3.48-4.015,1.947,0,3.05.965,3.05,3.1v.688h-4.928Zm3.429-.517v-.689c0-1.619-.327-2.619-1.551-2.619-1.292,0-1.809,1.137-1.861,3.308Z" transform="translate(-131.547 -169.359)" fill="#748b30"/>
        <path id="Trazado_6437" data-name="Trazado 6437" d="M249.916,181.833h1.206V174.6h-1.206v-.258H252.6v1.843h.034a2.8,2.8,0,0,1,2.774-1.964c1.706,0,2.481.724,2.481,2.36v5.255H259.1v.258h-3.808v-.258h1.086v-5.565c0-1.292-.293-1.74-1.223-1.74a2.279,2.279,0,0,0-1.9,1,3.648,3.648,0,0,0-.62,1.93v4.376h1.086v.258h-3.808Z" transform="translate(-142.918 -169.359)" fill="#748b30"/>
        <path id="Trazado_6438" data-name="Trazado 6438" d="M277.118,178.266c0,2.929.689,3.687,2.05,3.687a2.256,2.256,0,0,0,2.429-2.085h.276A2.291,2.291,0,0,1,280.254,182a3.332,3.332,0,0,1-1.241.207c-2.119,0-3.5-1.155-3.5-3.98,0-2.929,1.413-4.015,3.48-4.015,1.947,0,3.05.965,3.05,3.1v.688h-4.928Zm3.429-.517v-.689c0-1.619-.327-2.619-1.55-2.619-1.292,0-1.809,1.137-1.861,3.308Z" transform="translate(-157.558 -169.359)" fill="#748b30"/>
        <path id="Trazado_6439" data-name="Trazado 6439" d="M295.4,181.833h1.206V174.6H295.4v-.258h2.688v1.826h.034a2.519,2.519,0,0,1,2.222-1.947,1.538,1.538,0,0,1,1.637,1.568,1.3,1.3,0,0,1-1.809,1.258V176.9c.5.086.586-.534.586-1.016,0-.861-.276-1.309-.792-1.309a1.676,1.676,0,0,0-1.258.947,4,4,0,0,0-.586,1.912v4.394H299.5v.258h-4.1Z" transform="translate(-168.928 -169.359)" fill="#748b30"/>
        <path id="Trazado_6440" data-name="Trazado 6440" d="M316.816,181.593c-.6-.1-.879.293-.879,1.034,0,.965.776,1.413,2.377,1.413,1.689,0,3.239-.569,3.239-1.775,0-1.171-1.481-1.292-3.187-1.413-1.93-.137-3.687-.276-3.687-1.895a2.633,2.633,0,0,1,1.293-2.034,2.327,2.327,0,0,1-.81-1.861c0-1.5,1.068-2.687,3.136-2.687a3.357,3.357,0,0,1,2.292.741,1.083,1.083,0,0,0,.534-1.017c0-.6-.224-.9-.81-.879v-.137a1.875,1.875,0,0,1,.62-.086c.931,0,1.224.5,1.224.947,0,.655-.655.9-1.4,1.344a2.421,2.421,0,0,1,.62,1.689c0,1.6-1.171,2.619-3.153,2.619a3.652,3.652,0,0,1-2.033-.517,1.674,1.674,0,0,0-.879,1.258c0,.982,1.4.947,3.239,1.086,1.947.155,3.549.448,3.549,2.24,0,1.93-1.844,2.636-3.791,2.636-1.912,0-3.515-.673-3.515-1.757,0-.776.775-1.172,1.482-1.172a1.93,1.93,0,0,1,.534.086Zm3.032-6.6c0-1.379-.31-2.377-1.585-2.377s-1.568,1-1.568,2.412c0,1.361.276,2.326,1.551,2.326S319.848,176.407,319.848,174.995Z" transform="translate(-179.954 -167.517)" fill="#748b30"/>
        <path id="Trazado_6441" data-name="Trazado 6441" d="M337.615,171.777c0,2.929.689,3.687,2.05,3.687a2.256,2.256,0,0,0,2.429-2.085h.276a2.292,2.292,0,0,1-1.62,2.136,3.329,3.329,0,0,1-1.241.207c-2.119,0-3.5-1.155-3.5-3.98,0-2.929,1.413-4.015,3.48-4.015,1.947,0,3.05.965,3.05,3.1v.688h-4.927Zm3.428-.517v-.689c0-1.619-.327-2.619-1.551-2.619-1.292,0-1.809,1.137-1.861,3.308Zm-2.274-4.721c1.482-2.136,1.241-3.67,2.205-3.67a.681.681,0,0,1,.672.655c0,.775-1.344,1.171-2.671,3.153Z" transform="translate(-192.154 -162.869)" fill="#748b30"/>
        <path id="Trazado_6442" data-name="Trazado 6442" d="M356.689,171.1h-1.155v-.258h.551c1.172,0,1.861-1.706,1.861-2.74h.259v2.74h2.016v.258H358.2V176.9c0,.948.172,1.431.861,1.431.414,0,1.085-.173,1.085-1.258h.259a1.519,1.519,0,0,1-1.723,1.637c-1.447,0-2-.913-2-2.24Z" transform="translate(-203.318 -165.86)" fill="#748b30"/>
        <path id="Trazado_6443" data-name="Trazado 6443" d="M370.266,176.908h1.206v-7.237h-1.206v-.258h2.722v7.495h1.206v.258h-3.928Zm1.843-11.3a.93.93,0,1,1-.93.931A.95.95,0,0,1,372.109,165.6Z" transform="translate(-211.742 -164.434)" fill="#748b30"/>
        <path id="Trazado_6444" data-name="Trazado 6444" d="M389.918,179.851a2.256,2.256,0,0,1-.741,1.688,2.824,2.824,0,0,1-1.981.673c-1.861,0-3.325-1.171-3.325-3.929,0-2.687,1.413-4.066,3.5-4.066,1.481,0,2.618.689,2.618,1.671a1.127,1.127,0,0,1-1.206,1.12,2.541,2.541,0,0,1-.689-.1v-.137c.551.121.758-.431.758-1a1.34,1.34,0,0,0-1.481-1.326c-1.361,0-1.9,1-1.9,3.791,0,2.739.534,3.722,1.9,3.722a2.279,2.279,0,0,0,1.62-.586,1.963,1.963,0,0,0,.672-1.516Z" transform="translate(-219.522 -169.359)" fill="#748b30"/>
        <path id="Trazado_6445" data-name="Trazado 6445" d="M403.151,178.266c0-2.481,1.137-4.049,3.687-4.049,2.567,0,3.67,1.5,3.67,3.945,0,2.584-1.4,4.049-3.67,4.049C404.357,182.212,403.151,180.661,403.151,178.266Zm5.737-.1c0-2.619-.482-3.721-2.05-3.721-1.551,0-2.067,1.137-2.067,3.825,0,2.567.5,3.721,2.067,3.721S408.888,180.8,408.888,178.162Z" transform="translate(-230.548 -169.359)" fill="#748b30"/>
        <path id="Trazado_6446" data-name="Trazado 6446" d="M425.891,182.212a5.174,5.174,0,0,0,.19-1.6v-1.275h.259v.621a2.4,2.4,0,0,0,2.6,2c1.085,0,2-.5,2-1.465,0-2-4.928-.74-4.928-3.963,0-1.774,1.551-2.309,2.723-2.309a2.663,2.663,0,0,1,1.947.741c.4-.086.534-.483.655-.741h.224a3.7,3.7,0,0,0-.275,1.6v.879h-.259v-.276a2.06,2.06,0,0,0-2.309-1.947c-1.1,0-2.033.448-2.033,1.43,0,2,4.962.775,4.962,3.877a2.459,2.459,0,0,1-2.723,2.429,3.112,3.112,0,0,1-2.205-.844c-.293.086-.5.534-.6.844Z" transform="translate(-243.552 -169.359)" fill="#748b30"/>
      </g>
    </g>
  </g>
</svg>
