<svg xmlns="http://www.w3.org/2000/svg" width="30" height="20" viewBox="0 0 30 20">
  <g id="Icon_ionic-ios-menu" data-name="Icon ionic-ios-menu" transform="translate(0)">
    <path id="Trazado_1283" data-name="Trazado 1283" d="M33.25,13.32H5.75a1.46,1.46,0,0,1-1.25-1.6h0a1.46,1.46,0,0,1,1.25-1.6h27.5a1.46,1.46,0,0,1,1.25,1.6h0A1.46,1.46,0,0,1,33.25,13.32Z" transform="translate(-4.5 -10.125)" fill="#748b30"/>
    <path id="Trazado_1284" data-name="Trazado 1284" d="M33.25,20.07H5.75a1.46,1.46,0,0,1-1.25-1.6h0a1.46,1.46,0,0,1,1.25-1.6h27.5a1.46,1.46,0,0,1,1.25,1.6h0A1.46,1.46,0,0,1,33.25,20.07Z" transform="translate(-4.5 -8.472)" fill="#748b30"/>
    <path id="Trazado_1285" data-name="Trazado 1285" d="M33.25,26.82H5.75a1.46,1.46,0,0,1-1.25-1.6h0a1.46,1.46,0,0,1,1.25-1.6h27.5a1.46,1.46,0,0,1,1.25,1.6h0A1.46,1.46,0,0,1,33.25,26.82Z" transform="translate(-4.5 -6.82)" fill="#748b30"/>
  </g>
</svg>
