<svg xmlns="http://www.w3.org/2000/svg" xmlns:xlink="http://www.w3.org/1999/xlink" width="296" height="165.803" viewBox="0 0 296 165.803">
  <defs>
    <linearGradient id="linear-gradient" x1="1.842" y1="-1.093" x2="0.123" y2="0.871" gradientUnits="objectBoundingBox">
      <stop offset="0" stop-color="#fff"/>
      <stop offset="0.216" stop-color="#fff" stop-opacity="0.761"/>
      <stop offset="0.604" stop-color="#fff" stop-opacity="0.357"/>
      <stop offset="0.874" stop-color="#fff" stop-opacity="0.098"/>
      <stop offset="1" stop-color="#fff" stop-opacity="0"/>
    </linearGradient>
    <linearGradient id="linear-gradient-2" x1="1.652" y1="-0.993" x2="-0.049" y2="1.262" xlink:href="#linear-gradient"/>
    <linearGradient id="linear-gradient-3" x1="4.724" y1="-1.093" x2="3.005" y2="0.871" xlink:href="#linear-gradient"/>
    <linearGradient id="linear-gradient-4" x1="5.135" y1="-0.993" x2="3.435" y2="1.262" xlink:href="#linear-gradient"/>
    <linearGradient id="linear-gradient-5" y1="0.5" x2="1" y2="0.5" gradientUnits="objectBoundingBox">
      <stop offset="0" stop-color="#caa09a"/>
      <stop offset="1" stop-color="#ddc0bd"/>
    </linearGradient>
    <linearGradient id="linear-gradient-6" x1="0.471" y1="-0.49" x2="0.524" y2="1.33" xlink:href="#linear-gradient-5"/>
    <linearGradient id="linear-gradient-7" x1="0.112" y1="0.34" x2="1.184" y2="0.762" xlink:href="#linear-gradient-5"/>
    <linearGradient id="linear-gradient-8" x1="-1.807" y1="-0.608" x2="1.164" y2="0.819" xlink:href="#linear-gradient-5"/>
    <linearGradient id="linear-gradient-9" x1="183.619" y1="0.5" x2="184.62" y2="0.5" xlink:href="#linear-gradient-5"/>
    <linearGradient id="linear-gradient-10" x1="143.17" y1="0.5" x2="144.17" y2="0.5" xlink:href="#linear-gradient-5"/>
    <linearGradient id="linear-gradient-11" x1="0.733" y1="0.162" x2="-0.102" y2="1.393" xlink:href="#linear-gradient-5"/>
    <linearGradient id="linear-gradient-12" x1="-135.148" y1="-0.843" x2="-135.655" y2="2.39" xlink:href="#linear-gradient-5"/>
    <linearGradient id="linear-gradient-13" x1="-108.932" y1="-3.915" x2="-109.412" y2="-1.2" xlink:href="#linear-gradient-5"/>
    <linearGradient id="linear-gradient-14" x1="0.514" y1="0.565" x2="-0.562" y2="1.734" xlink:href="#linear-gradient-5"/>
    <linearGradient id="linear-gradient-15" x1="0.373" y1="-0.294" x2="0.635" y2="1.332" xlink:href="#linear-gradient-5"/>
    <linearGradient id="linear-gradient-16" x1="-0.019" y1="-2.111" x2="1.05" y2="3.196" xlink:href="#linear-gradient-5"/>
    <linearGradient id="linear-gradient-17" x1="0.748" y1="-1.587" x2="0.27" y2="2.466" xlink:href="#linear-gradient-5"/>
    <linearGradient id="linear-gradient-18" x1="0.983" y1="-2.708" x2="-0.865" y2="8.692" xlink:href="#linear-gradient-5"/>
    <linearGradient id="linear-gradient-19" x1="0.787" y1="-4.307" x2="-0.017" y2="8.953" xlink:href="#linear-gradient-5"/>
    <linearGradient id="linear-gradient-20" x1="1.815" y1="-3.742" x2="0.807" y2="-0.383" xlink:href="#linear-gradient-5"/>
  </defs>
  <g id="Ilustración_2" data-name="Ilustración 2" transform="translate(148 82.902)">
    <g id="Grupo_511" data-name="Grupo 511" transform="translate(-148 -82.902)">
      <g id="Grupo_490" data-name="Grupo 490" transform="translate(98.518 73.54)">
        <path id="Trazado_2179" data-name="Trazado 2179" d="M426.888,394.383h-.762c-.361-6.757-.621-13.222,0-17.151h.762Z" transform="translate(-416.173 -354.994)" fill="#ececec"/>
        <ellipse id="Elipse_86" data-name="Elipse 86" cx="10.147" cy="14.266" rx="10.147" ry="14.266" fill="#eceee3"/>
      </g>
      <g id="Grupo_491" data-name="Grupo 491" transform="translate(36.192 56.285)">
        <path id="Trazado_2179-2" data-name="Trazado 2179" d="M181.409,326.422h-.762c-.361-6.757-.621-13.223,0-17.151h.762Z" transform="translate(-170.694 -287.033)" fill="#ececec"/>
        <ellipse id="Elipse_87" data-name="Elipse 87" cx="10.147" cy="14.266" rx="10.147" ry="14.266" fill="#eceee3"/>
      </g>
      <path id="Trazado_2611" data-name="Trazado 2611" d="M696.316,289.928c-21.984,7.383-91.809,30.507-108.271,31.9-19.609,1.666-22.362-14.557-22.362-14.557s21.934-31.652,24.711-31.1,10.352,12.991,13.267,10.909,15.121-44.421,19.781-44.866c4.373-.416,10.774,9.636,12.589,7.97,1.009-.926,5.559-10.434,10.251-18.692,3.744-6.593,7.581-12.389,9.776-12.379s5.207,4.783,8.375,10.834h0c5.346,10.212,11.157,24.063,14.38,24.817,1.589.372,3.451-.206,5.425-1.03-.024.157-.047.314-.07.47q-.129.9-.224,1.761a45.847,45.847,0,0,0-.017,11.043,33.675,33.675,0,0,0,5.836,15.2A56.507,56.507,0,0,0,696.316,289.928Z" transform="translate(-422.059 -163.488)" fill="#d1d8ba"/>
      <path id="Trazado_2612" data-name="Trazado 2612" d="M295.963,397.243a66.8,66.8,0,0,1-.673,7.209c-1.627,11.166-10.462,19.391-20.843,19.385l-59.789-.03-52.39-.027H160.7l-11.216,0h-1.447l-10.7-.005H135.5l-14.914-.007-2.629,0-12.163-.007h-3.307l-20.963-.011H77.861l-17.116-.008-2.53,0-24.97-.013c-3.193,0-6.352.656-9.156-.746-4.248-2.123-7.767-7.134-10.047-11.781A142.73,142.73,0,0,1,2.024,375.956c-.557-2.889-1.018-5.853-1.359-8.881a101.291,101.291,0,0,1-.592-15.335q.115-2.9.415-5.838c11.708-.173,42.632.817,79.437,13.556,47.032,16.281,90.414,26.743,122.04,18.234,26.306-7.077,58.976-15.841,78.246-15.673,1.064,1.1,2.129,2.2,3.175,3.332q.337.361.67.728.573.628,1.133,1.27a53.941,53.941,0,0,1,4.338,5.579c.292.431.573.87.85,1.315q.486.788.94,1.61a36.087,36.087,0,0,1,2.52,5.632A42.575,42.575,0,0,1,295.963,397.243Z" transform="translate(0 -258.066)" fill="#eceee3"/>
      <path id="Trazado_2613" data-name="Trazado 2613" d="M684.414,41.6a14.337,14.337,0,0,1,13.794-6.658s14.121-12.485,29.18-1.665c0,0,16.007-2.681,27.861,2.321,7.9,3.335,10.514,6.834,10.514,6.834Z" transform="translate(-510.645 -21.539)" fill="#ededed" opacity="0.8"/>
      <path id="Trazado_2614" data-name="Trazado 2614" d="M484.813,113.422s3.445-5.269,11.684-4.683c0,0,11.961-8.782,24.717-1.171,0,0,13.559-1.886,23.6,1.633,6.695,2.346,8.906,4.807,8.906,4.807Z" transform="translate(-361.721 -77.941)" fill="#ededed"/>
      <path id="Trazado_2615" data-name="Trazado 2615" d="M68.953,463.724H100.77c-.634-3.06-10.9-4.889-11.459-7.448-.694-3.193,21.518-4.581,25.128-9.024s-4.026-3.471-1.944-5.414c1.716-1.6,15.113-4.71,17.529-7.144,11.547-1.674,19.55-2.98,19.55-2.98s34.085-5.692,31.248-13.741c-2.937-8.33-59.437-5.87-83.5-13.461s-25.807-5.36-19.983-1.339,39.411,13.523,25.492,14.6-39.728,8.011-42.9,20.121C57.257,448.107,62.127,459.613,68.953,463.724Z" transform="translate(-44.159 -298.055)" fill="#d1d8ba"/>
      <path id="Trazado_2616" data-name="Trazado 2616" d="M870.545,597.183l-55.289-.025c.279-2.635,5.284-3.966,4.82-6.566-.6-3.332-25.226-4.581-15.342-8.832,9.708-4.174,30.3-3.422,31.038-3.394h.021c3.61.278,31.375-1.666,34.706,3.332S870.545,597.183,870.545,597.183Z" transform="translate(-598.672 -431.412)" fill="#d1d8ba"/>
      <path id="Trazado_2617" data-name="Trazado 2617" d="M909.958,448.9c-5.252-.255-13.155-.661-19.966-1.1-11.384-.741-6.386-4.258-1.111-9.257s-16.381-2.22-32.485-1.1-40.259.551-31.655-6.418,71.138-14.9,71.138-14.9q.377.371.75.748.642.645,1.269,1.3a56.342,56.342,0,0,1,4.856,5.735c.326.443.642.894.951,1.352q.543.81,1.052,1.655a35.681,35.681,0,0,1,2.821,5.789A40.467,40.467,0,0,1,909.958,448.9Z" transform="translate(-614 -310.465)" fill="#d1d8ba"/>
      <g id="Grupo_493" data-name="Grupo 493" transform="translate(220.604 85.402)">
        <g id="Grupo_492" data-name="Grupo 492" transform="translate(16.512 27.936)">
          <ellipse id="Elipse_88" data-name="Elipse 88" cx="16.367" cy="2.298" rx="16.367" ry="2.298" transform="translate(0 20.235)" fill="#999" opacity="0.2"/>
          <rect id="Rectángulo_126" data-name="Rectángulo 126" width="4.781" height="20.71" transform="translate(14.178)" fill="#999"/>
          <path id="Rectángulo_127" data-name="Rectángulo 127" d="M1.4,0H19.439a1.4,1.4,0,0,1,1.4,1.4V4.967a0,0,0,0,1,0,0H0a0,0,0,0,1,0,0V1.4A1.4,1.4,0,0,1,1.4,0Z" transform="translate(5.491 17.566)" fill="#999"/>
        </g>
        <path id="Trazado_2618" data-name="Trazado 2618" d="M923.523,368.394H872.416a3.44,3.44,0,0,1-3.4-4.361l7.51-25.2a3.52,3.52,0,0,1,3.4-2.47h51.107a3.44,3.44,0,0,1,3.4,4.361l-7.51,25.2A3.52,3.52,0,0,1,923.523,368.394Z" transform="translate(-868.879 -336.367)" fill="#7a7a7a"/>
        <path id="Trazado_2619" data-name="Trazado 2619" d="M937.465,345.055c-.006.063-.015.128-.027.191a3.651,3.651,0,0,1-.092.393l-2.782,9.663-.055.191-2.895,10.055-.055.19-.665,2.31a3.763,3.763,0,0,1-3.615,2.72H878.452c-.032,0-.065,0-.1,0a3.761,3.761,0,0,1-3.665-3.743,3.718,3.718,0,0,1,.149-1.056l.067-.229.053-.19,2.9-10.055.055-.191,2.9-10.055.055-.191.431-1.5a3.762,3.762,0,0,1,3.613-2.72h48.828a3.751,3.751,0,0,1,3.425,2.209A3.706,3.706,0,0,1,937.465,345.055Z" transform="translate(-873.214 -339.702)" fill="#999"/>
        <path id="Trazado_2620" data-name="Trazado 2620" d="M930.315,345.245h7.757c.011-.063.021-.128.027-.191H930.29a.509.509,0,0,0-.162-.234l1.141-3.984h-.2l-1.115,3.892a.5.5,0,0,0-.632.325h-9.769a.511.511,0,0,0-.281-.308l1.12-3.91h-.2l-1.109,3.869-.016,0a.51.51,0,0,0-.483.35H908.54a.511.511,0,0,0-.164-.235l1.143-3.982h-.2l-1.117,3.892a.5.5,0,0,0-.147-.024.51.51,0,0,0-.483.35H897.8a.511.511,0,0,0-.281-.308l1.12-3.91h-.2l-1.109,3.869-.015,0a.51.51,0,0,0-.483.35h-10a.51.51,0,0,0-.2-.267l1.134-3.951h-.2l-1.111,3.878a.5.5,0,0,0-.1-.01.51.51,0,0,0-.483.35h-4.379l-.055.191h4.408a.51.51,0,0,0,.329.449l-2.609,9.1a.511.511,0,0,0-.5.511h-4.523l-.055.191H883.1a.513.513,0,0,0,.2.238l-2.706,9.437c-.01,0-.019,0-.029,0a.511.511,0,0,0-.494.384h-4.478l-.053.19h4.52a.508.508,0,0,0,.26.384l-1.331,4.644c.033,0,.065,0,.1,0h.1l1.316-4.587a.529.529,0,0,0,.064.006.51.51,0,0,0,.505-.449h9.951a.509.509,0,0,0,.187.335l-1.347,4.695h.2l1.321-4.6a.5.5,0,0,0,.652-.425h9.726a.51.51,0,0,0,.3.407l-1.326,4.622h.2l1.314-4.582.016,0a.51.51,0,0,0,.506-.449h10a.509.509,0,0,0,.187.335l-1.347,4.695h.2l1.321-4.6a.5.5,0,0,0,.652-.425h9.724a.511.511,0,0,0,.305.408l-1.326,4.621h.2L924,366.185h.013a.51.51,0,0,0,.505-.449h7.673l.055-.19h-7.74a.509.509,0,0,0-.236-.312l2.7-9.427a.52.52,0,0,0,.053.005.512.512,0,0,0,.474-.321h7.64l.055-.191H927.54a.511.511,0,0,0-.288-.458l2.615-9.12A.509.509,0,0,0,930.315,345.245Zm-17.1,19.923a.509.509,0,0,0-.433.378H902.758a.509.509,0,0,0-.236-.312l2.7-9.427a.519.519,0,0,0,.053.005.512.512,0,0,0,.474-.321h10.065a.514.514,0,0,0,.123.18Zm-10.953-.006a.51.51,0,0,0-.494.384h-9.75a.511.511,0,0,0-.359-.364l2.7-9.405a.507.507,0,0,0,.657-.286H904.8a.51.51,0,0,0,.238.261l-2.7,9.418A.529.529,0,0,0,902.264,365.162Zm-18.508-10.34,2.608-9.095a.51.51,0,0,0,.5-.482h9.945a.508.508,0,0,0,.253.412L894.44,354.8a.512.512,0,0,0-.411.5h-9.939A.511.511,0,0,0,883.757,354.822Zm13.563-9.094a.51.51,0,0,0,.509-.483h9.72a.509.509,0,0,0,.376.463l-2.605,9.084c-.013,0-.026,0-.04,0a.512.512,0,0,0-.512.512h-9.714a.512.512,0,0,0-.414-.5l2.6-9.078A.5.5,0,0,0,897.319,345.728Zm18.872,9.071a.512.512,0,0,0-.411.5h-9.99a.51.51,0,0,0-.288-.458l2.615-9.12a.509.509,0,0,0,.448-.477h10a.51.51,0,0,0,.252.411Zm-32.714,1a.511.511,0,0,0,.576-.311h10.014a.51.51,0,0,0,.124.181l-2.723,9.5a.509.509,0,0,0-.435.378h-9.975a.511.511,0,0,0-.279-.336Zm40.615,9.368a.529.529,0,0,0-.078-.008.51.51,0,0,0-.494.384h-9.748a.51.51,0,0,0-.361-.364l2.7-9.405a.507.507,0,0,0,.184.036.512.512,0,0,0,.475-.321h9.787a.511.511,0,0,0,.239.261Zm2.937-10.382a.512.512,0,0,0-.512.512H916.8a.512.512,0,0,0-.414-.5l2.6-9.078a.519.519,0,0,0,.077.008.511.511,0,0,0,.509-.483H929.3a.509.509,0,0,0,.376.463l-2.605,9.084C927.055,354.792,927.042,354.789,927.029,354.789Z" transform="translate(-873.848 -339.702)" fill="#fff"/>
        <path id="Trazado_2621" data-name="Trazado 2621" d="M910.24,340.837l-29.93,29.93h-1.858c-.032,0-.065,0-.1,0a3.761,3.761,0,0,1-3.665-3.743l26.183-26.185Z" transform="translate(-873.215 -339.702)" opacity="0.5" fill="url(#linear-gradient)"/>
        <path id="Trazado_2622" data-name="Trazado 2622" d="M994.974,343.046l-27.719,27.721H952.18l29.93-29.93h9.439A3.75,3.75,0,0,1,994.974,343.046Z" transform="translate(-931.03 -339.702)" opacity="0.5" fill="url(#linear-gradient-2)"/>
      </g>
      <g id="Grupo_495" data-name="Grupo 495" transform="translate(25.545 81.868)">
        <g id="Grupo_494" data-name="Grupo 494" transform="translate(21.287 36.16)">
          <ellipse id="Elipse_89" data-name="Elipse 89" cx="21.185" cy="2.975" rx="21.185" ry="2.975" transform="translate(0 26.191)" fill="#999" opacity="0.2"/>
          <rect id="Rectángulo_128" data-name="Rectángulo 128" width="6.188" height="26.807" transform="translate(17.83)" fill="#999"/>
          <path id="Rectángulo_129" data-name="Rectángulo 129" d="M0,0H26.971a0,0,0,0,1,0,0V5.031a1.4,1.4,0,0,1-1.4,1.4H1.4A1.4,1.4,0,0,1,0,5.031V0A0,0,0,0,1,0,0Z" transform="translate(35.262 29.166) rotate(180)" fill="#999"/>
        </g>
        <path id="Trazado_2623" data-name="Trazado 2623" d="M114.912,363.9h66.152a4.453,4.453,0,0,0,4.4-5.645l-9.721-32.613a4.556,4.556,0,0,0-4.4-3.2H105.191a4.453,4.453,0,0,0-4.4,5.645l9.721,32.613A4.556,4.556,0,0,0,114.912,363.9Z" transform="translate(-100.613 -322.446)" fill="#7a7a7a"/>
        <path id="Trazado_2624" data-name="Trazado 2624" d="M107.844,333.691c.007.081.02.165.034.247a4.767,4.767,0,0,0,.119.508l3.6,12.507.072.247,3.747,13.015.071.247.861,2.99a4.871,4.871,0,0,0,4.68,3.52h63.2c.042,0,.084,0,.126,0a4.867,4.867,0,0,0,4.744-4.845,4.792,4.792,0,0,0-.192-1.367l-.086-.3-.069-.247L185,347.2l-.071-.247-3.747-13.015-.072-.247-.558-1.939a4.87,4.87,0,0,0-4.677-3.52h-63.2a4.855,4.855,0,0,0-4.433,2.859A4.8,4.8,0,0,0,107.844,333.691Z" transform="translate(-105.979 -326.763)" fill="#999"/>
        <path id="Trazado_2625" data-name="Trazado 2625" d="M118.031,333.938h-10.04c-.015-.082-.027-.165-.035-.247h10.108a.659.659,0,0,1,.21-.3l-1.477-5.156h.257l1.443,5.038a.653.653,0,0,1,.192-.032.66.66,0,0,1,.625.453H131.96a.662.662,0,0,1,.364-.4l-1.45-5.061h.257l1.435,5.008.02,0a.661.661,0,0,1,.626.453h13.006a.661.661,0,0,1,.213-.3l-1.479-5.155h.257l1.445,5.037a.652.652,0,0,1,.19-.031.66.66,0,0,1,.625.453h12.647a.662.662,0,0,1,.364-.4l-1.45-5.061h.256l1.435,5.008.02,0a.66.66,0,0,1,.625.453H174.3a.663.663,0,0,1,.265-.346l-1.467-5.114h.259l1.438,5.02a.645.645,0,0,1,.131-.013.66.66,0,0,1,.625.453h5.668l.072.247h-5.707a.659.659,0,0,1-.425.581l3.376,11.774a.662.662,0,0,1,.648.661h5.854l.071.247h-5.974a.663.663,0,0,1-.253.308l3.5,12.215c.013,0,.025,0,.038,0a.661.661,0,0,1,.639.5h5.8l.069.247h-5.851a.659.659,0,0,1-.337.5l1.723,6.011c-.042,0-.084,0-.126,0h-.128l-1.7-5.937a.647.647,0,0,1-.083.008.66.66,0,0,1-.654-.581H168.892a.656.656,0,0,1-.241.433l1.743,6.077h-.257l-1.709-5.96a.653.653,0,0,1-.19.031.661.661,0,0,1-.654-.581h-12.59a.66.66,0,0,1-.393.527l1.716,5.983h-.257l-1.7-5.931-.02,0a.66.66,0,0,1-.654-.581H140.737a.656.656,0,0,1-.242.433l1.743,6.077h-.256l-1.71-5.96a.65.65,0,0,1-.19.031.66.66,0,0,1-.654-.581H126.841a.661.661,0,0,1-.395.528l1.716,5.982h-.256l-1.7-5.931-.018,0a.661.661,0,0,1-.655-.581H115.6l-.072-.247h10.018a.66.66,0,0,1,.306-.4l-3.5-12.2c-.023,0-.045.007-.069.007a.662.662,0,0,1-.614-.416h-9.889l-.072-.247h9.912a.661.661,0,0,1,.372-.593l-3.385-11.805A.659.659,0,0,1,118.031,333.938Zm22.131,25.788a.659.659,0,0,1,.56.489H153.7a.659.659,0,0,1,.306-.4l-3.5-12.2a.676.676,0,0,1-.069.007.662.662,0,0,1-.614-.416H136.795a.662.662,0,0,1-.159.233Zm14.177-.008a.661.661,0,0,1,.639.5H167.6a.659.659,0,0,1,.464-.471l-3.491-12.174a.656.656,0,0,1-.85-.371h-12.67a.661.661,0,0,1-.309.338l3.5,12.19A.63.63,0,0,1,154.339,359.718Zm23.956-13.384-3.376-11.772a.66.66,0,0,1-.648-.624H161.4a.658.658,0,0,1-.328.533l3.4,11.833a.663.663,0,0,1,.532.649h12.864A.661.661,0,0,1,178.295,346.335ZM160.74,334.563a.661.661,0,0,1-.659-.625H147.5a.659.659,0,0,1-.487.6l3.372,11.758c.018,0,.034-.005.052-.005a.663.663,0,0,1,.663.663h12.573a.663.663,0,0,1,.536-.65l-3.372-11.75A.65.65,0,0,1,160.74,334.563ZM136.312,346.3a.663.663,0,0,1,.532.649h12.932a.66.66,0,0,1,.372-.593l-3.385-11.805a.658.658,0,0,1-.579-.617H133.244a.658.658,0,0,1-.326.532Zm42.345,1.3a.661.661,0,0,1-.745-.4H164.95a.66.66,0,0,1-.16.234l3.525,12.292a.659.659,0,0,1,.563.489h12.911a.662.662,0,0,1,.362-.434Zm-52.571,12.126a.633.633,0,0,1,.1-.01.661.661,0,0,1,.639.5h12.618a.66.66,0,0,1,.467-.471l-3.491-12.174a.656.656,0,0,1-.852-.37H122.9a.663.663,0,0,1-.309.338Zm-3.8-13.438a.663.663,0,0,1,.662.663h12.571a.663.663,0,0,1,.537-.65l-3.37-11.75a.646.646,0,0,1-.1.01.661.661,0,0,1-.659-.625H119.348a.66.66,0,0,1-.487.6l3.372,11.758C122.251,346.295,122.268,346.291,122.285,346.291Z" transform="translate(-106.092 -326.763)" fill="#fff"/>
        <path id="Trazado_2626" data-name="Trazado 2626" d="M246.752,328.232l38.74,38.74H287.9c.042,0,.084,0,.126,0a4.867,4.867,0,0,0,4.744-4.845l-33.891-33.893Z" transform="translate(-209.648 -326.763)" opacity="0.5" fill="url(#linear-gradient-3)"/>
        <path id="Trazado_2627" data-name="Trazado 2627" d="M109.52,331.091,145.4,366.972h19.513l-38.74-38.74H113.953A4.855,4.855,0,0,0,109.52,331.091Z" transform="translate(-107.259 -326.763)" opacity="0.5" fill="url(#linear-gradient-4)"/>
      </g>
      <ellipse id="Elipse_69" data-name="Elipse 69" cx="14.113" cy="14.113" rx="14.113" ry="14.113" transform="translate(39.573)" fill="#f6e164"/>
      <path id="Trazado_2628" data-name="Trazado 2628" d="M866.442,548.64a.327.327,0,0,0,.039-.008,17.507,17.507,0,0,0,3.843-2.525c.309-.244.615-.485.917-.714,1.781-1.353,4.16-2.915,6.461-4.426,4.921-3.232,9.569-6.284,9.94-8.139a.36.36,0,0,0-.536-.38,28.62,28.62,0,0,1-6.568,2.528,25.927,25.927,0,0,0-7.412,3.038h0a17.862,17.862,0,0,0-4.663,4.913c-.1.154-.246.351-.411.578a24.464,24.464,0,0,0-1.5,2.267q.152-2.838.462-5.461a5.88,5.88,0,0,0-.009.971.36.36,0,0,0,.546.279c3.67-2.241,6.593-8.1,8.538-12a10.586,10.586,0,0,0,1.479-5.807.36.36,0,0,0-.259-.305.364.364,0,0,0-.381.123,109.163,109.163,0,0,0-6.572,9.3l-.231.366c-1.188,1.876-2.74,4.336-3.07,6.724a61.376,61.376,0,0,1,2.363-11.148.852.852,0,0,0,.4.1h.052a.822.822,0,0,0,.642-.369c1.8-2.754,2.461-7.1,2.94-10.272l.065-.434a.36.36,0,0,0-.711-.108h0a13.753,13.753,0,0,1-1.421,2.877c-1.47,2.586-3.268,5.748-2.507,7.533q-.586,1.79-1.06,3.685A36.369,36.369,0,0,0,865.8,523.8l-.106-.318a24.012,24.012,0,0,0-6.215-10.228.36.36,0,0,0-.585.378,53.721,53.721,0,0,1,1.778,7.964,43.616,43.616,0,0,0,2.523,9.963c.38.885,2.089,3.843,3.466,3.843a.9.9,0,0,0,.174-.017.886.886,0,0,0,.215-.074,73.79,73.79,0,0,0-1,7.326,36.621,36.621,0,0,0-1.789-3.914c-.11-.214-.2-.389-.26-.512h0a19.015,19.015,0,0,0-3.571-5.333,23.482,23.482,0,0,0-3.708-2.785,22.993,22.993,0,0,1-3.586-2.684.359.359,0,0,0-.607.306,10.269,10.269,0,0,0,2.442,5.439,10.369,10.369,0,0,1,1.579,2.557,25.927,25.927,0,0,0,3.621,6.36c.033.043,2.91,3.668,5.032,3.668a1.579,1.579,0,0,0,.634-.13c-.544.73-.382,1.768-.155,3.031Z" transform="translate(-636.075 -382.869)" fill="#faf5bd"/>
      <g id="Grupo_496" data-name="Grupo 496" transform="translate(205.552 112.224)">
        <path id="Trazado_2629" data-name="Trazado 2629" d="M821.53,517.049a1.882,1.882,0,0,1,.622-.552,1.588,1.588,0,0,1,.6-.085l2.41-.033a1.457,1.457,0,0,1,1.147.319.943.943,0,0,1-.154,1.259,2,2,0,0,1-1.3.435c-1.341.048-3.858,1.08-4.475,0C820.056,517.835,821.1,517.531,821.53,517.049Z" transform="translate(-817.592 -497.496)" fill="#d1d8ba"/>
        <path id="Trazado_2630" data-name="Trazado 2630" d="M813.851,448.142l.113.013a3.5,3.5,0,0,0,.386.031.652.652,0,0,0,.32-.065,5.39,5.39,0,0,1,.5,1.749l-.02-.017a3.943,3.943,0,0,0-1.441-.745,3.435,3.435,0,0,0-1.792-.005,1.84,1.84,0,0,0-.99.6.3.3,0,0,0-.048.282.24.24,0,0,0,.173.161c.127.029.329.1.476.146.091.03.162.054.188.06.279.064.564.118.846.162a12.1,12.1,0,0,0,1.734.142c.064,0,.137.008.214.015.1.009.208.019.314.019a.915.915,0,0,0,.393-.073l0,0a9.994,9.994,0,0,1-.124,1.7c-.025.162-.054.325-.084.488a1.962,1.962,0,0,0-.716-.551l-.116-.064a3.56,3.56,0,0,0-1.863-.5,1.306,1.306,0,0,0-1.1.483.435.435,0,0,0-.1.224.4.4,0,0,0,.245.393,7.963,7.963,0,0,0,3.1.7c.048,0,.109.009.173.009a.767.767,0,0,0,.235-.032c-.074.342-.153.682-.232,1.016-.046.2-.093.4-.138.6-.09-.075-.185-.141-.272-.2l-.039-.027h0a2.337,2.337,0,0,0-2.954.241.176.176,0,0,0,.05.3,3.413,3.413,0,0,0,.714.223c.029.006.055.01.077.016a5.562,5.562,0,0,0,.855.157l.035,0c.142.014.35.034.573.034a1.841,1.841,0,0,0,.832-.159c-.109.519-.2,1.045-.261,1.574a6.218,6.218,0,0,0,1.209,4.857.176.176,0,0,0,.132.059.1.1,0,0,1,.069,0l.029,0a.177.177,0,0,0,.146-.2,4.158,4.158,0,0,1,.283-2.079,8.34,8.34,0,0,1,1.561-2.657c.251-.288.528-.566.8-.834s.57-.571.836-.879a8.465,8.465,0,0,0,1.195-1.81.535.535,0,0,0,.2.1,3.469,3.469,0,0,0,1.7-.038c.6-.126,1.208-.283,1.8-.466a3.108,3.108,0,0,0,1.167-.571.4.4,0,0,0,.169-.369c-.017-.1-.089-.24-.339-.309a4.133,4.133,0,0,0-1.34-.093,7.236,7.236,0,0,0-1.9.327,6.411,6.411,0,0,0-.908.364,4.232,4.232,0,0,0-.043-1.1,7.6,7.6,0,0,0-.363-1.5,1.4,1.4,0,0,0-.323-.57.283.283,0,0,0-.185-.087c-.119-.008-.233.063-.277.259l-.227,1a4.433,4.433,0,0,0-.142.936c0,.014,0,1.428.488,1.823a.484.484,0,0,0,.226.1,8.119,8.119,0,0,1-1.163,1.772c-.257.3-.543.584-.819.861s-.553.554-.812.852a8.688,8.688,0,0,0-1.627,2.769,5.06,5.06,0,0,0-.341,1.755,6.394,6.394,0,0,1-.843-4.226c.018-.172.042-.344.068-.517a.539.539,0,0,0,.155.021,1.159,1.159,0,0,0,.156-.013l.06-.007a5.757,5.757,0,0,0,1.054-.162,6.21,6.21,0,0,0,1.99-.9.372.372,0,0,0,.132-.138.426.426,0,0,0-.174-.519,1.6,1.6,0,0,0-1.375-.21,4.75,4.75,0,0,0-1.221.6,3.1,3.1,0,0,0-.621.461c.091-.445.194-.887.3-1.321.066-.28.131-.565.195-.851a1.347,1.347,0,0,0,.705.158,2.492,2.492,0,0,0,.485-.044,4.5,4.5,0,0,0,1.408-.691,3.547,3.547,0,0,0,1.3-1.353.485.485,0,0,0,.032-.442.29.29,0,0,0-.19-.131,3.865,3.865,0,0,0-1.536-.031,2.609,2.609,0,0,0-1.037.345,3.561,3.561,0,0,0-.914.9c0-.017.006-.035.009-.052a9.575,9.575,0,0,0,.09-2.4.692.692,0,0,0,.15.017,2.152,2.152,0,0,0,.662-.154c.056-.02.109-.038.158-.053a16.563,16.563,0,0,0,3.618-1.627.4.4,0,0,0,.189-.207.345.345,0,0,0-.024-.282.484.484,0,0,0-.3-.227,1.8,1.8,0,0,0-.862.064,9.336,9.336,0,0,0-2.049.677,3.812,3.812,0,0,0-1.592,1.377,5.474,5.474,0,0,0-.594-1.781,1.906,1.906,0,0,1,.5-.652,3.622,3.622,0,0,0,.395-.441,12.389,12.389,0,0,0,.944-1.691,3.835,3.835,0,0,0,.569-2.663.41.41,0,0,0-.222-.292.4.4,0,0,0-.274.007,2.4,2.4,0,0,0-.79.468,5.051,5.051,0,0,0-1.674,4.634,3.435,3.435,0,0,0-1-.42,7.032,7.032,0,0,0-2.287-.259,1.612,1.612,0,0,0-1.428.669.177.177,0,0,0,.005.162C809.706,447.454,813.812,448.138,813.851,448.142Z" transform="translate(-809.594 -442.011)" fill="#faf5bd"/>
      </g>
      <g id="Grupo_498" data-name="Grupo 498" transform="translate(16.643 126.403)">
        <path id="Trazado_2631" data-name="Trazado 2631" d="M113,620.313a2.508,2.508,0,0,1,.832-.738,2.114,2.114,0,0,1,.8-.114l3.223-.044a1.949,1.949,0,0,1,1.533.426,1.261,1.261,0,0,1-.205,1.683,2.665,2.665,0,0,1-1.743.581c-1.793.063-5.159,1.443-5.984,0C111.026,621.363,112.429,620.957,113,620.313Z" transform="translate(-99.737 -588.552)" fill="#eceee3"/>
        <g id="Grupo_497" data-name="Grupo 497">
          <path id="Trazado_2632" data-name="Trazado 2632" d="M183.572,539.746l.033.007a.291.291,0,0,0,.29-.141,5.643,5.643,0,0,1,.472-.651l.174-.22a5.038,5.038,0,0,0,.837-4.447.562.562,0,0,0-.145-.261.547.547,0,0,0-.642-.047,2.228,2.228,0,0,0-1.031,1.385,7.963,7.963,0,0,0-.2,4.168A.292.292,0,0,0,183.572,539.746Z" transform="translate(-153.307 -524.753)" fill="#faf5bd"/>
          <path id="Trazado_2633" data-name="Trazado 2633" d="M192.7,540.674a.577.577,0,0,0,.349.327l.048.014c.6.153,1.3-.591,1.943-1.379a4.189,4.189,0,0,0,1.017-2.714.508.508,0,0,0-.286-.507.547.547,0,0,0-.371,0,3.794,3.794,0,0,0-2.249,2.15C192.672,539.618,192.529,540.288,192.7,540.674Z" transform="translate(-160.364 -526.599)" fill="#faf5bd"/>
          <path id="Trazado_2634" data-name="Trazado 2634" d="M116.39,511.585c-.049,0-3.7.3-3.966,1.428a23.553,23.553,0,0,0-9.019,1.584c-.53.206-1.008.415-1.451.632a5.472,5.472,0,0,0,.143-.878c.012-.11.023-.213.036-.3a11.724,11.724,0,0,0-.6-5.744.291.291,0,0,0-.544,0l-.886,2.324a7.165,7.165,0,0,0-.667,3.069,2.781,2.781,0,0,0,1.286,2.222c-.1.062-.194.125-.289.189a13.193,13.193,0,0,0-5.19,6.74c-.026-.185-.047-.366-.077-.555-.071-.457-.152-.915-.232-1.372a19.855,19.855,0,0,1-.45-5.064A16.279,16.279,0,0,1,96.9,509.3a44.127,44.127,0,0,1,2.611-3.98c.075.706,1.087,1.421,1.1,1.429a3.226,3.226,0,0,0,1.024.461,3.335,3.335,0,0,0,1.267.076,1.73,1.73,0,0,0,1.153-.561,1.03,1.03,0,0,0-.044-1.394,1.343,1.343,0,0,0-.59-.27h0c-.125-.032-.279-.076-.452-.125a6.055,6.055,0,0,0-2.873-.391q.252-.327.509-.649a9.687,9.687,0,0,0,1.545.588,2.479,2.479,0,0,0,.967.086,7.979,7.979,0,0,0,1.754-.555,5.328,5.328,0,0,0,1.7-.95.983.983,0,0,0,.275-1.286,1.03,1.03,0,0,0-.747-.336,8.761,8.761,0,0,0-3.5.408,2.3,2.3,0,0,0,.211-.459,10.039,10.039,0,0,0,.393-2.77c.017-.575-.289-.716-.422-.75a.664.664,0,0,0-.583.185,4.331,4.331,0,0,0-1.322,2.712l-.034.216c-.049.325-.1.6-.145.844a19.1,19.1,0,0,0-.621-2.366,1.215,1.215,0,0,0-.745-.887l-.048-.011a.917.917,0,0,0-.973.593,1.857,1.857,0,0,0-.06.976,7.759,7.759,0,0,0,.959,3.055,1.523,1.523,0,0,0,.716.634q-.392.5-.769,1.007a6.248,6.248,0,0,0-.449-1.279h0a3.11,3.11,0,0,0-1.578-1.6.92.92,0,0,0-1.038.117.792.792,0,0,0-.153.787,1.72,1.72,0,0,0,.323.545c.1.126.229.31.376.52a5.446,5.446,0,0,0,1.786,1.926q-.84,1.2-1.6,2.455a5.564,5.564,0,0,0-.577-1.514,4.791,4.791,0,0,0-2.487-2.24.289.289,0,0,0-.348.112,1.015,1.015,0,0,0-.017.894,6.729,6.729,0,0,0,2.918,3.612,16.541,16.541,0,0,0-2.4,6.643c-.02.233-.031.466-.036.7-1.45-2.479-3.647-4.114-5.99-5.769a1.459,1.459,0,0,0,.453-.317,4.439,4.439,0,0,0,1.2-2.608c.034-.4-.145-.714-.448-.763a.626.626,0,0,0-.3.026,2.112,2.112,0,0,0-1.192.995,3.847,3.847,0,0,0-.444,1.4h0a2.556,2.556,0,0,0-.019.737q-.367-.259-.736-.523a2.839,2.839,0,0,0,.556-1.61,3.172,3.172,0,0,0-.537-2.146,1.024,1.024,0,0,0-1.308-.419,1.094,1.094,0,0,0-.433.808h0c-.1.668-.19,2.558.594,3.274a1.305,1.305,0,0,0,.293.206c.516.376,1.031.741,1.541,1.1,2.776,1.956,5.4,3.8,6.809,6.96.083,1.067.268,2.125.45,3.162.079.454.159.908.231,1.362a21.978,21.978,0,0,1,.159,6.558,9.86,9.86,0,0,0-2.4-4.085c-.556-.61-1.159-1.189-1.741-1.75l-.255-.246a1.165,1.165,0,0,0,.874-.423,2.631,2.631,0,0,0,.557-1.966c-.069-.38-.338-.777-.756-.753-.2.013-.561.137-.692.827-.033.169-.076.349-.12.533a5.5,5.5,0,0,0-.215,1.44q-.256-.249-.507-.505a1.372,1.372,0,0,0,.316-.577,6.421,6.421,0,0,0-.1-3.727c-.224-.717-.625-.844-.84-.856a.925.925,0,0,0-.718.341,2.813,2.813,0,0,0-.484,2.493,4.024,4.024,0,0,0-1.513-1.882,1.313,1.313,0,0,0-1.573-.1,1.06,1.06,0,0,0-.231,1.193,2.053,2.053,0,0,0,.7.822,8.554,8.554,0,0,0,1.768.988,5.123,5.123,0,0,0,.722.216l.02.005c.085.023.167.047.245.073a26.585,26.585,0,0,0,2.4,2.521c.576.554,1.171,1.126,1.714,1.722a7.833,7.833,0,0,1,2.443,5.281.29.29,0,0,0,.218.287.3.3,0,0,0,.066.009.56.56,0,0,0,.384-.284,18.515,18.515,0,0,0,.389-6.116,12.442,12.442,0,0,1,5.337-7.835,13.994,13.994,0,0,1,2.86-1.449,23.028,23.028,0,0,1,5.468-1.377,5.475,5.475,0,0,0-.4,2.655v.166a1.95,1.95,0,0,0,.115.814.637.637,0,0,0,.412.389.477.477,0,0,0,.084.014c.135.012.47-.02.651-.563.127-.383.24-.773.337-1.158h0c0-.018.441-1.795-.094-2.427a22.223,22.223,0,0,1,2.273-.057.278.278,0,0,0,.063-.011.742.742,0,0,0,.137.15,1.159,1.159,0,0,0,.453.211,7.537,7.537,0,0,0,3.054-.265,2.129,2.129,0,0,0,1.261-.95.827.827,0,0,0,.1-.524C117.457,511.777,117.017,511.539,116.39,511.585Z" transform="translate(-79.513 -497.856)" fill="#faf5bd"/>
          <path id="Trazado_2635" data-name="Trazado 2635" d="M98.4,586.188h-.006l-.007-.033Z" transform="translate(-90.049 -563.736)" fill="#faf5bd"/>
          <path id="Trazado_2636" data-name="Trazado 2636" d="M191.746,560.847c-.072-.032-.158-.076-.254-.125-.535-.273-1.343-.687-1.814-.138-.494.579.055,1.687.332,2.246a9.257,9.257,0,0,0,1.477,2.156,2.936,2.936,0,0,0,1.279.906l.06.017a1.227,1.227,0,0,0,1.222-.3,1.518,1.518,0,0,0,.247-1.273,4.3,4.3,0,0,0-1.4-2.834A4.876,4.876,0,0,0,191.746,560.847Z" transform="translate(-158.015 -544.456)" fill="#faf5bd"/>
          <path id="Trazado_2637" data-name="Trazado 2637" d="M72.144,547.066c.1-.035.236-.077.4-.127,1.045-.319,2.793-.853,2.49-1.869a1.056,1.056,0,0,0-.54-.654,4.214,4.214,0,0,0-2.879.231,3.284,3.284,0,0,0-1.993,1.373,1.023,1.023,0,0,0,.08,1.215.838.838,0,0,0,.379.2,1.493,1.493,0,0,0,.522.025A6.656,6.656,0,0,0,72.144,547.066Z" transform="translate(-68.468 -532.46)" fill="#faf5bd"/>
          <path id="Trazado_2638" data-name="Trazado 2638" d="M66.354,534.434a14.6,14.6,0,0,0,2.1.759,2.264,2.264,0,0,0,1.519.036.617.617,0,0,0,.324-.459.763.763,0,0,0-.167-.586c-.609-.816-2.85-1.39-3.26-1.444h0a1.592,1.592,0,0,0-.743.039.834.834,0,0,0-.577.693C65.533,533.744,65.652,534.129,66.354,534.434Z" transform="translate(-65.55 -523.864)" fill="#faf5bd"/>
          <path id="Trazado_2639" data-name="Trazado 2639" d="M85.906,552.645a.97.97,0,0,0,.145,1.114.844.844,0,0,0,.378.206,1.046,1.046,0,0,0,.538-.01,1.827,1.827,0,0,0,.688-.407c.016-.013,1.542-1.444,1.152-2.125-.248-.434-.916-.205-1.167-.119a3.88,3.88,0,0,0-1.084.63A2.09,2.09,0,0,0,85.906,552.645Z" transform="translate(-80.656 -537.631)" fill="#faf5bd"/>
          <path id="Trazado_2640" data-name="Trazado 2640" d="M79.583,593.827a1.772,1.772,0,0,0,.567.033c1.406-.11,3.853-.472,4.445-1.666a.813.813,0,0,0-.054-.967c-.7-.8-3.319-.309-3.728-.17a2.445,2.445,0,0,0-1.833,1.767.933.933,0,0,0,.133.694A.8.8,0,0,0,79.583,593.827Z" transform="translate(-75.558 -567.186)" fill="#faf5bd"/>
          <path id="Trazado_2641" data-name="Trazado 2641" d="M94.372,601.34a.587.587,0,0,0,.071.682.52.52,0,0,0,.244.136.8.8,0,0,0,.159.022,2.18,2.18,0,0,0,1.32-.478,3.8,3.8,0,0,0,1.348-1.428.29.29,0,0,0-.056-.309,1.245,1.245,0,0,0-1.674-.247A3.331,3.331,0,0,0,94.372,601.34Z" transform="translate(-87.002 -573.693)" fill="#faf5bd"/>
          <path id="Trazado_2642" data-name="Trazado 2642" d="M153.627,577.007a.291.291,0,0,0,.254-.384,7.807,7.807,0,0,0-2.928-3.87h0c-.653-.451-2.864-1.859-3.89-1.034a1.023,1.023,0,0,0-.41.78c-.019.731.71,1.445,1.395,2.057l.114.1a9.074,9.074,0,0,0,3.755,2.187A5.309,5.309,0,0,0,153.627,577.007Z" transform="translate(-126.06 -552.775)" fill="#faf5bd"/>
        </g>
      </g>
      <g id="Grupo_509" data-name="Grupo 509" transform="translate(119.015 73.54)">
        <g id="Grupo_505" data-name="Grupo 505" transform="translate(28.917 0.4)">
          <g id="Grupo_499" data-name="Grupo 499" transform="translate(0 13.895)">
            <path id="Trazado_2643" data-name="Trazado 2643" d="M587.23,391.128s-.705-1.856-1.529-1.686a5.631,5.631,0,0,0-1.725.8l-1.323,1.789s3.715,1.463,5.021.625a28.583,28.583,0,0,0,8.586-.131,18.769,18.769,0,0,1-1.35-4.068A19.993,19.993,0,0,1,587.23,391.128Z" transform="translate(-582.653 -377.667)" fill="url(#linear-gradient-5)"/>
            <path id="Trazado_2644" data-name="Trazado 2644" d="M601.123,360.945a28.587,28.587,0,0,0,8.585-.13,22.43,22.43,0,0,0,11.374-5.167l-.305-9.7a49.57,49.57,0,0,1-12.418,10.8,19.987,19.987,0,0,1-7.68,2.668Z" transform="translate(-596.102 -345.95)" fill="#eceee3"/>
          </g>
          <path id="Trazado_2645" data-name="Trazado 2645" d="M684.616,373.121c-1.062-5.046-2.125-7.968-5.682-17.532-1.119-3.01-2.136-6.055-1.645-9.229l.552-3.564a26.694,26.694,0,0,1,14.576-.1s10.454,4.541,3.354,26.971C692.57,373.249,688.824,374.269,684.616,373.121Z" transform="translate(-653.167 -328.903)" fill="#eceee3"/>
          <path id="Trazado_2646" data-name="Trazado 2646" d="M684.471,324.658l1.793,4.306a.858.858,0,0,0,.648.516c1.033.177,3.533.454,5.174-.625a.417.417,0,0,0,.112-.587l-3.312-4.754Z" transform="translate(-658.62 -315.315)" fill="url(#linear-gradient-6)"/>
          <g id="Grupo_500" data-name="Grupo 500" transform="translate(23.551)">
            <path id="Trazado_2647" data-name="Trazado 2647" d="M682.436,301.383c-.075.071-3.177,6.162-3.177,6.162l3.516,1.7,3.8-5.336S683.7,300.2,682.436,301.383Z" transform="translate(-678.283 -298.629)" fill="url(#linear-gradient-7)"/>
            <path id="Trazado_2648" data-name="Trazado 2648" d="M682.1,297.14l-1.753,2.923a.55.55,0,0,1-.1.12.92.92,0,0,1-1.475-.01,4.943,4.943,0,0,0-1.385-1.5.561.561,0,0,0-.757.249,20.921,20.921,0,0,0-1.2,2.847.558.558,0,0,0,.325.684,15.539,15.539,0,0,0,3.367.982.56.56,0,0,0,.53-.225c.537-.736,2.051-2.792,2.568-3.307.48-.478,1.366-.3,1.765-.183a.564.564,0,0,0,.448-.059,1.236,1.236,0,0,0,.465-1.88.561.561,0,0,1,.173-.762,1.241,1.241,0,0,0,.476-1.76,1.75,1.75,0,0,0-1.894-.927.582.582,0,0,1-.611-.34.371.371,0,0,0-.29-.228.545.545,0,0,1-.44-.639,1.436,1.436,0,0,0-.8-1.646c-1.517-.834-2.845.525-3.183,1.672s1.358,1.958,2.425,2.093c.784.1,1.213.955,1.386,1.4A.561.561,0,0,1,682.1,297.14Z" transform="translate(-675.413 -291.223)"/>
            <path id="Trazado_2649" data-name="Trazado 2649" d="M699.35,323.856s.755-1.775,1.618-1.7,1.543.933.473,1.9A1.238,1.238,0,0,1,699.35,323.856Z" transform="translate(-693.272 -314.298)" fill="url(#linear-gradient-8)"/>
          </g>
          <g id="Grupo_501" data-name="Grupo 501" transform="translate(30.493 82.915)">
            <path id="Trazado_2650" data-name="Trazado 2650" d="M703.03,640.534c1.669.145,4.567.379,6.852.479a6.6,6.6,0,0,0,2.619-.256c0,.051,0,.1,0,.145a.473.473,0,0,1-.449.446,80.237,80.237,0,0,1-8.971.009.336.336,0,0,1-.274-.505A2.748,2.748,0,0,1,703.03,640.534Z" transform="translate(-702.755 -634.76)" fill="#353535"/>
            <path id="Trazado_2651" data-name="Trazado 2651" d="M710.691,631.107c-2.285-.1-5.182-.335-6.852-.479,1.642-2.014,6.852-3.371,6.852-3.371h1.471a6.171,6.171,0,0,1,1.148,3.594A6.6,6.6,0,0,1,710.691,631.107Z" transform="translate(-703.564 -624.854)" fill="#353535"/>
            <path id="Trazado_2652" data-name="Trazado 2652" d="M729.529,617.794l-.138,2.725a.622.622,0,0,1-.531.585,2.421,2.421,0,0,1-1.105-.091.737.737,0,0,1-.495-.566l-.476-2.653Z" transform="translate(-720.683 -617.794)" fill="url(#linear-gradient-9)"/>
          </g>
          <g id="Grupo_503" data-name="Grupo 503" transform="translate(53.511 80.368)">
            <g id="Grupo_502" data-name="Grupo 502" transform="translate(0.648 2.529)">
              <path id="Trazado_2653" data-name="Trazado 2653" d="M805.473,639.758a1.321,1.321,0,0,0,1.189-.879l0,.011a.941.941,0,0,1-.634,1.073,4.141,4.141,0,0,1-1.756.275,1.744,1.744,0,0,1-1.316-.607l0-.005A4.419,4.419,0,0,0,805.473,639.758Z" transform="translate(-801.181 -633.508)" fill="#353535"/>
              <path id="Trazado_2654" data-name="Trazado 2654" d="M796.845,617.725h1.214c1.848-.038,3.009,3.861,3.389,5.371a1.322,1.322,0,0,1-1.189.879,4.42,4.42,0,0,1-2.518-.133,11.59,11.59,0,0,1-1.732-4.362A1.531,1.531,0,0,1,796.845,617.725Z" transform="translate(-795.966 -617.725)" fill="#353535"/>
            </g>
            <path id="Trazado_2655" data-name="Trazado 2655" d="M796,607.764l.674,2.68a.727.727,0,0,1-.378.824,2.582,2.582,0,0,1-1.4.338.608.608,0,0,1-.5-.405l-.989-2.82Z" transform="translate(-793.413 -607.764)" fill="url(#linear-gradient-10)"/>
          </g>
          <path id="Trazado_2656" data-name="Trazado 2656" d="M731.189,492.591c-.838.744-3.565.842-3.565.842-9.823-23.576-13.918-30.066-13.918-30.066,1.418,8.9.306,31.74.306,31.74a5.894,5.894,0,0,1-3.711,0c-.132-14.568-2.183-30.222-4.828-40.238,6.639-.149,10.247-1.6,11.4-2.508C722.407,461.282,731.189,492.591,731.189,492.591Z" transform="translate(-674.29 -411.448)" fill="#999"/>
          <path id="Trazado_2657" data-name="Trazado 2657" d="M732.515,420.426a8.6,8.6,0,0,1-2.249,1.193.45.45,0,0,0-.21.107c-.015.391,1.188.825,1.5.928a3.45,3.45,0,0,0,1.447.168,4.278,4.278,0,0,0,2.979-1.97,21.241,21.241,0,0,0,2.973-8.43c-1.621-1.62-4.068-1.21-5.047-.924a22.688,22.688,0,0,1,.6,6.616s0,.353-.653,1.171A8.423,8.423,0,0,1,732.515,420.426Z" transform="translate(-692.631 -380.762)" fill="url(#linear-gradient-11)"/>
          <g id="Grupo_504" data-name="Grupo 504" transform="translate(35.612 14.642)">
            <path id="Trazado_2658" data-name="Trazado 2658" d="M733.625,366.168c1.293-9.765-6.233-17.274-6.233-17.274l-4.478,5.22a28.7,28.7,0,0,1,5.753,11.169C729.647,365,732,364.547,733.625,366.168Z" transform="translate(-722.915 -348.894)" fill="#eceee3"/>
          </g>
        </g>
        <g id="Grupo_506" data-name="Grupo 506" transform="translate(0.267 41.43)">
          <path id="Trazado_2659" data-name="Trazado 2659" d="M487.536,627.221a.545.545,0,0,0-.015-.145c-.72-2.855-4.294-4.633-4.294-4.633l-1.416.111a9.823,9.823,0,0,0-.579,4.747c0,.019.01.038.015.056A33.6,33.6,0,0,0,487.536,627.221Z" transform="translate(-478.265 -579.378)" fill="#353535"/>
          <path id="Trazado_2660" data-name="Trazado 2660" d="M481.553,641.4a.614.614,0,0,0,.449.454,19.424,19.424,0,0,0,5.412-.077.515.515,0,0,0,.428-.514A33.608,33.608,0,0,1,481.553,641.4Z" transform="translate(-478.571 -593.417)" fill="#999"/>
          <path id="Trazado_2661" data-name="Trazado 2661" d="M481.532,614.573l.6,2.888a.472.472,0,0,0,.4.389,4.014,4.014,0,0,0,.929-.015.593.593,0,0,0,.47-.7l-.417-2.564Z" transform="translate(-478.555 -573.506)" fill="url(#linear-gradient-12)"/>
          <path id="Trazado_2662" data-name="Trazado 2662" d="M522.277,640.482a8.454,8.454,0,0,1-2.791-.4c0,.155,0,.314,0,.478a.309.309,0,0,0,.295.314l8.588-.056a.392.392,0,0,0,.315-.571C527.563,640.341,524.7,640.55,522.277,640.482Z" transform="translate(-506.873 -592.539)" fill="#999"/>
          <path id="Trazado_2663" data-name="Trazado 2663" d="M528.69,628.369a.424.424,0,0,0-.034-.065,10.944,10.944,0,0,0-6.507-4.085l-1.831-.058a8.789,8.789,0,0,0-.831,4.043,8.457,8.457,0,0,0,2.791.4C524.7,628.67,527.564,628.462,528.69,628.369Z" transform="translate(-506.874 -580.66)" fill="#353535"/>
          <path id="Trazado_2664" data-name="Trazado 2664" d="M521.1,611.825c.029.135.41,2.19.558,2.987a.4.4,0,0,0,.358.338,4.187,4.187,0,0,0,1.254-.1.542.542,0,0,0,.375-.569l-.2-3.25Z" transform="translate(-508.078 -571.014)" fill="url(#linear-gradient-13)"/>
          <path id="Trazado_2665" data-name="Trazado 2665" d="M481.443,455.7s2.519,17.309,4.337,37.907a.785.785,0,0,1-.649.8,9.51,9.51,0,0,1-2.047.237.759.759,0,0,1-.723-.633c-.619-3.631-5.038-23.123-6.2-27.412,0,0-1.332,18.222-.906,27.676a.448.448,0,0,1-.4.466,7.522,7.522,0,0,1-1.644,0,.6.6,0,0,1-.534-.509c-.441-3.073-2.98-21.369-2.872-34.548.006-.743.872-6.85.872-6.85Z" transform="translate(-469.808 -452.825)" fill="#353535"/>
        </g>
        <path id="Trazado_2666" data-name="Trazado 2666" d="M469.521,372.282a.713.713,0,0,1-.468-.6c-.335-3.25-1.957-23.4,8.283-31.689,0,0,.587-1.536,5.414,2.24s2.242,7.735,1.087,13.195c-1.4,6.607-3.852,12.008-2.766,16.073a.564.564,0,0,1-.345.676A15.989,15.989,0,0,1,469.521,372.282Z" transform="translate(-468.758 -326.979)" fill="#ededed"/>
        <path id="Trazado_2667" data-name="Trazado 2667" d="M506.251,317.121c0,.287-4.092,6.094-4.092,6.094s.734,1.445,4.237,2.619l3.024-6.218Z" transform="translate(-493.679 -310.145)" fill="url(#linear-gradient-14)"/>
        <g id="Grupo_507" data-name="Grupo 507" transform="translate(7.346)">
          <path id="Trazado_2668" data-name="Trazado 2668" d="M513.808,304.014a21.429,21.429,0,0,1,1.553,5.1c.1,1.754.476,2.892-1.553,3.246a4.312,4.312,0,0,1-4.663-2.4s-1.45-2.692-1.125-3.795S513.808,304.014,513.808,304.014Z" transform="translate(-505.363 -300.366)" fill="url(#linear-gradient-15)"/>
          <path id="Trazado_2669" data-name="Trazado 2669" d="M502.168,297.975l.116-.051a.278.278,0,0,0,.136-.382c-.286-.552-.844-1.819-.123-2.114.928-.381,4.605-1.131,5.4-2.435a2.428,2.428,0,0,0-.928-3.333.14.14,0,0,0-.183.06l-.085.16a.138.138,0,0,1-.254-.026h0a.137.137,0,0,0-.248-.036c-.244.39-.9,1.023-2.663,1.348-2.5.462-4.157,1.474-4.2,3.2a.138.138,0,0,1-.213.114c-.185-.113-.48-.166-.875.167-.687.578-.406,2.077,1.1,3.31a.137.137,0,0,1-.007.221c-.273.178-.68.6.375,1.165a3.552,3.552,0,0,0,2.22.483.137.137,0,0,0,.111-.166l-.335-1.52a.138.138,0,0,1,.135-.167Z" transform="translate(-497.693 -289.646)" fill="#2d1d0f"/>
          <path id="Trazado_2670" data-name="Trazado 2670" d="M510.2,318.888s-.555-2.135-1.512-1.536.5,2.392,1.266,2.472Z" transform="translate(-505.66 -310.239)" fill="url(#linear-gradient-16)"/>
        </g>
        <g id="Grupo_508" data-name="Grupo 508" transform="translate(15.545 15.882)">
          <path id="Trazado_2671" data-name="Trazado 2671" d="M529.983,356.627l.282,7.571a20.792,20.792,0,0,0,2.289.65,22.875,22.875,0,0,1,2.272-4.59A11.224,11.224,0,0,1,529.983,356.627Z" transform="translate(-529.983 -355.502)" fill="#ededed"/>
          <path id="Trazado_2672" data-name="Trazado 2672" d="M552.556,356.12c-4.126,4.455-7.466,4.717-10.174,3.76a22.872,22.872,0,0,0-2.273,4.59c11.019,2.43,13.614-7.7,13.614-7.7Z" transform="translate(-537.538 -355.124)" fill="url(#linear-gradient-17)"/>
          <path id="Trazado_2673" data-name="Trazado 2673" d="M592.428,352.72a1.512,1.512,0,0,1,1.355-.35c.88.16,1.663.466,2.211,0s.741.159.741.159l-1.641,1.248Z" transform="translate(-576.573 -352.198)" fill="url(#linear-gradient-18)"/>
          <path id="Trazado_2674" data-name="Trazado 2674" d="M588.561,354.188s.326-1.362,1.307-1.175,3.209,1.4,3.784,1.175,1.309-.758,1.685-.569l-.664.825s1.706-.984,2-.379l-2.838,1.6S589.682,355.246,588.561,354.188Z" transform="translate(-573.688 -352.792)" fill="url(#linear-gradient-19)"/>
        </g>
        <path id="Trazado_2675" data-name="Trazado 2675" d="M511.943,381.273s7.757,6.5,16.134,3.662a2,2,0,0,1,1.573.119l2.408,1.272a2.149,2.149,0,0,0,2.849-.8,4.526,4.526,0,0,0,.677-1.811l-4.712-1.908.347-.578s-2.3-.2-2.9,1.454c0,0-4.382,1.823-11.772-6.306A28.678,28.678,0,0,0,511.943,381.273Z" transform="translate(-500.978 -354.358)" fill="url(#linear-gradient-20)"/>
      </g>
      <g id="Grupo_510" data-name="Grupo 510" transform="translate(11.109 45.757)">
        <path id="Trazado_2179-3" data-name="Trazado 2179" d="M89.556,303.664h-.9c-.425-7.963-.732-15.584,0-20.215h.9Z" transform="translate(-76.927 -257.24)" fill="#ececec"/>
        <ellipse id="Elipse_90" data-name="Elipse 90" cx="11.959" cy="16.814" rx="11.959" ry="16.814" fill="#eceee3"/>
      </g>
    </g>
  </g>
</svg>
