<svg xmlns="http://www.w3.org/2000/svg" width="300" height="189.2" viewBox="0 0 300 189.2">
  <g id="Ilustración_7" data-name="Ilustración 7" transform="translate(150 94.6)">
    <g id="Grupo_1652" data-name="Grupo 1652" transform="translate(-150 -94.6)">
      <path id="Trazado_3859" data-name="Trazado 3859" d="M31.095,407.154c-8.9-.122-15.982,1.412-21.869-6.076C3.052,393.228,0,383,0,373.079c0-13.354,5.119-26.332,12.514-37.451C16,330.384,20.09,325.4,25.352,321.94c8.6-5.657,19.334-6.685,29.59-7.554l44.848-3.8c5.111-.433,10.312-.887,15.065-2.816,5.79-2.35,10.534-6.736,16.176-9.422,15.915-7.579,34.471-.324,52.018,1.347A80.575,80.575,0,0,0,211,297.444c7.149-1.869,14.045-4.725,21.316-6.041,6.881-1.245,13.93-1.082,20.921-.913,4.167.1,8.477.233,12.238,2.028,4.59,2.19,7.711,6.53,10.631,10.694L288.9,321.453c2.5,3.572,5.034,7.191,6.587,11.267,1.878,4.928,2.24,10.282,2.582,15.544,1.05,16.133.876,13.461,1.926,29.594.18,2.759-2.468,19.139-3.7,21.614-2.626,5.275-5.744,7.761-11.636,7.68Z" transform="translate(0 -218.007)" fill="#fdfbe5"/>
      <path id="Trazado_2179" data-name="Trazado 2179" d="M843.144,551.716h-3.054c-1.446-27.074-2.488-52.983,0-68.726h3.054Z" transform="translate(-629.594 -362.618)" fill="#ececec"/>
      <path id="Trazado_2178" data-name="Trazado 2178" d="M744.54,93.489q.152-.083.3-.172l.748-3.583a3.677,3.677,0,0,0,5.492-.547A93.27,93.27,0,0,0,735.6,65.994a8.359,8.359,0,0,1-.12-11.088l.072-.085a39.56,39.56,0,0,0,9.991-5.046C735,32.835,714.892,19.375,710.112,0c-14.378,15.441-15.992,20.879-30.371,36.32,0,0-13.615,12.285-16.553,18.888.722.758,7.186,2.578,7.435,4.07,4.93.4,13.471-5.008,13.471-5.008s-18.641,19.874-24.3,32.115a4.68,4.68,0,0,0-.567,3.5,1.912,1.912,0,0,0,2.352,1.071,10.082,10.082,0,0,0-2.224,3.184,8.661,8.661,0,0,0,10.685-1.076l-2.365,4.418v0a6.44,6.44,0,0,1,2.387,10.834c-4.892,4.55-9.362,9.332-11,12.481-1.541,2.963,14.28,6.534,17.839,6.388s6.885-1.71,10.1-3.245a7.474,7.474,0,0,0,.806,4.251,13.6,13.6,0,0,0,10.412-1.683c-.192,3.962,6.638,5.532,8.2,1.882-.584,2.146,2.255,3.474,4.445,3.863,6.248,1.109,13.787,1.783,17.852-3.088,4.679,4.718,13.253,4.628,17.9-.073a1.83,1.83,0,0,0,1.28,2.391c1.221.253,2.41-.473,3.447-1.166l14.086-9.415-21.616-14.574A7.505,7.505,0,0,1,744.54,93.489Z" transform="translate(-494.728)" fill="#eceee3"/>
      <rect id="Rectángulo_104" data-name="Rectángulo 104" width="6.096" height="3.725" transform="translate(166.54 89.894)" fill="#ceb1ac"/>
      <rect id="Rectángulo_100" data-name="Rectángulo 100" width="2.185" height="45.167" transform="translate(163.375 146.914) rotate(-21.51)" fill="#ececec"/>
      <rect id="Rectángulo_101" data-name="Rectángulo 101" width="45.167" height="2.185" transform="translate(151.96 188.134) rotate(-68.49)" fill="#ececec"/>
      <ellipse id="Elipse_66" data-name="Elipse 66" cx="14.449" cy="5.585" rx="14.449" ry="5.585" transform="translate(153.281 139.47)" fill="#ececec"/>
      <path id="Trazado_2182" data-name="Trazado 2182" d="M623.53,546.685l-23.117-2.773a8.189,8.189,0,1,1,1.95-16.262h0l23.117,2.773a8.189,8.189,0,0,1-1.95,16.262Z" transform="translate(-445.359 -396.103)" fill="#353535"/>
      <path id="Trazado_2183" data-name="Trazado 2183" d="M646.3,369.6l3.387,3.285,4.331,1.921c-.215.149-.951,8.882-1.077,16.685-.094,5.791.164,11.081,1.274,11.564,2.188.952-.042,1.74.034,3.956s.359,6.775.359,6.775c-12.025,4.629-16.692,5.078-23.683-2.865a1.965,1.965,0,0,1,1.328-2.074c1.55-.6-.818-4.543.446-5s.216-5.9.216-5.9L630.229,385.7l-.659-1.85,3.4-10.429,3.837-.9,1.893-3.362Z" transform="translate(-472.666 -277.155)" fill="#989898"/>
      <path id="Trazado_2184" data-name="Trazado 2184" d="M532.831,462.9a3.257,3.257,0,0,1,4.905.927l11.39-2.029-2.378,5.52L536.3,468.4a3.273,3.273,0,0,1-3.465-5.5Z" transform="translate(-399.126 -346.706)" fill="#ceb1ac"/>
      <path id="Trazado_2185" data-name="Trazado 2185" d="M562.2,409.545c1,1.033,1.982.909,2.95-.163l13.554-.749.042-.079c.048-.09,2.9-5.5,5.438-10.567.39-.779.773-1.552,1.136-2.294q.235-.481.459-.944c1.006-2.083,1.807-3.843,2.12-4.768a9.609,9.609,0,0,0-.016-6.391l-.021-.05-.047-.027a4.877,4.877,0,0,0-6.026.945,34.545,34.545,0,0,0-7.637,13.884l-.813,2.934-8.389,2.078a1.475,1.475,0,0,0-2.175.539Z" transform="translate(-422.084 -287.448)" fill="#989898"/>
      <path id="Trazado_2186" data-name="Trazado 2186" d="M615.034,679.447l2.879,2.626,11.5-9.853-4.249-3.876Z" transform="translate(-461.753 -501.777)" fill="#ceb1ac"/>
      <path id="Trazado_2187" data-name="Trazado 2187" d="M605.274,706.433l.81.739,4.337,1.6.522,2.833h0a4.891,4.891,0,0,1,.316,6.909l-.107.117-9.282-8.469Z" transform="translate(-451.87 -530.373)" fill="#353535"/>
      <path id="Trazado_2188" data-name="Trazado 2188" d="M651.284,550.71l-2.485-4.8a8.515,8.515,0,0,1,9.259-8.169c2.695.271,5.167,1.874,6.046,6.4,2.259,11.644-24.994,34.69-24.994,34.69l-4.733-3.173-.106-3.171,2.775-1.571.1-2.7,2.632-1.131Z" transform="translate(-476.196 -403.693)" fill="#353535"/>
      <ellipse id="Elipse_67" data-name="Elipse 67" cx="7.429" cy="7.429" rx="7.429" ry="7.429" transform="translate(160.335 75.834)" fill="#ceb1ac"/>
      <path id="Trazado_2189" data-name="Trazado 2189" d="M657.75,672.171l-3.251,2.146-9.826-11.525,4.8-3.167Z" transform="translate(-484.005 -495.231)" fill="#ceb1ac"/>
      <path id="Trazado_2190" data-name="Trazado 2190" d="M674.526,707.726l-10.488,6.92-.087-.133a4.891,4.891,0,0,1,1.388-6.776h0l.957-2.718,4.534-.9.914-.6Z" transform="translate(-497.871 -528.18)" fill="#353535"/>
      <path id="Trazado_2191" data-name="Trazado 2191" d="M600.625,544.273l3.076-5a8.515,8.515,0,0,0-7.874-9.512c-2.7-.154-5.4,1.046-6.969,5.382-4.045,11.15,19.285,38.161,19.285,38.161l5.169-2.4.6-3.116-2.5-1.985.319-2.68-2.424-1.528Z" transform="translate(-441.746 -397.722)" fill="#353535"/>
      <path id="Trazado_2192" data-name="Trazado 2192" d="M658.85,340.321q.01-.144.02-.288A.561.561,0,0,0,658.85,340.321Z" transform="translate(-494.641 -255.289)" fill="#2f2e40"/>
      <path id="Trazado_2193" data-name="Trazado 2193" d="M658.5,305.572a6.866,6.866,0,0,0-4.864-5.15,4.3,4.3,0,0,0-3.1-2.055,8.264,8.264,0,0,0-3.543.561q-1.065.339-2.125.694c-.576.193-1.282.634-1.091,1.21a.743.743,0,0,0-.969,1.06c-.267-.344-.883-.123-1.032.286a1.528,1.528,0,0,0,.243,1.24,5.677,5.677,0,0,0,6.482,2.487,4.113,4.113,0,0,1,2.144-.44,2.021,2.021,0,0,1,1.364,1.462,5.235,5.235,0,0,1,.114,1.795.877.877,0,0,1,1.15-.46,1.335,1.335,0,0,1,.571,1.492,18,18,0,0,1-1.816,3.184,3.808,3.808,0,0,0-.832,1.49l3.8-.584.068.068C657.029,312.389,658.993,308.01,658.5,305.572Z" transform="translate(-481.799 -223.978)"/>
      <path id="Trazado_2194" data-name="Trazado 2194" d="M635.253,510.591a3.256,3.256,0,0,1,4.739-1.57l8.975-7.3.6,5.982-8.613,6.017a3.273,3.273,0,0,1-5.7-3.127Z" transform="translate(-476.756 -376.679)" fill="#ceb1ac"/>
      <path id="Trazado_2195" data-name="Trazado 2195" d="M687.022,425.037c1.081.387,1.917.1,2.259-1.548l10.172-6.969,0-.089c1.327-.1,1.023-19.72-1.012-20.679a9.608,9.608,0,0,0-3.116-5.58l-.043-.034h-.054a4.877,4.877,0,0,0-4.809,3.751,34.543,34.543,0,0,0,.062,15.845l.713,2.96-4.441,3.759c-1.227-.321-1.771.173-1.682,1.423Z" transform="translate(-514.328 -292.906)" fill="#989898"/>
      <rect id="Rectángulo_102" data-name="Rectángulo 102" width="2.039" height="42.144" transform="translate(85.072 149.728) rotate(-21.51)" fill="#ececec"/>
      <rect id="Rectángulo_103" data-name="Rectángulo 103" width="42.144" height="2.039" transform="translate(74.421 188.187) rotate(-68.49)" fill="#ececec"/>
      <ellipse id="Elipse_68" data-name="Elipse 68" cx="13.481" cy="5.211" rx="13.481" ry="5.211" transform="translate(74.146 145.723)" fill="#ececec"/>
      <path id="Trazado_2196" data-name="Trazado 2196" d="M318.507,339.192a7.3,7.3,0,0,0,8.357,6.056q.325-.052.641-.132a7.3,7.3,0,1,0-9-5.924Z" transform="translate(-239.058 -248.314)" fill="#ceb1ac"/>
      <path id="Trazado_2197" data-name="Trazado 2197" d="M465.424,691.557l3.278-.974-2.168-13.4-4.838,1.438Z" transform="translate(-346.631 -508.415)" fill="#ceb1ac"/>
      <path id="Trazado_2198" data-name="Trazado 2198" d="M396,678.836c.2.174.4.345.6.518.4.343.809.683,1.218,1.019.205.169.412.336.618.5v.007l.013,0,0,0,.331.14.7-1.229.324-.566.457-.8.838-1.466,4.411-7.722-4.649-1.959-.3.711h0l-.148.353-2.775,6.585-.566,1.346-.018.041-.341.8-.294.7-.327.779Z" transform="translate(-297.311 -500.982)" fill="#ceb1ac"/>
      <path id="Trazado_2199" data-name="Trazado 2199" d="M298.085,536.891c.229.542.464,1.081.7,1.616q.665,1.5,1.383,2.958s0,0,0,.005a6.4,6.4,0,0,0,1.05,1.054.623.623,0,0,0,.051.042,4.43,4.43,0,0,0,.935.559l.363.154c.435.179.868.342,1.3.493q1.155.4,2.306.677c.062.017.124.031.185.045a36.856,36.856,0,0,0,9.695.753c1.655-.05,3.353-.155,5.112-.264.576-.037,1.151-.072,1.735-.106l.135-.008c.834-.049,1.68-.094,2.547-.133,1.09-.05,2.214-.088,3.378-.107l-.333,1.583a12.162,12.162,0,0,1-1.324,3.468,6.266,6.266,0,0,0-.828,4.853l.211,1.19a3.9,3.9,0,0,0-.144,3.471l.06.131-4.549,7.7-.295.5,1.663.263,2.045.326,3.466.549,6.591-9.242.315-.44,0-.025,2.537-19.366c.02-.171.034-.345.039-.519a5.936,5.936,0,0,0-1.606-4.3,5.717,5.717,0,0,0-4.023-1.816l-1.747-.049-3.569-.1-2.515-.07h-.05l-7.415-.211-.185-2.209-.09-.051-2.882-1.606-9.967-5.554-.025-.013-.656-.366-.1.121c-.031.036-.062.073-.091.109a20.993,20.993,0,0,0-2.286,3.616A61.622,61.622,0,0,0,298.395,533q-.053.143-.1.26l-.01.024c-.013.037-.021.061-.024.068A6.319,6.319,0,0,0,298.085,536.891Z" transform="translate(-223.672 -392.448)" fill="#353535"/>
      <path id="Trazado_2200" data-name="Trazado 2200" d="M299.927,521.31c.056-.138.122-.277.189-.41a30.958,30.958,0,0,1,1.737-2.941c.711-1.08,1.543-2.226,2.511-3.456q.7-.893,1.5-1.852.4-.481.827-.977a.573.573,0,0,1,.037-.045l.082-.1,10.247,3.059,3,1.13.743,1.988-.02.49s0,0,0,0l-.051,1.336v0l-.068,1.765h.018l5.9.167,6.084.172,3.268.093a5.714,5.714,0,0,1,4.023,1.816,5.939,5.939,0,0,1,1.606,4.3c0,.16-.017.323-.034.483l1.887,7.638a46.762,46.762,0,0,1,1.287,13.977l1.094,7.434-.32-.021-4.764-.307-1.258-.08-2.1-4.418c-.239-.5-.461-1.018-.66-1.541a21.558,21.558,0,0,1-.822-2.617l-3.68-14.99q-.7.009-1.392.009-3.184.012-6.092-.123a71.059,71.059,0,0,1-16.353-2.427q-1.972-.563-3.785-1.26-.665-.254-1.309-.526c-.1-.041-.2-.082-.3-.125a5.782,5.782,0,0,1-3.4-4.365,5.9,5.9,0,0,1,.369-3.285Z" transform="translate(-224.836 -384.045)" fill="#353535"/>
      <path id="Trazado_2201" data-name="Trazado 2201" d="M471.478,722.2l3.546-1.058.557-.167.5,2.158,5.564,2.182a1.385,1.385,0,0,1-.189,2.638l-6,1.406-1.533-1.892.1,2.229-2.259.53-1.151-7.769Z" transform="translate(-353.328 -541.293)" fill="#353535"/>
      <path id="Trazado_2202" data-name="Trazado 2202" d="M402.036,700.485l-.295.5.21.034Z" transform="translate(-301.618 -525.908)" fill="#2f2e40"/>
      <path id="Trazado_2203" data-name="Trazado 2203" d="M382.578,702.526l3.265,1.744.512.273-1.16,1.889,2.418,5.465a1.385,1.385,0,0,1-1.99,1.742l-5.249-3.22.242-2.423-1.5,1.652-1.978-1.213,4.647-6.333Z" transform="translate(-283.146 -527.121)" fill="#353535"/>
      <path id="Trazado_2204" data-name="Trazado 2204" d="M454.975,512.31a2.485,2.485,0,0,1-3.193-2.076l-8.626-1.869,3.279-3.208,7.688,2.267a2.5,2.5,0,0,1,.852,4.886Z" transform="translate(-332.711 -379.26)" fill="#ceb1ac"/>
      <rect id="Rectángulo_105" data-name="Rectángulo 105" width="6.096" height="3.725" transform="translate(82.548 96.667)" fill="#ceb1ac"/>
      <path id="Trazado_2205" data-name="Trazado 2205" d="M342.5,443.495l-15.925-13.608a6.269,6.269,0,0,1-.692-8.829h0a6.262,6.262,0,0,1,9.629.13l11.694,14.459,15.685,4.234-.406,5.182Z" transform="translate(-243.543 -314.473)" fill="#d1d6bc"/>
      <path id="Trazado_2206" data-name="Trazado 2206" d="M299.868,415.5l-.339,12.351c-4.64,7.841-5.169,11.649-3.884,13.679l21.54-7.244.322-.768-1.46-5.245,1.807-5.694c.318-.595,4.637-4.25.588-11.184L310.3,400.421l-2.945-.237a7.369,7.369,0,0,1-4.655,4.768C298.315,408.971,298.959,409.625,299.868,415.5Z" transform="translate(-221.51 -300.449)" fill="#d1d6bc"/>
      <path id="Trazado_2207" data-name="Trazado 2207" d="M302.337,327.182a2.471,2.471,0,0,1-1.348,1.445,11.587,11.587,0,0,0-1.609-1.269,9.607,9.607,0,0,1,.61,1.573l-.032,0a8.256,8.256,0,0,1-3.082-.373l.141.129a4.256,4.256,0,0,1-2.415,3.883c-.809.373-1.876.63-2.076,1.5-.177.766.487,1.452,1.126,1.908s1.386.954,1.49,1.733c.169,1.269-1.459,2.073-1.736,3.322a2.817,2.817,0,0,0,1.5,2.7,11.682,11.682,0,0,1,2.68,1.876c1.244,1.493.843,3.875-.44,5.336a5.186,5.186,0,0,1-.444.451,11.281,11.281,0,0,0-1.149-1.246,11.586,11.586,0,0,0-1.609-1.269,9.6,9.6,0,0,1,.61,1.572,10.175,10.175,0,0,1,.388,2.13,14.075,14.075,0,0,1-2.889,1,28.109,28.109,0,0,1-7.672.789,14.132,14.132,0,0,1-3.488-.494,11.769,11.769,0,0,0,.446-5.1,10.172,10.172,0,0,1-2.913,3.865,5,5,0,0,1-1.983-3.356,7.282,7.282,0,0,1,1.579-4.579,14.562,14.562,0,0,0,2.377-4.305c.589-2.329-.311-4.751-.426-7.151A10.973,10.973,0,0,1,290.4,321.768q.414-.02.828-.009a21.976,21.976,0,0,1,4.035.616c.718.154,1.434.311,2.153.464a14.5,14.5,0,0,1,2.6.739,4.459,4.459,0,0,1,1.869,1.38,2.558,2.558,0,0,1,.451,2.223Z" transform="translate(-207.528 -241.566)" fill="#3f291b"/>
      <path id="Trazado_2208" data-name="Trazado 2208" d="M397.284,508.044H274.2v-.136a5.581,5.581,0,0,1,5.574-5.576H391.71a5.581,5.581,0,0,1,5.574,5.574Z" transform="translate(-205.867 -377.139)" fill="#ececec"/>
      <path id="Trazado_2209" data-name="Trazado 2209" d="M760.478,577.631l-1.9.779-15.453-58.956,1.9-.779Z" transform="translate(-557.923 -389.409)" fill="#ececec"/>
      <path id="Trazado_2210" data-name="Trazado 2210" d="M700.4,577.634l1.9.779,15.452-58.955-1.9-.779Z" transform="translate(-525.843 -389.412)" fill="#ececec"/>
      <path id="Trazado_2211" data-name="Trazado 2211" d="M296.843,577.631l-1.9.779-15.453-58.956,1.9-.779Z" transform="translate(-209.838 -389.409)" fill="#ececec"/>
      <path id="Trazado_2212" data-name="Trazado 2212" d="M236.764,577.634l1.9.779,15.452-58.955-1.9-.779Z" transform="translate(-177.757 -389.412)" fill="#ececec"/>
      <path id="Trazado_2213" data-name="Trazado 2213" d="M553.074,481.368a.818.818,0,0,0-.627-1.062.745.745,0,0,0-.129-.016l-5.238-.136a.842.842,0,0,0-.627.271,1.069,1.069,0,0,0-.223-.023,1.242,1.242,0,0,0-.062,2.483,1.257,1.257,0,0,0,.545-.112l.482,5.153a.813.813,0,0,0,.769.6l3.405.088a.824.824,0,0,0,.795-.557Zm-6.9,1.161a.888.888,0,0,1,.042-1.776c.017,0,.031.008.048.008a.833.833,0,0,0,0,.434l.343,1.228a.836.836,0,0,1-.435.106Z" transform="translate(-409.154 -360.488)" fill="#f6e164"/>
      <path id="Trazado_2214" data-name="Trazado 2214" d="M558.08,481.667c-.112.638-1.366,1.087-2.875,1.008-1.389-.064-2.522-.551-2.729-1.128a.771.771,0,0,1,.237-.032l5.238.136A.729.729,0,0,1,558.08,481.667Z" transform="translate(-414.785 -361.51)" fill="#fff"/>
      <path id="Trazado_2215" data-name="Trazado 2215" d="M474.815,473.186a.818.818,0,0,0-.518-1.035.773.773,0,0,0-.108-.028.752.752,0,0,0-.129-.016l-5.238-.136a.842.842,0,0,0-.627.271,1.069,1.069,0,0,0-.223-.023,1.242,1.242,0,0,0-.1,2.482h.034a1.261,1.261,0,0,0,.545-.112l.482,5.153a.812.812,0,0,0,.769.6l3.405.088a.824.824,0,0,0,.795-.557Zm-6.9,1.161a.888.888,0,1,1,.016-1.777h.025c.017,0,.031.008.048.008a.84.84,0,0,0,0,.434l.343,1.228a.84.84,0,0,1-.435.107Z" transform="translate(-350.373 -354.345)" fill="#f6e164"/>
      <path id="Trazado_2216" data-name="Trazado 2216" d="M479.922,473.484c-.111.638-1.366,1.087-2.875,1.009-1.388-.064-2.522-.551-2.729-1.128a.773.773,0,0,1,.237-.031l5.238.135A.746.746,0,0,1,479.922,473.484Z" transform="translate(-356.106 -355.367)" fill="#fff"/>
      <path id="Trazado_2217" data-name="Trazado 2217" d="M452.359,492.973a2.484,2.484,0,0,1-3.393-1.729l-8.774-.953,2.924-3.534L451,488.2a2.5,2.5,0,0,1,1.36,4.77Z" transform="translate(-330.486 -365.446)" fill="#ceb1ac"/>
      <path id="Trazado_2218" data-name="Trazado 2218" d="M326.035,436.154l-17.264-11.86a6.269,6.269,0,0,1-1.616-8.707h0a6.263,6.263,0,0,1,9.59-.881l13.148,13.152,16.043,2.564.14,5.195Z" transform="translate(-229.78 -309.974)" fill="#d1d6bc"/>
      <circle id="Elipse_69" data-name="Elipse 69" cx="14.955" cy="14.955" r="14.955" transform="translate(50.68 11.439)" fill="#f6e164"/>
      <path id="Trazado_2220" data-name="Trazado 2220" d="M282.418,75.781a5.728,5.728,0,0,0-4.834-4.02.524.524,0,0,0-.074,0,.75.75,0,0,0-.1-.022,14.4,14.4,0,0,0-9.271,2.018,18.1,18.1,0,0,1-8.935,2.546l-.056,0a5.706,5.706,0,0,0-5.1,4.113.669.669,0,0,0,.3.732,2.925,2.925,0,0,0,1.206.612q1.439.3,2.887.559,2.827.495,5.683.8a84.536,84.536,0,0,0,11.641.44,8.914,8.914,0,0,0,3.728-.654,5.545,5.545,0,0,0,2.138-1.866A6.292,6.292,0,0,0,282.418,75.781Z" transform="translate(-190.716 -53.78)" fill="#ececec"/>
      <path id="Trazado_2222" data-name="Trazado 2222" d="M186.125,137.554a5.729,5.729,0,0,0-4.834-4.019.489.489,0,0,0-.074,0,.7.7,0,0,0-.1-.023,14.405,14.405,0,0,0-9.271,2.018,18.09,18.09,0,0,1-8.934,2.546l-.056,0a5.705,5.705,0,0,0-5.1,4.113.67.67,0,0,0,.3.732,2.927,2.927,0,0,0,1.206.612q1.439.3,2.887.558,2.827.495,5.683.8a84.534,84.534,0,0,0,11.64.44,8.914,8.914,0,0,0,3.728-.654,5.547,5.547,0,0,0,2.138-1.866,6.293,6.293,0,0,0,.79-5.261Z" transform="translate(-118.422 -100.158)" fill="#ececec"/>
      <path id="Trazado_3860" data-name="Trazado 3860" d="M999.183,609.691l.226.025a6.916,6.916,0,0,0,.773.062,1.3,1.3,0,0,0,.64-.13,10.767,10.767,0,0,1,.993,3.5l-.041-.033a7.883,7.883,0,0,0-2.88-1.49,6.876,6.876,0,0,0-3.582-.011,3.683,3.683,0,0,0-1.979,1.19.6.6,0,0,0-.1.565.481.481,0,0,0,.346.321c.254.057.658.193.953.292.182.061.324.108.376.119.558.128,1.127.236,1.692.323a24.144,24.144,0,0,0,3.466.283c.128,0,.274.015.428.029.2.018.416.038.628.038a1.829,1.829,0,0,0,.786-.146l.005,0a20.033,20.033,0,0,1-.247,3.4c-.05.325-.107.65-.168.975a3.923,3.923,0,0,0-1.431-1.1l-.233-.129a7.123,7.123,0,0,0-3.725-1,2.612,2.612,0,0,0-2.19.966.868.868,0,0,0-.191.449.8.8,0,0,0,.49.786,15.918,15.918,0,0,0,6.2,1.4c.1.008.217.019.347.019a1.517,1.517,0,0,0,.469-.064c-.148.684-.306,1.364-.463,2.032q-.139.592-.277,1.193c-.18-.15-.369-.282-.543-.4l-.078-.053h0a4.673,4.673,0,0,0-5.906.483.352.352,0,0,0,.1.59,6.835,6.835,0,0,0,1.428.446c.059.011.109.021.155.033a11.12,11.12,0,0,0,1.709.314l.071.007c.284.027.7.068,1.144.068a3.685,3.685,0,0,0,1.665-.319c-.218,1.038-.408,2.089-.523,3.146-.436,4.012.422,7.461,2.417,9.71a.322.322,0,0,0,.35.1.332.332,0,0,0,.053.01.345.345,0,0,0,.058,0,.352.352,0,0,0,.291-.405,8.314,8.314,0,0,1,.567-4.157,16.672,16.672,0,0,1,3.121-5.312c.5-.576,1.056-1.131,1.592-1.668.561-.562,1.14-1.142,1.672-1.758a16.942,16.942,0,0,0,2.388-3.618,1.064,1.064,0,0,0,.391.2,6.929,6.929,0,0,0,3.408-.076c1.206-.252,2.415-.566,3.594-.932a6.212,6.212,0,0,0,2.333-1.142.809.809,0,0,0,.337-.738c-.033-.206-.178-.48-.679-.618a8.259,8.259,0,0,0-2.679-.185,14.457,14.457,0,0,0-3.8.653,12.875,12.875,0,0,0-1.815.727,8.453,8.453,0,0,0-.086-2.2,15.265,15.265,0,0,0-.725-3.005,2.792,2.792,0,0,0-.646-1.14.567.567,0,0,0-.37-.174c-.237-.016-.466.125-.553.519l-.454,2a8.857,8.857,0,0,0-.284,1.872c0,.028,0,2.854.976,3.645a.968.968,0,0,0,.452.209,16.2,16.2,0,0,1-2.324,3.544c-.514.6-1.085,1.167-1.636,1.72s-1.106,1.108-1.624,1.7a17.371,17.371,0,0,0-3.253,5.536,10.116,10.116,0,0,0-.683,3.508c-1.942-2.775-1.906-6.421-1.686-8.449.037-.344.085-.689.137-1.033a1.084,1.084,0,0,0,.31.042,2.264,2.264,0,0,0,.313-.026c.045-.006.086-.012.119-.014a11.459,11.459,0,0,0,2.107-.324,12.428,12.428,0,0,0,3.979-1.8.742.742,0,0,0,.263-.277.85.85,0,0,0-.347-1.036,3.19,3.19,0,0,0-2.748-.419,9.483,9.483,0,0,0-2.441,1.191,6.167,6.167,0,0,0-1.242.921c.182-.89.388-1.773.592-2.642.131-.56.262-1.129.389-1.7a2.693,2.693,0,0,0,1.41.316,4.985,4.985,0,0,0,.969-.089,8.987,8.987,0,0,0,2.814-1.382,7.084,7.084,0,0,0,2.592-2.7.968.968,0,0,0,.064-.884.581.581,0,0,0-.38-.262,7.726,7.726,0,0,0-3.07-.062,5.224,5.224,0,0,0-2.072.69,7.111,7.111,0,0,0-1.828,1.8c.005-.035.013-.07.018-.1a19.142,19.142,0,0,0,.181-4.789,1.378,1.378,0,0,0,.3.033,4.3,4.3,0,0,0,1.323-.307c.112-.039.219-.076.315-.106a33.137,33.137,0,0,0,7.232-3.253.8.8,0,0,0,.377-.415.69.69,0,0,0-.048-.565.967.967,0,0,0-.6-.454,3.6,3.6,0,0,0-1.724.128,18.676,18.676,0,0,0-4.1,1.354,7.621,7.621,0,0,0-3.183,2.753,10.949,10.949,0,0,0-1.187-3.56,3.8,3.8,0,0,1,.991-1.3,7.218,7.218,0,0,0,.789-.883,24.8,24.8,0,0,0,1.888-3.38c.877-1.789,1.623-3.542,1.138-5.323a.821.821,0,0,0-.445-.583.8.8,0,0,0-.548.014,4.792,4.792,0,0,0-1.579.935,10.1,10.1,0,0,0-3.347,9.264,6.865,6.865,0,0,0-2-.839,14.066,14.066,0,0,0-4.573-.518c-1.037.055-2.375.331-2.856,1.339a.353.353,0,0,0,.01.324C990.9,608.316,999.1,609.683,999.183,609.691Z" transform="translate(-743.774 -448.54)" fill="#faf5bd"/>
      <path id="Trazado_3861" data-name="Trazado 3861" d="M866,653.023a.31.31,0,0,0,.038-.008,17.19,17.19,0,0,0,3.772-2.478c.3-.24.6-.476.9-.7,1.748-1.328,4.083-2.862,6.342-4.345,4.83-3.172,9.393-6.168,9.757-7.989a.353.353,0,0,0-.526-.373,28.1,28.1,0,0,1-6.448,2.481,25.444,25.444,0,0,0-7.276,2.982h0a17.534,17.534,0,0,0-4.578,4.822c-.1.152-.242.345-.4.567a24.049,24.049,0,0,0-1.472,2.225q.149-2.785.453-5.361a5.828,5.828,0,0,0-.009.953.353.353,0,0,0,.536.274c3.6-2.2,6.472-7.953,8.382-11.783a10.39,10.39,0,0,0,1.452-5.7.353.353,0,0,0-.254-.3.358.358,0,0,0-.374.121,107.171,107.171,0,0,0-6.451,9.132l-.227.359c-1.166,1.841-2.69,4.256-3.013,6.6a60.255,60.255,0,0,1,2.32-10.943.833.833,0,0,0,.391.1h.051a.807.807,0,0,0,.63-.363c1.772-2.7,2.415-6.969,2.885-10.083l.064-.426a.353.353,0,1,0-.7-.106h0a13.52,13.52,0,0,1-1.394,2.824c-1.443,2.538-3.208,5.642-2.461,7.394q-.575,1.757-1.041,3.617a35.694,35.694,0,0,0-1.979-7.877l-.1-.312a23.573,23.573,0,0,0-6.1-10.04.353.353,0,0,0-.574.371,52.721,52.721,0,0,1,1.745,7.817,42.821,42.821,0,0,0,2.477,9.779c.373.869,2.051,3.773,3.4,3.773a.891.891,0,0,0,.17-.016.862.862,0,0,0,.211-.073,72.518,72.518,0,0,0-.98,7.191,35.894,35.894,0,0,0-1.756-3.842c-.108-.21-.2-.382-.255-.5h0a18.665,18.665,0,0,0-3.506-5.235,23.043,23.043,0,0,0-3.639-2.734,22.55,22.55,0,0,1-3.52-2.635.353.353,0,0,0-.6.3,10.077,10.077,0,0,0,2.4,5.339,10.2,10.2,0,0,1,1.55,2.51,25.448,25.448,0,0,0,3.554,6.243c.032.042,2.856,3.6,4.939,3.6a1.555,1.555,0,0,0,.623-.127c-.534.717-.375,1.735-.153,2.975Z" transform="translate(-639.918 -464.125)" fill="#faf5bd"/>
      <path id="Trazado_3862" data-name="Trazado 3862" d="M94.424,699.3c.849-.467,1.547-.8,2.773-1.347.53-.237,1.078-.482,1.621-.689a15.07,15.07,0,0,1,8.933-.531.893.893,0,0,0,.929-.174.778.778,0,0,0,.176-.482c.057-.9-.613-1.713-1.886-2.305a15.118,15.118,0,0,0-6.9-1.372,10.2,10.2,0,0,1,4.111-1.3,1.121,1.121,0,0,0,.507-.128,1.038,1.038,0,0,0,.373-1.186,4.773,4.773,0,0,0-4.634-3.531,7.608,7.608,0,0,0-5.4,2.464c-.03.03-.056.062-.085.092a31.321,31.321,0,0,1,1.816-4.2l.1-.2a5.167,5.167,0,0,0,.836-3.269.354.354,0,0,0-.19-.249.349.349,0,0,0-.313,0,14.2,14.2,0,0,0-5.252,4.525c-.01-.079-.02-.157-.033-.238q-.191-1.268-.429-2.528a3.589,3.589,0,0,0-.4-1.235.567.567,0,0,0-.56-.326.6.6,0,0,0-.389.235,6.721,6.721,0,0,0-1.086,1.811l-.27-.444a.353.353,0,0,0-.305-.169.375.375,0,0,0-.3.176,7.769,7.769,0,0,0-.935,2.581c-.077-.113-.154-.227-.234-.338a30.932,30.932,0,0,0-2.7-3.122.734.734,0,0,0-.442-.258.552.552,0,0,0-.473.178,1.016,1.016,0,0,0-.157.866,39.357,39.357,0,0,0,2.191,7.068,35.393,35.393,0,0,0-6.842-3.917.864.864,0,0,0-1.029.041.84.84,0,0,0-.227.532,4.292,4.292,0,0,0,1.423,3.152,36.871,36.871,0,0,0,4.652,4.145,25.2,25.2,0,0,0-8.4-.4c-.945.092-1.5.431-1.642,1.008-.2.775.453,1.434,1.733,1.764a27.593,27.593,0,0,1,4.634,1.82c1.047.486,2.13.988,3.237,1.389a20.58,20.58,0,0,0,3.726.969,7.8,7.8,0,0,0,1.489.085,39.669,39.669,0,0,0,4.934-.158Z" transform="translate(-55.048 -511.178)" fill="#faf5bd"/>
    </g>
  </g>
</svg>
