<svg xmlns="http://www.w3.org/2000/svg" width="59.743" height="106.67" viewBox="0 0 59.743 106.67">
  <g id="Ilustración_6" data-name="Ilustración 6" transform="translate(29.872 53.335)">
    <g id="Grupo_982" data-name="Grupo 982" transform="translate(-29.872 -53.335)">
      <path id="Trazado_3225" data-name="Trazado 3225" d="M53.638,59.887c-2.134-7.175-4.914-14.244-7.68-21.293-2.385-6.076-4.973-12.18-8.842-17.778a40.071,40.071,0,0,0-6.835-7.8,16.889,16.889,0,0,0-9.7-4.032C14,8.387,7.3,10.372,2.891,14.293A6.613,6.613,0,0,0,.566,17.914a18.2,18.2,0,0,0,.177,5.011q.525,5.265,1.416,10.522a161.723,161.723,0,0,0,4.962,20.78q1.6,5.174,3.554,10.284c1.294,3.385,2.7,6.751,3.766,10.182q.5,1.6.881,3.224A1.915,1.915,0,0,0,15.7,79.73c.03.166.061.332.089.5a.4.4,0,0,0,.621.208,4.743,4.743,0,0,0,2.652.974,13.682,13.682,0,0,0,4.675-1.082q2.7-.895,5.513-1.555A68.077,68.077,0,0,1,40.9,77.09c1.911-.11,3.83-.087,5.75-.122a11.935,11.935,0,0,0,4.6-.781C57.854,73.262,55.17,65.035,53.638,59.887Z" transform="translate(-0.282 -5.668)" fill="#faf5bd"/>
      <path id="Trazado_3226" data-name="Trazado 3226" d="M47.666,86.743c-4.35-3.043-6.256-8.431-7.021-11.537-.13-.527-.245-1.06-.352-1.595a1.682,1.682,0,0,0,.479-.1,3.526,3.526,0,0,0,.447-.206c.063-.033.12-.063.168-.084a17.952,17.952,0,0,0,2.929-1.609,19.47,19.47,0,0,0,4.89-4.792,1.154,1.154,0,0,0,.238-.548,1.332,1.332,0,0,0-1.069-1.339,5,5,0,0,0-4.272.858,14.863,14.863,0,0,0-2.956,3.064,9.664,9.664,0,0,0-1.334,2.023c-.211-1.408-.381-2.82-.548-4.208-.108-.9-.22-1.8-.341-2.715a4.222,4.222,0,0,0,2.246-.292,7.856,7.856,0,0,0,1.379-.651,14.1,14.1,0,0,0,3.4-3.547,11.107,11.107,0,0,0,2.365-5.374,1.518,1.518,0,0,0-.38-1.336.913.913,0,0,0-.7-.182,12.114,12.114,0,0,0-4.555,1.558A8.191,8.191,0,0,0,40,56.255a11.152,11.152,0,0,0-1.722,3.638c-.011-.054-.019-.11-.03-.164a30.01,30.01,0,0,0-2.306-7.149,2.17,2.17,0,0,0,.459-.112A6.745,6.745,0,0,0,38.186,51.3c.145-.118.281-.229.407-.325A51.952,51.952,0,0,0,47.5,42.3a1.252,1.252,0,0,0,.333-.814,1.082,1.082,0,0,0-.374-.805,1.517,1.517,0,0,0-1.13-.345,5.642,5.642,0,0,0-2.469,1.115,29.253,29.253,0,0,0-5.305,4.194,11.944,11.944,0,0,0-3.209,5.764,17.171,17.171,0,0,0-3.66-4.606,5.966,5.966,0,0,1,.76-2.452,11.321,11.321,0,0,0,.688-1.723,38.884,38.884,0,0,0,.964-5.992c.33-3.105.487-6.088-1.184-8.45a1.287,1.287,0,0,0-.968-.62,1.251,1.251,0,0,0-.8.315,7.519,7.519,0,0,0-1.822,2.225,15.829,15.829,0,0,0,.047,15.439,10.753,10.753,0,0,0-3.4-.16,22.047,22.047,0,0,0-7.011,1.694c-1.5.638-3.32,1.764-3.487,3.505a.554.554,0,0,0,.189.471c.434.375,13.256-2.02,13.377-2.05l.346-.084a10.771,10.771,0,0,0,1.171-.324,2.045,2.045,0,0,0,.872-.535,16.891,16.891,0,0,1,3.34,4.615l-.078-.027a12.361,12.361,0,0,0-5.042-.648,10.776,10.776,0,0,0-5.281,1.908,5.768,5.768,0,0,0-2.275,2.816.937.937,0,0,0,.161.884.754.754,0,0,0,.683.287c.4-.052,1.072-.069,1.559-.081.3-.008.535-.016.617-.026.89-.112,1.788-.258,2.665-.433a37.843,37.843,0,0,0,5.256-1.444c.188-.067.411-.125.646-.186.308-.082.634-.168.945-.282a2.864,2.864,0,0,0,1.08-.637l.006-.008a31.4,31.4,0,0,1,1.462,5.14c.1.5.191,1.015.277,1.526a6.152,6.152,0,0,0-2.7-.853l-.412-.065a11.161,11.161,0,0,0-6.024.523,4.094,4.094,0,0,0-2.706,2.6,1.362,1.362,0,0,0-.04.764,1.26,1.26,0,0,0,1.144.893c3.5.454,6.741-.422,9.877-1.27.146-.04.33-.089.521-.159a2.374,2.374,0,0,0,.657-.347c.149,1.087.281,2.172.409,3.241q.114.947.234,1.906c-.347-.124-.7-.216-1.016-.3l-.144-.037h0A7.324,7.324,0,0,0,28.8,72.25a.552.552,0,0,0,.465.815,10.708,10.708,0,0,0,2.342-.11c.093-.015.172-.027.245-.035a17.435,17.435,0,0,0,2.685-.456l.108-.028c.433-.112,1.065-.275,1.721-.515a5.777,5.777,0,0,0,2.28-1.363c.236,1.646.521,3.3.92,4.913,1.513,6.143,4.629,10.76,8.774,13a.55.55,0,0,0,.453.034.576.576,0,0,0,.118-.069A.543.543,0,0,0,49,88.422a.571.571,0,0,0,.083-.038.553.553,0,0,0,.211-.754Z" transform="translate(-9.869 -17.597)" fill="#353535"/>
      <g id="Grupo_981" data-name="Grupo 981">
        <g id="Grupo_974" data-name="Grupo 974">
          <path id="Trazado_3227" data-name="Trazado 3227" d="M35.929,93.329c-3.421.927-7.48,2.055-10.783.152-3.019-1.739-4.458-5.4-5.847-8.411a180.982,180.982,0,0,1-8.689-23.179c-2.408-7.9-4.4-15.929-6.2-23.991-.924-4.137-1.93-8.292-2.469-12.5a29.872,29.872,0,0,1,.492-11.7A16.787,16.787,0,0,1,7.746,5.06a16.122,16.122,0,0,1,9.295-3.4,22.371,22.371,0,0,1,18.594,8.772c4.462,5.719,6.39,12.962,8.378,19.807L51.394,55.65,55.1,68.4l1.865,6.42a25.207,25.207,0,0,1,1.121,5.29,7.462,7.462,0,0,1-1.116,4.842,8.846,8.846,0,0,1-3.848,2.811c-1.675.74-3.458,1.254-5.19,1.841-2.018.683-4.036,1.365-6.068,2.006-1.965.62-3.946,1.177-5.934,1.717a.815.815,0,0,0,.433,1.569c4.252-1.155,8.426-2.512,12.6-3.925,3.355-1.135,7.279-2.118,9.414-5.2,2.216-3.2,1.3-7.387.315-10.845-1.241-4.347-2.522-8.684-3.783-13.026l-7.667-26.4c-1.159-3.989-2.261-8-3.527-11.956a55.186,55.186,0,0,0-4.263-10.28,27.243,27.243,0,0,0-7.213-8.464A23.845,23.845,0,0,0,21.914.318a20.47,20.47,0,0,0-10.677.913A16.267,16.267,0,0,0,3.08,8.03C-1.3,15.257-.2,24.019,1.442,31.885c1.741,8.366,3.688,16.7,5.991,24.933a202.938,202.938,0,0,0,8.318,24.214Q17,84,18.37,86.915a30.729,30.729,0,0,0,2.589,4.745A10.386,10.386,0,0,0,24.923,95.2a11.113,11.113,0,0,0,5.773.866A33.858,33.858,0,0,0,36.362,94.9.815.815,0,0,0,35.929,93.329Z" transform="translate(0 0)" fill="#353535"/>
        </g>
        <g id="Grupo_975" data-name="Grupo 975" transform="translate(14.529 63.659)">
          <path id="Trazado_3228" data-name="Trazado 3228" d="M41.549,190.53a4.99,4.99,0,0,1,2.761-1.478c1.248-.307,2.527-.495,3.786-.748q4.037-.813,8.022-1.863a140.2,140.2,0,0,0,15.8-5.183q4.4-1.737,8.674-3.761a.821.821,0,0,0,.292-1.114.832.832,0,0,0-1.113-.292,139.588,139.588,0,0,1-31.781,10.575c-1.412.288-2.852.489-4.249.848a6.342,6.342,0,0,0-3.346,1.863.836.836,0,0,0,0,1.151.821.821,0,0,0,1.151,0Z" transform="translate(-40.168 -175.993)" fill="#353535"/>
        </g>
        <g id="Grupo_976" data-name="Grupo 976" transform="translate(34.344 89.597)">
          <path id="Trazado_3229" data-name="Trazado 3229" d="M95.049,253.994l3.714,7a9.428,9.428,0,0,0,1.892,2.977,3.834,3.834,0,0,0,3,.758,13.871,13.871,0,0,0,3.255-.968q1.778-.688,3.519-1.468.821-.368,1.634-.758a1.823,1.823,0,0,0,1.176-1.231,5.5,5.5,0,0,0-.054-1.69c-.069-.669-.152-1.336-.245-2a51.853,51.853,0,0,0-1.879-8.349c-.312-1-1.884-.571-1.569.433a51.93,51.93,0,0,1,1.616,6.656q.288,1.666.459,3.348c.029.284.059.569.079.853a2.4,2.4,0,0,0,.014.269c.027.132-.032.171.038.077-.107.144-.455.231-.611.3q-.426.2-.854.4-1.541.709-3.116,1.337a22.759,22.759,0,0,1-2.98,1.054,2.784,2.784,0,0,1-2.387-.219,3.094,3.094,0,0,1-.7-.955c-.287-.518-.557-1.046-.835-1.569l-3.756-7.082c-.491-.926-1.9-.1-1.405.821Z" transform="translate(-94.946 -247.7)" fill="#353535"/>
        </g>
        <g id="Grupo_977" data-name="Grupo 977" transform="translate(35.037 91.15)">
          <path id="Trazado_3230" data-name="Trazado 3230" d="M97.457,258.1a18.219,18.219,0,0,0,15.13-4.728c.762-.722-.39-1.872-1.151-1.151a16.489,16.489,0,0,1-13.547,4.309.841.841,0,0,0-1,.569.82.82,0,0,0,.568,1Z" transform="translate(-96.864 -251.994)" fill="#353535"/>
        </g>
        <g id="Grupo_978" data-name="Grupo 978" transform="translate(36.139 93.93)">
          <path id="Trazado_3231" data-name="Trazado 3231" d="M100.724,265.576a18.271,18.271,0,0,0,13.823-4.531c.785-.7-.37-1.845-1.151-1.151a16.681,16.681,0,0,1-12.672,4.054.82.82,0,0,0-.814.814.832.832,0,0,0,.814.814Z" transform="translate(-99.91 -259.678)" fill="#353535"/>
        </g>
        <g id="Grupo_979" data-name="Grupo 979" transform="translate(37.591 96.908)">
          <path id="Trazado_3232" data-name="Trazado 3232" d="M104.518,273.161a16.535,16.535,0,0,0,13.256-3.886c.79-.691-.365-1.839-1.151-1.151a14.772,14.772,0,0,1-11.672,3.468.841.841,0,0,0-1,.568.82.82,0,0,0,.568,1Z" transform="translate(-103.925 -267.912)" fill="#353535"/>
        </g>
        <g id="Grupo_980" data-name="Grupo 980" transform="translate(38.812 99.076)">
          <path id="Trazado_3233" data-name="Trazado 3233" d="M108.083,279.515a29.349,29.349,0,0,0,7.281-1.368,29.888,29.888,0,0,0,3.431-1.363c.942-.442,2.607-1.136,1.895-2.473-.492-.925-1.9-.1-1.405.821l-.019,0V274.7c-.027.149-.749.421-.926.508-.446.217-.9.425-1.356.616a27.788,27.788,0,0,1-8.9,2.068c-1.04.064-1.048,1.692,0,1.628Z" transform="translate(-107.3 -273.905)" fill="#353535"/>
        </g>
      </g>
    </g>
  </g>
</svg>
