<svg xmlns="http://www.w3.org/2000/svg" width="30" height="48.284" viewBox="0 0 30 48.284">
  <g id="Ilustración_13" data-name="Ilustración 13" transform="translate(15 24.142)">
    <g id="Grupo_1870" data-name="Grupo 1870" transform="translate(-15 -24.142)">
      <g id="Grupo_1868" data-name="Grupo 1868" transform="translate(2.857 20.247)">
        <path id="Trazado_4415" data-name="Trazado 4415" d="M5.261,51.38c0-8.041,5.731-14.1,13.359-14.1A11.227,11.227,0,0,1,29.3,43.834l-4.164,2.639c-1.526-3.422-3.958-4.824-6.8-4.824-4.659,0-7.586,3.752-7.586,9.772,0,5.772,2.68,9.607,8.164,9.607a8.425,8.425,0,0,0,3.793-.783c1.444-.742,1.815-1.938,1.815-3.545V50.968h5.03V61.317c-2.268,2.515-6.309,4-10.473,4C10.662,65.316,5.261,59.131,5.261,51.38Z" transform="translate(-5.261 -37.279)" fill="#fff"/>
      </g>
      <g id="Grupo_1869" data-name="Grupo 1869">
        <path id="Trazado_4416" data-name="Trazado 4416" d="M5.227,7.357C10.581,12.5,18.46,14.306,20.478,14.63A17.116,17.116,0,0,0,.1.354,15.009,15.009,0,0,0,20.621,16l0-.024C9.5,14.62,5.227,7.357,5.227,7.357Z" transform="translate(0 0)" fill="#fff"/>
        <path id="Trazado_4417" data-name="Trazado 4417" d="M43.284.36A17.218,17.218,0,0,0,39.835.012,17.021,17.021,0,0,0,29.3,3.646a18.372,18.372,0,0,1,3.683,4.706c2.285-1.3,5.829-3.482,7.077-5.265C38.5,5.932,36.647,7.236,33.514,9.4a18.184,18.184,0,0,1,1.637,6.086A14.993,14.993,0,0,0,43.388,2.1,15.215,15.215,0,0,0,43.284.36Z" transform="translate(-13.388 -0.005)" fill="#fff"/>
      </g>
    </g>
  </g>
</svg>
