<svg xmlns="http://www.w3.org/2000/svg" width="55.237" height="88.902" viewBox="0 0 55.237 88.902">
  <g id="Ilustración_13" data-name="Ilustración 13" transform="translate(27.619 44.451)">
    <g id="Grupo_1756" data-name="Grupo 1756" transform="translate(-27.619 -44.451)">
      <g id="Grupo_1754" data-name="Grupo 1754" transform="translate(0 0)">
        <path id="Trazado_4076" data-name="Trazado 4076" d="M5.261,63.243c0-14.805,10.552-25.964,24.6-25.964,8.806,0,16.17,4.327,19.662,12.07l-7.667,4.859c-2.809-6.3-7.288-8.882-12.527-8.882-8.578,0-13.968,6.908-13.968,17.992,0,10.628,4.934,17.688,15.031,17.688a15.513,15.513,0,0,0,6.984-1.442C40.031,78.2,40.714,76,40.714,73.036V62.483h9.262V81.538C45.8,86.169,38.36,88.9,30.693,88.9,15.206,88.9,5.261,77.514,5.261,63.243Z" fill="#fff"/>
      </g>
      <g id="Grupo_1755" data-name="Grupo 1755" transform="translate(0 0)">
        <path id="Trazado_4077" data-name="Trazado 4077" d="M9.624,13.547c9.859,9.475,24.365,12.794,28.08,13.39A31.515,31.515,0,0,0,.192.652a27.634,27.634,0,0,0,37.776,28.81l0-.044C17.5,26.92,9.624,13.547,9.624,13.547Z" fill="#fff"/>
        <path id="Trazado_4078" data-name="Trazado 4078" d="M55.046.652A31.7,31.7,0,0,0,48.7.012,31.339,31.339,0,0,0,29.3,6.7a33.827,33.827,0,0,1,6.781,8.665c4.208-2.386,10.733-6.411,13.03-9.7-2.877,5.24-6.287,7.64-12.056,11.623A33.481,33.481,0,0,1,40.072,28.5,27.606,27.606,0,0,0,55.237,3.857,28.016,28.016,0,0,0,55.046.652Z" fill="#fff"/>
      </g>
    </g>
  </g>
</svg>
