<svg xmlns="http://www.w3.org/2000/svg" xmlns:xlink="http://www.w3.org/1999/xlink" width="25.739" height="50" viewBox="0 0 25.739 50">
  <defs>
    <clipPath id="clip-path">
      <rect id="Rectángulo_53" data-name="Rectángulo 53" width="25.739" height="50" fill="#fff"/>
    </clipPath>
  </defs>
  <g id="Grupo_28" data-name="Grupo 28" transform="translate(0 0)">
    <g id="Grupo_21" data-name="Grupo 21" transform="translate(0 0)" clip-path="url(#clip-path)">
      <text id="G" transform="translate(0.593 39.003)" fill="#fff" font-size="34" font-family="Bilo-Medium, Bilo" font-weight="500"><tspan x="0" y="0">G</tspan></text>
      <path id="Trazado_1299" data-name="Trazado 1299" d="M4.484,6.313c4.594,4.415,11.353,5.961,13.085,6.239A14.685,14.685,0,0,0,.089.3a12.877,12.877,0,0,0,17.6,13.425l0-.021c-9.537-1.164-13.206-7.4-13.206-7.4" transform="translate(0 0)" fill="#fff"/>
      <path id="Trazado_1300" data-name="Trazado 1300" d="M43.305.311a14.7,14.7,0,0,0-12,2.819,15.768,15.768,0,0,1,3.16,4.038c1.961-1.112,5-2.987,6.072-4.517-1.341,2.441-2.929,3.56-5.618,5.416a15.578,15.578,0,0,1,1.4,5.222A12.863,12.863,0,0,0,43.394,1.8,12.982,12.982,0,0,0,43.305.311" transform="translate(-17.655 -0.007)" fill="#fff"/>
    </g>
  </g>
</svg>
