<svg xmlns="http://www.w3.org/2000/svg" width="30" height="30" viewBox="0 0 30 30">
  <path id="Icon_metro-sun4" data-name="Icon metro-sun4" d="M20.463,11.743A8.077,8.077,0,1,0,28.54,19.82,8.087,8.087,0,0,0,20.463,11.743Zm0-2.308a1.153,1.153,0,0,0,1.154-1.154V5.974a1.154,1.154,0,1,0-2.308,0V8.282A1.152,1.152,0,0,0,20.463,9.435Zm0,20.769a1.153,1.153,0,0,0-1.154,1.154v2.308a1.154,1.154,0,1,0,2.308,0V31.359A1.154,1.154,0,0,0,20.463,30.2Zm8.972-17.728,1.632-1.632a1.154,1.154,0,1,0-1.632-1.632L27.8,10.845a1.154,1.154,0,1,0,1.632,1.632ZM11.487,27.165,9.856,28.8a1.154,1.154,0,0,0,1.631,1.632L13.119,28.8a1.154,1.154,0,0,0-1.632-1.632ZM10.078,19.82a1.154,1.154,0,0,0-1.154-1.154H6.617a1.154,1.154,0,1,0,0,2.308H8.924A1.153,1.153,0,0,0,10.078,19.82Zm24.231-1.154H32a1.154,1.154,0,1,0,0,2.308h2.308a1.154,1.154,0,0,0,0-2.308Zm-22.823-6.19a1.154,1.154,0,1,0,1.632-1.632L11.486,9.213a1.154,1.154,0,0,0-1.632,1.632ZM29.438,27.162a1.154,1.154,0,0,0-1.632,1.632l1.632,1.632a1.154,1.154,0,1,0,1.632-1.632Z" transform="translate(-5.463 -4.82)" fill="#748b30"/>
</svg>
